{"glyphs":{"0":{"ha":765,"x_min":94,"x_max":729,"o":"m 729 689 q 701 414 729 553 q 622 180 673 276 q 498 35 571 83 q 334 -14 425 -14 q 154 72 214 -14 q 94 335 94 158 q 124 594 94 461 q 209 820 155 726 q 335 961 262 914 q 498 1007 408 1007 q 729 689 729 1007 m 490 947 q 327 871 399 947 q 209 648 254 794 q 164 342 164 501 q 207 119 164 191 q 340 46 249 46 q 506 122 435 46 q 618 351 577 198 q 660 682 660 503 q 620 882 660 817 q 490 947 579 947 z "},"1":{"ha":765,"x_min":240,"x_max":576,"o":"m 364 0 l 293 0 l 446 715 q 496 914 458 778 q 445 873 467 890 q 275 764 422 856 l 240 817 l 515 991 l 576 991 l 364 0 z "},"2":{"ha":765,"x_min":26,"x_max":725,"o":"m 616 0 l 26 0 l 41 71 l 346 343 q 538 531 480 463 q 624 657 597 598 q 652 779 652 716 q 607 900 652 855 q 473 945 562 945 q 248 857 354 945 l 211 907 q 478 1006 333 1006 q 660 948 595 1006 q 725 787 725 890 q 695 646 725 713 q 600 503 666 579 q 389 297 533 426 l 129 68 l 129 65 l 628 65 l 616 0 z "},"3":{"ha":765,"x_min":37,"x_max":711,"o":"m 711 796 q 640 610 711 686 q 446 513 568 533 l 446 510 q 571 432 525 494 q 618 278 618 370 q 574 120 618 187 q 453 20 531 53 q 267 -14 374 -14 q 141 0 201 -14 q 37 36 81 14 l 37 104 q 271 46 154 46 q 476 107 404 46 q 549 278 549 168 q 488 429 549 376 q 321 482 428 482 l 241 482 l 256 547 l 330 547 q 556 612 472 547 q 640 787 640 677 q 597 906 640 865 q 469 947 554 947 q 236 859 356 947 l 203 909 q 330 980 260 955 q 478 1006 401 1006 q 649 950 587 1006 q 711 796 711 894 z "},"4":{"ha":765,"x_min":16,"x_max":741,"o":"m 726 252 l 547 252 l 493 0 l 428 0 l 482 252 l 16 252 l 29 317 l 627 1002 l 707 1002 l 561 311 l 741 311 l 726 252 m 494 311 q 575 690 548 562 q 633 930 602 819 l 631 930 q 543 818 586 869 l 102 311 l 494 311 z "},"5":{"ha":765,"x_min":60,"x_max":729,"o":"m 395 596 q 593 527 522 596 q 664 338 664 458 q 564 82 664 177 q 288 -14 463 -14 q 167 0 231 -14 q 60 35 104 14 l 60 107 q 290 46 175 46 q 513 124 431 46 q 595 336 595 201 q 537 485 595 431 q 385 539 479 539 q 220 511 294 539 l 175 545 l 306 991 l 729 991 l 717 926 l 350 926 l 249 576 q 395 596 315 596 z "},"6":{"ha":765,"x_min":115,"x_max":753,"o":"m 115 290 q 186 660 115 482 q 369 921 258 837 q 629 1004 481 1004 q 753 990 713 1004 l 741 929 q 625 945 682 945 q 358 827 467 945 q 200 486 250 709 l 205 486 q 317 583 252 550 q 460 616 382 616 q 630 548 569 616 q 690 357 690 480 q 650 166 690 251 q 534 34 609 81 q 359 -14 458 -14 q 179 67 243 -14 q 115 290 115 148 m 368 46 q 502 86 444 46 q 590 196 559 125 q 621 351 621 266 q 575 504 621 450 q 443 557 530 557 q 338 535 388 557 q 251 476 289 514 q 198 398 213 439 q 183 281 183 358 q 232 108 183 170 q 368 46 281 46 z "},"7":{"ha":765,"x_min":165,"x_max":783,"o":"m 165 0 l 705 926 l 186 926 l 201 991 l 783 991 l 770 917 l 241 0 l 165 0 z "},"8":{"ha":765,"x_min":66,"x_max":739,"o":"m 500 1007 q 675 949 610 1007 q 739 794 739 892 q 682 635 739 701 q 489 518 625 570 q 618 402 577 465 q 659 261 659 340 q 619 120 659 182 q 507 22 580 58 q 330 -14 434 -14 q 138 49 210 -14 q 66 221 66 112 q 135 403 66 329 q 353 530 203 477 q 255 633 285 579 q 225 755 225 688 q 302 935 225 863 q 500 1007 380 1007 m 414 497 q 201 384 266 448 q 136 231 136 319 q 189 91 136 138 q 338 43 241 43 q 521 104 452 43 q 590 262 590 166 q 548 391 590 333 q 414 497 506 448 m 493 949 q 348 893 405 949 q 290 755 290 838 q 318 648 290 694 q 425 551 347 602 q 614 649 555 593 q 673 789 673 705 q 626 906 673 863 q 493 949 578 949 z "},"9":{"ha":765,"x_min":78,"x_max":718,"o":"m 718 700 q 649 328 718 505 q 471 69 581 152 q 204 -14 361 -14 q 78 1 127 -14 l 78 62 q 208 43 137 43 q 633 500 530 43 l 628 500 q 379 370 533 370 q 206 441 269 370 q 143 633 143 512 q 183 824 143 739 q 299 957 224 909 q 473 1004 374 1004 q 655 926 591 1004 q 718 700 718 848 m 465 945 q 331 905 389 945 q 243 795 273 865 q 212 639 212 724 q 258 486 212 541 q 389 432 304 432 q 495 454 445 432 q 583 513 546 476 q 635 591 620 551 q 650 710 650 631 q 602 884 650 823 q 465 945 553 945 z "}," ":{"ha":361,"x_min":0,"x_max":0,"o":""},"!":{"ha":340,"x_min":54,"x_max":345,"o":"m 168 256 l 126 256 l 264 991 l 345 991 l 168 256 m 54 39 q 71 99 54 77 q 118 121 88 121 q 163 72 163 121 q 146 13 163 36 q 100 -11 129 -11 q 54 39 54 -11 z "},"\"":{"ha":489,"x_min":168,"x_max":532,"o":"m 309 991 l 210 633 l 168 633 l 222 991 l 309 991 m 532 991 l 433 633 l 392 633 l 446 991 l 532 991 z "},"#":{"ha":897,"x_min":56,"x_max":918,"o":"m 264 359 l 345 629 l 143 629 l 149 684 l 359 684 l 450 991 l 511 991 l 419 684 l 667 684 l 758 991 l 817 991 l 725 684 l 918 684 l 913 629 l 708 629 l 628 359 l 833 359 l 828 306 l 611 306 l 521 0 l 460 0 l 551 306 l 307 306 l 216 0 l 157 0 l 248 306 l 56 306 l 61 359 l 264 359 m 322 359 l 568 359 l 650 629 l 404 629 l 322 359 z "},"$":{"ha":765,"x_min":96,"x_max":717,"o":"m 629 317 q 554 152 629 214 q 353 82 479 90 l 317 -81 l 261 -81 l 296 82 q 189 94 242 83 q 96 123 135 105 l 96 187 q 200 151 140 164 q 309 138 260 138 l 383 485 q 279 547 309 521 q 234 606 250 572 q 218 685 218 640 q 290 855 218 790 q 475 922 361 920 l 503 1053 l 557 1053 l 529 922 q 717 876 630 919 l 693 823 q 519 871 618 865 l 446 522 q 563 455 530 481 q 612 395 595 428 q 629 317 629 361 m 364 138 q 516 188 460 142 q 571 313 571 234 q 538 400 571 364 q 432 467 506 437 l 364 138 m 465 871 q 326 817 374 865 q 278 690 278 768 q 303 603 278 637 q 396 538 328 569 l 465 871 z "},"%":{"ha":1055,"x_min":98,"x_max":1031,"o":"m 989 991 l 216 0 l 144 0 l 914 991 l 989 991 m 1031 415 q 997 193 1031 296 q 905 37 963 90 q 771 -16 846 -16 q 654 36 695 -16 q 614 187 614 87 q 649 399 614 296 q 743 554 684 502 q 873 607 801 607 q 993 558 956 607 q 1031 415 1031 510 m 871 557 q 771 508 817 557 q 699 370 726 458 q 672 192 672 282 q 700 74 672 113 q 777 35 728 35 q 919 148 865 35 q 972 410 972 260 q 948 520 972 484 q 871 557 924 557 m 515 812 q 481 591 515 694 q 389 435 448 488 q 256 382 331 382 q 139 433 180 382 q 98 585 98 484 q 134 796 98 693 q 227 952 169 899 q 358 1004 286 1004 q 515 812 515 1004 m 355 954 q 257 906 302 954 q 184 768 212 857 q 157 589 157 679 q 184 471 157 511 q 261 432 212 432 q 362 481 318 432 q 431 619 406 530 q 457 807 457 709 q 433 918 457 881 q 355 954 408 954 z "},"&":{"ha":903,"x_min":53,"x_max":886,"o":"m 507 946 q 376 900 422 946 q 329 770 329 854 q 403 579 329 680 q 592 690 541 640 q 644 814 644 741 q 606 911 644 876 q 507 946 568 946 m 315 43 q 459 72 389 43 q 610 171 529 100 l 371 505 q 214 414 260 452 q 143 330 168 376 q 119 222 119 283 q 172 92 119 142 q 315 43 225 43 m 53 220 q 120 408 53 330 q 340 554 187 486 l 313 600 q 260 770 260 686 q 328 942 260 876 q 507 1007 397 1007 q 661 955 606 1007 q 717 815 717 903 q 689 711 717 758 q 607 624 661 664 q 433 530 553 584 l 657 216 q 749 336 707 267 q 811 463 791 405 l 886 463 q 693 167 817 295 l 818 0 l 734 0 l 646 125 q 481 19 564 52 q 301 -14 399 -14 q 120 50 188 -14 q 53 220 53 114 z "},"'":{"ha":273,"x_min":172,"x_max":313,"o":"m 313 991 l 214 633 l 172 633 l 227 991 l 313 991 z "},"(":{"ha":357,"x_min":71,"x_max":484,"o":"m 71 183 q 153 612 71 416 q 412 991 236 809 l 484 991 q 223 606 308 804 q 138 187 138 408 q 224 -220 138 -28 l 170 -220 q 71 183 71 -42 z "},")":{"ha":357,"x_min":-106,"x_max":307,"o":"m 307 589 q 223 157 307 355 q -35 -220 140 -40 l -106 -220 q 154 164 68 -34 q 240 585 240 363 q 221 784 240 685 q 154 991 201 883 l 208 991 q 307 589 307 814 z "},"*":{"ha":771,"x_min":158,"x_max":789,"o":"m 566 1044 l 492 770 l 789 775 l 783 703 l 501 722 l 624 450 l 546 425 l 454 708 l 261 472 l 208 525 l 424 741 l 158 825 l 184 895 l 452 781 l 484 1057 l 566 1044 z "},"+":{"ha":765,"x_min":110,"x_max":722,"o":"m 382 456 l 110 456 l 110 524 l 382 524 l 382 798 l 450 798 l 450 524 l 722 524 l 722 456 l 450 456 l 450 184 l 382 184 l 382 456 z "},",":{"ha":306,"x_min":-61,"x_max":175,"o":"m 170 161 l 175 146 q 98 -13 152 83 q -11 -179 43 -109 l -61 -179 q 35 5 -7 -90 q 94 161 77 99 l 170 161 z "},"-":{"ha":427,"x_min":56,"x_max":378,"o":"m 56 340 l 68 401 l 378 401 l 367 340 l 56 340 z "},".":{"ha":329,"x_min":56,"x_max":164,"o":"m 56 37 q 73 97 56 75 q 119 119 90 119 q 164 71 164 119 q 147 11 164 35 q 102 -12 130 -12 q 56 37 56 -12 z "},"/":{"ha":435,"x_min":-68,"x_max":561,"o":"m 561 991 l 7 0 l -68 0 l 485 991 l 561 991 z "},":":{"ha":329,"x_min":69,"x_max":285,"o":"m 176 671 q 194 731 176 709 q 240 753 211 753 q 285 704 285 753 q 268 644 285 667 q 222 621 251 621 q 176 671 176 621 m 69 37 q 86 97 69 75 q 134 119 104 119 q 178 71 178 119 q 160 11 178 33 q 115 -12 143 -12 q 69 37 69 -12 z "},";":{"ha":329,"x_min":-36,"x_max":289,"o":"m 195 161 l 200 146 q 120 -18 176 81 q 14 -179 63 -117 l -36 -179 q 60 5 18 -90 q 119 161 102 99 l 195 161 m 180 671 q 198 731 180 709 q 244 753 215 753 q 289 704 289 753 q 272 644 289 667 q 227 621 255 621 q 180 671 180 621 z "},"<":{"ha":765,"x_min":93,"x_max":713,"o":"m 713 178 l 93 458 l 93 509 l 713 828 l 713 758 l 170 488 l 713 250 l 713 178 z "},"=":{"ha":765,"x_min":114,"x_max":726,"o":"m 114 600 l 114 668 l 726 668 l 726 600 l 114 600 m 114 313 l 114 379 l 726 379 l 726 313 l 114 313 z "},">":{"ha":765,"x_min":115,"x_max":736,"o":"m 115 250 l 659 488 l 115 758 l 115 828 l 736 509 l 736 458 l 115 178 l 115 250 z "},"?":{"ha":542,"x_min":115,"x_max":599,"o":"m 164 245 l 168 265 q 224 405 188 355 q 330 505 260 456 q 449 604 410 562 q 508 690 488 646 q 528 786 528 735 q 482 901 528 859 q 358 943 436 943 q 150 875 264 943 l 123 933 q 240 986 181 966 q 367 1006 298 1006 q 537 948 475 1006 q 599 793 599 891 q 554 634 599 707 q 397 481 509 562 q 308 407 340 439 q 258 343 275 375 q 227 245 241 311 l 164 245 m 115 40 q 132 100 115 78 q 179 122 149 122 q 224 74 224 122 q 207 14 224 37 q 161 -9 191 -9 q 115 40 115 -9 z "},"@":{"ha":1169,"x_min":85,"x_max":1145,"o":"m 1145 582 q 1107 362 1145 460 q 1002 209 1069 264 q 859 153 935 153 q 754 190 792 153 q 715 288 715 227 l 713 288 q 623 187 676 222 q 509 153 570 153 q 388 202 433 153 q 343 339 343 252 q 386 531 343 445 q 507 666 429 617 q 684 714 585 714 q 854 679 766 714 l 798 465 q 771 315 771 370 q 794 240 771 267 q 863 212 818 212 q 971 262 921 212 q 1051 396 1021 312 q 1080 567 1080 481 q 1036 755 1080 673 q 909 882 992 837 q 711 928 827 928 q 424 854 552 928 q 223 648 295 781 q 151 350 151 515 q 256 45 151 155 q 551 -64 361 -64 q 836 -8 692 -64 l 836 -69 q 546 -125 694 -125 q 303 -69 408 -125 q 142 93 199 -13 q 85 345 85 199 q 167 679 85 532 q 396 908 250 827 q 717 989 542 989 q 941 940 845 989 q 1091 795 1037 890 q 1145 582 1145 700 m 684 657 q 545 617 607 657 q 448 505 483 577 q 414 343 414 433 q 441 247 414 281 q 518 212 469 212 q 641 273 587 212 q 725 446 694 333 l 778 642 q 684 657 733 657 z "},"A":{"ha":718,"x_min":-75,"x_max":664,"o":"m 546 353 l 199 353 l 4 0 l -75 0 l 482 996 l 528 996 l 664 0 l 593 0 l 546 353 m 538 415 l 511 612 q 485 885 490 777 q 441 797 465 842 q 233 415 418 751 l 538 415 z "},"B":{"ha":815,"x_min":69,"x_max":802,"o":"m 279 991 l 536 991 q 733 935 665 991 q 802 771 802 878 q 741 602 802 667 q 568 518 680 537 l 568 515 q 696 438 653 494 q 739 300 739 382 q 644 80 739 161 q 379 0 549 0 l 69 0 l 279 991 m 256 550 l 444 550 q 656 605 584 550 q 729 766 729 660 q 676 889 729 847 q 521 930 623 930 l 336 930 l 256 550 m 243 489 l 151 61 l 383 61 q 593 120 519 61 q 667 294 667 180 q 606 441 667 393 q 419 489 545 489 l 243 489 z "},"C":{"ha":793,"x_min":115,"x_max":860,"o":"m 652 942 q 413 871 518 942 q 247 665 309 800 q 186 366 186 529 q 261 131 186 213 q 476 49 336 49 q 682 83 571 49 l 682 20 q 468 -14 576 -14 q 206 85 297 -14 q 115 363 115 183 q 186 694 115 543 q 379 925 257 844 q 652 1006 501 1006 q 860 960 772 1006 l 829 899 q 745 930 792 919 q 652 942 698 942 z "},"D":{"ha":916,"x_min":69,"x_max":873,"o":"m 873 596 q 799 283 873 425 q 595 71 725 142 q 293 0 466 0 l 69 0 l 279 991 l 486 991 q 775 891 677 991 q 873 596 873 791 m 292 61 q 559 125 445 61 q 736 312 673 189 q 799 591 799 435 q 476 929 799 929 l 336 929 l 150 61 l 292 61 z "},"E":{"ha":724,"x_min":69,"x_max":772,"o":"m 562 0 l 69 0 l 279 991 l 772 991 l 758 928 l 335 928 l 256 553 l 656 553 l 642 489 l 243 489 l 151 64 l 576 64 l 562 0 z "},"F":{"ha":665,"x_min":69,"x_max":760,"o":"m 139 0 l 69 0 l 279 991 l 760 991 l 746 928 l 336 928 l 245 507 l 632 507 l 618 443 l 232 443 l 139 0 z "},"G":{"ha":932,"x_min":115,"x_max":909,"o":"m 581 498 l 856 498 l 754 36 q 479 -14 611 -14 q 210 85 305 -14 q 115 371 115 184 q 186 699 115 551 q 379 926 258 847 q 647 1006 500 1006 q 785 993 724 1006 q 909 953 846 980 l 884 889 q 755 931 809 920 q 642 942 701 942 q 412 869 517 942 q 246 665 307 796 q 186 371 186 533 q 263 132 186 216 q 485 49 341 49 q 694 81 590 49 l 774 437 l 568 437 l 581 498 z "},"H":{"ha":926,"x_min":69,"x_max":930,"o":"m 721 0 l 653 0 l 755 488 l 240 488 l 139 0 l 69 0 l 279 991 l 349 991 l 254 551 l 770 551 l 863 991 l 930 991 l 721 0 z "},"J":{"ha":323,"x_min":-220,"x_max":339,"o":"m -122 -244 q -182 -239 -155 -244 q -220 -228 -209 -233 l -212 -165 q -119 -179 -174 -179 q 58 -16 25 -179 l 268 991 l 339 991 l 126 -20 q 41 -190 102 -135 q -122 -244 -20 -244 z "},"K":{"ha":761,"x_min":69,"x_max":886,"o":"m 664 0 l 589 0 l 357 534 l 228 431 l 139 0 l 69 0 l 279 991 l 349 991 l 241 501 l 332 583 l 793 991 l 886 991 l 412 578 l 664 0 z "},"L":{"ha":636,"x_min":69,"x_max":574,"o":"m 69 0 l 279 991 l 349 991 l 153 65 l 574 65 l 558 0 l 69 0 z "},"M":{"ha":1132,"x_min":74,"x_max":1122,"o":"m 524 139 l 1021 991 l 1122 991 l 918 0 l 850 0 l 979 611 q 1047 914 1033 861 l 1043 914 l 514 0 l 479 0 l 329 914 l 325 914 q 272 625 311 810 l 139 0 l 74 0 l 283 991 l 380 991 l 519 139 l 524 139 z "},"N":{"ha":930,"x_min":69,"x_max":935,"o":"m 725 0 l 667 0 l 317 871 l 311 871 q 279 686 296 770 q 134 0 262 602 l 69 0 l 279 991 l 334 991 l 688 114 l 693 114 q 743 396 709 233 l 871 991 l 935 991 l 725 0 z "},"O":{"ha":993,"x_min":117,"x_max":951,"o":"m 951 618 q 888 291 951 445 q 717 62 824 138 q 469 -14 610 -14 q 208 87 300 -14 q 117 379 117 189 q 180 703 117 557 q 353 927 243 849 q 606 1006 463 1006 q 862 905 773 1006 q 951 618 951 804 m 596 942 q 387 873 478 942 q 241 671 296 805 q 187 389 187 538 q 261 136 187 222 q 478 49 336 49 q 682 116 593 49 q 824 319 770 182 q 878 611 878 456 q 807 858 878 774 q 596 942 736 942 z "},"P":{"ha":777,"x_min":69,"x_max":777,"o":"m 777 747 q 363 408 777 408 l 227 408 l 139 0 l 69 0 l 279 991 l 493 991 q 703 929 630 991 q 777 747 777 866 m 237 471 l 367 471 q 620 536 538 471 q 703 743 703 602 q 479 929 703 929 l 336 929 l 237 471 z "},"Q":{"ha":993,"x_min":117,"x_max":951,"o":"m 951 618 q 904 334 951 471 q 778 115 857 197 q 591 1 699 32 l 772 -236 l 676 -236 l 519 -11 l 469 -14 q 208 87 300 -14 q 117 379 117 189 q 180 703 117 557 q 353 927 243 849 q 606 1006 463 1006 q 862 905 773 1006 q 951 618 951 804 m 596 942 q 387 873 478 942 q 241 671 296 805 q 187 389 187 538 q 261 136 187 222 q 478 49 336 49 q 682 116 593 49 q 824 319 770 182 q 878 611 878 456 q 807 858 878 774 q 596 942 736 942 z "},"R":{"ha":777,"x_min":69,"x_max":777,"o":"m 228 429 l 139 0 l 69 0 l 279 991 l 485 991 q 777 747 777 991 q 706 542 777 624 q 515 439 636 460 q 665 0 652 38 l 590 0 l 447 429 l 228 429 m 243 492 l 414 492 q 629 556 555 492 q 703 747 703 621 q 479 929 703 929 l 336 929 l 243 492 z "},"S":{"ha":692,"x_min":25,"x_max":703,"o":"m 607 273 q 563 121 607 188 q 441 20 518 54 q 258 -14 363 -14 q 141 -2 199 -14 q 25 37 84 9 l 25 111 q 261 49 136 49 q 461 107 389 49 q 534 265 534 166 q 523 336 534 307 q 487 389 511 366 q 426 435 463 413 q 336 486 388 458 q 194 597 235 538 q 154 737 154 657 q 194 878 154 817 q 306 972 234 939 q 467 1006 378 1006 q 589 994 534 1006 q 703 953 644 982 l 681 889 q 578 932 636 916 q 467 947 520 947 q 291 891 356 947 q 225 743 225 836 q 258 628 225 673 q 382 538 292 583 q 527 450 486 484 q 587 373 567 415 q 607 273 607 331 z "},"T":{"ha":668,"x_min":131,"x_max":804,"o":"m 297 0 l 228 0 l 424 928 l 131 928 l 144 991 l 804 991 l 791 928 l 493 928 l 297 0 z "},"U":{"ha":929,"x_min":119,"x_max":946,"o":"m 946 991 l 806 329 q 672 66 766 146 q 418 -14 578 -14 q 119 258 119 -14 q 138 395 119 315 l 264 991 l 334 991 l 203 382 q 189 257 189 321 q 421 47 189 47 q 630 113 553 47 q 737 329 706 178 l 878 991 l 946 991 z "},"V":{"ha":732,"x_min":136,"x_max":861,"o":"m 310 100 q 394 267 345 175 l 782 991 l 861 991 l 319 0 l 260 0 l 136 991 l 204 991 l 283 347 q 307 100 301 200 l 310 100 z "},"W":{"ha":1154,"x_min":161,"x_max":1255,"o":"m 690 909 q 648 805 672 858 q 267 0 625 753 l 211 0 l 161 991 l 229 991 l 261 292 l 264 180 l 262 122 l 267 122 q 382 392 324 275 l 676 991 l 747 991 l 789 396 q 802 118 802 216 l 806 118 q 847 229 826 176 q 1182 991 869 281 l 1255 991 q 1031 496 1141 744 q 808 0 922 248 l 755 0 l 703 729 q 695 878 695 825 l 696 909 l 690 909 z "},"X":{"ha":659,"x_min":-92,"x_max":779,"o":"m 596 0 l 524 0 l 351 460 l -5 0 l -92 0 l 321 519 l 136 991 l 208 991 l 371 567 l 699 991 l 779 991 l 403 504 l 596 0 z "},"Y":{"ha":654,"x_min":131,"x_max":783,"o":"m 335 437 l 704 991 l 783 991 l 355 359 l 282 0 l 211 0 l 292 370 l 131 991 l 199 991 l 335 437 z "},"Z":{"ha":765,"x_min":-8,"x_max":831,"o":"m 619 0 l -8 0 l 7 62 l 732 928 l 214 928 l 229 991 l 831 991 l 818 932 l 93 64 l 635 64 l 619 0 z "},"[":{"ha":364,"x_min":-39,"x_max":507,"o":"m 250 -220 l -39 -220 l 216 991 l 507 991 l 494 930 l 271 930 l 40 -158 l 264 -158 l 250 -220 z "},"\\":{"ha":435,"x_min":142,"x_max":364,"o":"m 200 991 l 364 0 l 309 0 l 142 991 l 200 991 z "},"]":{"ha":364,"x_min":-119,"x_max":427,"o":"m 138 991 l 427 991 l 171 -220 l -119 -220 l -107 -158 l 117 -158 l 347 930 l 123 930 l 138 991 z "},"^":{"ha":710,"x_min":47,"x_max":684,"o":"m 47 386 l 446 1000 l 507 1000 l 684 386 l 612 386 l 465 935 l 126 386 l 47 386 z "},"_":{"ha":543,"x_min":-123,"x_max":436,"o":"m 424 -197 l -123 -197 l -111 -139 l 436 -139 l 424 -197 z "},"`":{"ha":770,"x_min":330,"x_max":519,"o":"m 519 842 l 475 842 q 397 940 441 877 q 330 1050 354 1002 l 330 1064 l 408 1064 q 519 859 439 977 l 519 842 z "},"a":{"ha":768,"x_min":69,"x_max":732,"o":"m 444 749 q 633 600 602 749 l 637 600 l 677 737 l 732 737 l 576 0 l 521 0 l 551 186 l 547 186 q 420 38 490 90 q 260 -14 351 -14 q 69 240 69 -14 q 120 495 69 374 q 256 683 171 616 q 444 749 341 749 m 275 47 q 396 90 336 47 q 504 202 456 132 q 576 358 551 273 q 602 503 602 444 q 584 598 602 556 q 532 666 566 641 q 446 690 497 690 q 294 635 361 690 q 182 468 226 579 q 139 248 139 357 q 173 96 139 144 q 275 47 207 47 z "},"b":{"ha":781,"x_min":52,"x_max":714,"o":"m 339 -11 q 213 29 262 -11 q 147 142 163 69 l 143 142 l 106 0 l 52 0 l 273 1055 l 338 1055 q 228 546 249 629 l 232 546 q 367 702 295 652 q 524 751 439 751 q 714 497 714 751 q 663 239 714 359 q 526 54 611 119 q 339 -11 441 -11 m 509 690 q 387 649 447 690 q 278 534 326 607 q 205 374 229 460 q 182 235 182 288 q 225 97 182 147 q 338 47 269 47 q 490 104 422 47 q 601 270 557 160 q 644 490 644 380 q 611 642 644 593 q 509 690 578 690 z "},"c":{"ha":602,"x_min":69,"x_max":614,"o":"m 323 -14 q 137 61 205 -14 q 69 269 69 136 q 119 514 69 400 q 254 689 169 629 q 450 749 338 749 q 614 720 541 749 l 595 659 q 447 690 522 690 q 289 638 359 690 q 179 488 219 586 q 139 271 139 389 q 189 105 139 163 q 330 47 239 47 q 419 56 378 47 q 509 87 460 65 l 509 25 q 323 -14 430 -14 z "},"d":{"ha":768,"x_min":69,"x_max":800,"o":"m 444 749 q 633 600 600 749 l 636 600 q 733 1055 644 645 l 800 1055 l 576 0 l 521 0 l 551 186 l 547 186 q 260 -14 430 -14 q 69 240 69 -14 q 118 491 69 371 q 252 680 166 611 q 444 749 337 749 m 275 47 q 396 90 336 47 q 505 204 457 132 q 577 360 553 275 q 602 503 602 446 q 560 639 602 588 q 446 690 518 690 q 294 634 361 690 q 182 470 226 578 q 139 248 139 361 q 275 47 139 47 z "},"e":{"ha":629,"x_min":69,"x_max":606,"o":"m 318 -14 q 135 61 201 -14 q 69 268 69 135 q 117 503 69 391 q 250 682 165 616 q 436 749 334 749 q 559 707 513 749 q 606 595 606 666 q 495 408 606 472 q 165 343 384 343 l 143 343 q 139 277 139 313 q 189 106 139 165 q 334 47 239 47 q 521 97 423 47 l 521 33 q 318 -14 426 -14 m 428 690 q 263 612 339 690 q 153 403 186 534 l 186 403 q 536 586 536 403 q 507 661 536 631 q 428 690 477 690 z "},"f":{"ha":392,"x_min":-158,"x_max":597,"o":"m -89 -334 q -158 -321 -121 -334 l -158 -260 q -90 -271 -122 -271 q 1 -235 -31 -271 q 52 -109 32 -199 l 218 682 l 79 682 l 89 728 l 228 737 l 252 846 q 331 1011 275 960 q 485 1063 386 1063 q 597 1042 534 1063 l 581 987 q 481 1006 522 1006 q 377 969 416 1006 q 319 848 338 933 l 296 737 l 464 737 l 453 682 l 285 682 l 114 -125 q 43 -284 92 -234 q -89 -334 -5 -334 z "},"g":{"ha":705,"x_min":-60,"x_max":746,"o":"m 746 737 l 734 684 l 570 676 q 599 619 587 657 q 611 542 611 581 q 574 402 611 468 q 474 303 537 336 q 329 271 410 271 q 277 277 286 271 q 193 227 222 254 q 163 172 163 200 q 184 129 163 144 q 261 107 205 113 l 343 100 q 578 -79 578 79 q 534 -213 578 -155 q 407 -302 490 -271 q 210 -334 324 -334 q 12 -285 83 -334 q -60 -147 -60 -236 q 150 79 -60 13 q 97 163 97 108 q 227 300 97 246 q 152 371 178 324 q 125 478 125 418 q 161 616 125 553 q 261 715 197 680 q 401 751 326 751 q 501 737 448 751 l 746 737 m 9 -140 q 64 -242 9 -209 q 216 -275 119 -275 q 431 -225 354 -275 q 509 -86 509 -174 q 466 2 509 -28 q 318 41 424 33 l 210 52 q 56 -26 103 21 q 9 -140 9 -73 m 193 482 q 233 367 193 406 q 345 328 273 328 q 449 353 404 328 q 518 430 494 378 q 543 545 543 482 q 505 654 543 615 q 399 693 467 693 q 290 664 336 693 q 218 585 243 635 q 193 482 193 536 z "},"h":{"ha":775,"x_min":52,"x_max":701,"o":"m 518 0 l 619 469 q 633 575 633 532 q 604 660 633 629 q 513 690 574 690 q 370 645 437 690 q 257 517 303 600 q 187 323 212 435 l 118 0 l 52 0 l 277 1055 l 342 1055 l 283 777 q 239 587 254 641 l 243 587 q 369 706 296 664 q 525 749 443 749 q 655 705 609 749 q 701 581 701 661 q 685 457 701 533 l 585 0 l 518 0 z "},"i":{"ha":322,"x_min":52,"x_max":332,"o":"m 118 0 l 52 0 l 208 737 l 273 737 l 118 0 m 237 926 q 252 986 237 964 q 293 1008 267 1008 q 332 960 332 1008 q 317 899 332 921 q 278 876 302 876 q 248 889 258 876 q 237 926 237 903 z "},"j":{"ha":322,"x_min":-189,"x_max":332,"o":"m -113 -334 q -189 -321 -155 -334 l -189 -258 q -113 -273 -157 -273 q -25 -238 -57 -273 q 24 -118 6 -203 l 204 737 l 269 737 l 87 -125 q 15 -285 64 -237 q -113 -334 -33 -334 m 237 926 q 252 986 237 964 q 293 1008 267 1008 q 332 960 332 1008 q 317 899 332 921 q 278 876 302 876 q 248 889 258 876 q 237 926 237 903 z "},"k":{"ha":640,"x_min":52,"x_max":681,"o":"m 183 323 l 596 737 l 681 737 l 359 419 l 561 0 l 489 0 l 310 379 l 171 252 l 117 0 l 52 0 l 275 1055 l 340 1055 l 228 526 l 180 323 l 183 323 z "},"l":{"ha":322,"x_min":52,"x_max":342,"o":"m 115 0 l 52 0 l 278 1055 l 342 1055 l 115 0 z "},"m":{"ha":1187,"x_min":49,"x_max":1105,"o":"m 482 0 l 582 457 q 599 567 599 542 q 494 690 599 690 q 359 645 422 690 q 251 517 295 599 q 183 322 207 435 l 115 0 l 49 0 l 205 737 l 260 737 l 237 595 l 241 595 q 365 710 296 671 q 509 749 433 749 q 619 703 581 749 q 660 571 658 658 l 664 571 q 787 704 716 659 q 937 749 857 749 q 1061 707 1017 749 q 1105 587 1105 665 q 1104 549 1105 568 q 1090 468 1102 530 l 987 0 l 920 0 l 1021 461 q 1038 581 1038 543 q 1008 662 1038 633 q 928 690 979 690 q 740 597 821 690 q 625 351 658 504 l 551 0 l 482 0 z "},"n":{"ha":775,"x_min":52,"x_max":701,"o":"m 518 0 l 619 469 q 633 575 633 532 q 604 660 633 629 q 513 690 574 690 q 370 645 437 690 q 257 518 303 600 q 187 323 212 436 l 118 0 l 52 0 l 208 737 l 264 737 l 239 587 l 243 587 q 525 749 354 749 q 657 705 613 749 q 701 581 701 662 q 685 457 701 533 l 585 0 l 518 0 z "},"o":{"ha":762,"x_min":66,"x_max":696,"o":"m 440 751 q 629 678 562 751 q 696 475 696 604 q 647 225 696 341 q 515 47 599 109 q 321 -14 431 -14 q 131 61 196 -14 q 66 273 66 135 q 116 516 66 403 q 250 690 165 629 q 440 751 334 751 m 435 693 q 283 640 351 693 q 176 487 216 587 q 136 277 136 388 q 328 45 136 45 q 480 97 414 45 q 587 252 547 150 q 627 476 627 354 q 577 637 627 581 q 435 693 528 693 z "},"p":{"ha":779,"x_min":-22,"x_max":713,"o":"m 338 -11 q 149 138 182 -11 l 146 138 q 45 -334 137 89 l -22 -334 l 205 737 l 261 737 l 231 551 l 235 551 q 367 703 296 655 q 522 751 438 751 q 663 689 614 751 q 713 497 713 626 q 664 245 713 365 q 530 58 615 126 q 338 -11 445 -11 m 507 690 q 389 651 448 690 q 280 537 330 611 q 205 376 229 463 q 180 235 180 289 q 222 99 180 150 q 336 47 264 47 q 489 104 420 47 q 600 270 557 161 q 643 490 643 378 q 507 690 643 690 z "},"q":{"ha":785,"x_min":66,"x_max":729,"o":"m 441 749 q 566 709 515 749 q 633 596 616 670 l 637 596 l 675 737 l 729 737 l 507 -318 l 443 -318 l 509 1 l 553 192 l 549 192 q 414 36 486 86 q 257 -14 342 -14 q 66 240 66 -14 q 118 497 66 376 q 254 683 169 618 q 441 749 338 749 m 272 47 q 395 90 334 47 q 504 206 456 132 q 575 367 552 280 q 599 503 599 453 q 556 641 599 591 q 443 690 513 690 q 291 634 359 690 q 180 468 223 578 q 136 248 136 358 q 167 99 136 151 q 272 47 198 47 z "},"r":{"ha":510,"x_min":49,"x_max":567,"o":"m 484 750 q 567 741 530 750 l 553 677 q 476 688 521 688 q 355 644 412 688 q 251 514 297 601 q 183 326 205 427 l 115 0 l 49 0 l 205 737 l 260 737 l 240 599 l 244 599 q 328 691 294 663 q 400 734 361 719 q 484 750 438 750 z "},"s":{"ha":561,"x_min":17,"x_max":554,"o":"m 484 200 q 414 44 484 102 q 224 -14 344 -14 q 17 37 106 -14 l 17 110 q 121 62 67 79 q 221 45 174 45 q 364 84 315 45 q 414 195 414 123 q 403 245 414 223 q 369 287 393 267 q 279 345 346 307 q 144 443 179 399 q 109 551 109 488 q 175 693 109 638 q 351 749 242 749 q 459 737 402 749 q 554 705 515 725 l 530 646 q 351 689 438 689 q 225 653 273 689 q 178 559 178 617 q 189 500 178 522 q 230 453 201 477 q 311 401 260 429 q 421 331 389 359 q 468 273 453 304 q 484 200 484 241 z "},"t":{"ha":418,"x_min":77,"x_max":471,"o":"m 471 737 l 458 682 l 267 682 l 175 252 q 160 140 160 184 q 245 46 160 46 q 349 64 292 46 l 349 5 q 233 -14 280 -14 q 130 23 166 -14 q 93 131 93 60 q 113 271 93 180 l 200 682 l 77 682 l 86 728 l 211 739 l 277 911 l 314 911 l 277 737 l 471 737 z "},"u":{"ha":775,"x_min":74,"x_max":724,"o":"m 258 737 l 155 264 q 140 157 140 192 q 173 77 140 106 q 267 47 205 47 q 407 92 341 47 q 518 219 473 136 q 586 408 564 301 l 657 737 l 724 737 l 567 0 l 513 0 l 532 139 l 528 139 q 254 -11 414 -11 q 120 31 165 -11 q 74 154 74 73 q 89 269 74 195 l 191 737 l 258 737 z "},"v":{"ha":607,"x_min":71,"x_max":671,"o":"m 187 0 l 71 737 l 139 737 l 212 239 q 235 66 230 127 l 239 66 q 326 240 273 144 l 602 737 l 671 737 l 264 0 l 187 0 z "},"w":{"ha":945,"x_min":82,"x_max":986,"o":"m 568 0 l 528 465 q 518 646 518 617 l 514 646 q 416 449 491 583 l 175 0 l 96 0 l 82 737 l 144 737 l 153 180 l 151 74 l 155 74 q 257 275 197 165 l 510 737 l 562 737 l 606 275 q 615 74 615 176 l 619 74 l 635 115 l 704 275 l 921 737 l 986 737 l 642 0 l 568 0 z "},"x":{"ha":625,"x_min":-49,"x_max":647,"o":"m 300 328 l 33 0 l -49 0 l 271 379 l 104 737 l 172 737 l 313 424 l 566 737 l 647 737 l 343 375 l 518 0 l 452 0 l 300 328 z "},"y":{"ha":624,"x_min":-147,"x_max":684,"o":"m 83 737 l 151 737 l 207 366 q 244 61 241 127 l 252 61 q 378 310 281 132 l 614 737 l 684 737 l 200 -138 q 117 -258 151 -224 q 40 -313 83 -293 q -60 -334 -3 -334 q -147 -319 -106 -334 l -147 -257 q -54 -275 -99 -275 q 45 -242 0 -275 q 134 -130 91 -208 q 201 -5 176 -52 l 83 737 z "},"z":{"ha":602,"x_min":-20,"x_max":607,"o":"m 475 0 l -20 0 l -9 49 l 517 681 l 149 681 l 160 737 l 607 737 l 595 681 l 78 57 l 486 57 l 475 0 z "},"{":{"ha":481,"x_min":40,"x_max":542,"o":"m 288 -220 q 114 -85 114 -220 q 125 -7 114 -54 l 163 164 q 175 250 175 225 q 40 358 175 358 l 54 411 q 184 444 140 411 q 244 551 228 477 l 304 818 q 376 950 325 909 q 522 991 428 991 l 542 991 l 530 933 q 443 919 472 932 q 396 878 414 907 q 366 796 378 848 l 315 567 q 253 435 295 476 q 142 382 212 394 l 142 379 q 213 333 188 367 q 239 250 239 298 q 222 139 239 215 l 191 -14 q 182 -82 182 -53 q 207 -142 182 -123 q 301 -161 233 -161 l 301 -220 l 288 -220 z "},"|":{"ha":765,"x_min":396,"x_max":464,"o":"m 396 1059 l 464 1059 l 464 -346 l 396 -346 l 396 1059 z "},"}":{"ha":481,"x_min":-28,"x_max":467,"o":"m 225 991 q 354 957 314 991 q 393 857 393 922 q 382 779 393 829 l 345 608 q 332 522 332 544 q 365 442 332 470 q 467 414 399 414 l 453 361 q 323 328 368 361 q 262 221 279 295 l 203 -46 q 129 -180 181 -140 q -16 -220 77 -220 l -28 -220 l -28 -161 q 66 -147 37 -160 q 112 -106 94 -134 q 142 -24 130 -77 l 192 205 q 251 334 210 291 q 366 390 292 377 l 366 393 q 291 443 315 407 q 268 522 268 478 q 280 611 268 559 l 317 786 q 325 854 325 827 q 313 901 325 884 q 276 926 300 918 q 197 933 252 933 l 211 991 l 225 991 z "},"~":{"ha":765,"x_min":86,"x_max":729,"o":"m 237 505 q 164 485 204 505 q 86 424 124 464 l 86 488 q 244 562 159 562 q 322 553 286 562 q 428 514 359 544 q 576 475 513 475 q 649 494 613 475 q 729 559 686 514 l 729 494 q 571 418 654 418 q 387 467 492 418 q 311 496 345 486 q 237 505 277 505 z "}," ":{"ha":361,"x_min":0,"x_max":0,"o":""},"¡":{"ha":340,"x_min":3,"x_max":293,"o":"m 179 482 l 221 482 l 83 -254 l 3 -254 l 179 482 m 293 699 q 276 638 293 661 q 229 616 259 616 q 184 665 184 616 q 201 726 184 703 q 248 749 218 749 q 293 699 293 749 z "},"¢":{"ha":765,"x_min":170,"x_max":714,"o":"m 392 -14 l 329 -14 l 359 132 q 220 222 270 149 q 170 407 170 295 q 213 638 170 532 q 333 810 256 745 q 507 885 411 875 l 532 1006 l 593 1006 l 567 886 q 714 857 646 884 l 694 796 q 547 828 622 828 q 389 777 459 828 q 279 627 319 725 q 239 408 239 528 q 289 241 239 297 q 431 184 340 184 q 610 225 517 184 l 610 163 q 419 123 530 123 l 392 -14 z "},"£":{"ha":765,"x_min":-3,"x_max":808,"o":"m 596 1003 q 808 950 711 1003 l 782 893 l 745 911 q 589 945 672 945 q 439 894 498 945 q 359 745 380 844 l 310 514 l 587 514 l 575 458 l 298 458 l 260 277 q 132 64 226 124 l 647 64 l 633 0 l -3 0 l 8 57 q 120 122 71 64 q 193 282 170 179 l 232 458 l 97 458 l 109 514 l 243 514 l 294 751 q 399 941 322 878 q 596 1003 477 1003 z "},"¤":{"ha":765,"x_min":140,"x_max":707,"o":"m 178 490 q 228 643 178 570 l 140 730 l 183 774 l 269 686 q 425 739 340 739 q 576 686 505 739 l 665 774 l 707 732 l 619 644 q 672 490 672 572 q 619 336 672 399 l 707 250 l 665 208 l 576 294 q 425 243 506 243 q 271 297 340 243 l 183 210 l 142 252 l 228 338 q 178 490 178 404 m 237 490 q 292 357 237 412 q 425 302 346 302 q 560 357 505 302 q 615 490 615 412 q 590 585 615 541 q 521 656 566 629 q 425 682 476 682 q 293 627 348 682 q 237 490 237 571 z "},"¥":{"ha":765,"x_min":113,"x_max":844,"o":"m 396 437 l 765 991 l 844 991 l 465 433 l 646 433 l 635 382 l 421 382 l 395 253 l 610 253 l 597 196 l 383 196 l 343 0 l 272 0 l 315 196 l 113 196 l 125 253 l 328 253 l 355 382 l 151 382 l 163 433 l 338 433 l 192 991 l 260 991 l 396 437 z "},"¦":{"ha":765,"x_min":392,"x_max":460,"o":"m 392 1059 l 460 1059 l 460 546 l 392 546 l 392 1059 m 392 167 l 460 167 l 460 -346 l 392 -346 l 392 167 z "},"§":{"ha":675,"x_min":69,"x_max":682,"o":"m 143 528 q 190 651 143 596 q 325 739 237 706 q 255 797 281 760 q 228 879 228 834 q 259 970 228 929 q 349 1034 290 1011 q 486 1057 408 1057 q 682 1018 597 1057 l 661 964 q 482 1000 568 1000 q 345 969 398 1000 q 292 885 292 937 q 323 814 292 845 q 447 742 354 783 q 554 681 523 707 q 603 624 586 656 q 619 549 619 591 q 450 334 619 415 q 533 200 533 290 q 500 96 533 142 q 406 24 468 50 q 256 -1 344 -1 q 69 35 149 -1 l 69 102 q 155 70 101 83 q 258 57 208 57 q 413 93 359 57 q 467 195 467 128 q 438 267 467 237 q 325 332 409 296 q 181 420 220 376 q 143 528 143 464 m 379 704 q 252 638 298 684 q 205 533 205 592 q 222 468 205 494 q 277 418 239 441 q 404 363 315 395 q 514 440 474 396 q 554 546 554 484 q 515 631 554 595 q 379 704 476 668 z "},"¨":{"ha":770,"x_min":334,"x_max":656,"o":"m 567 926 q 581 979 567 960 q 619 999 595 999 q 656 956 656 999 q 642 903 656 923 q 604 884 627 884 q 567 926 567 884 m 334 926 q 348 979 334 960 q 386 999 361 999 q 422 956 422 999 q 408 903 422 923 q 371 884 394 884 q 334 926 334 884 z "},"©":{"ha":1156,"x_min":100,"x_max":1120,"o":"m 640 741 q 489 676 544 741 q 435 497 435 612 q 485 311 435 371 q 635 250 536 250 q 770 279 692 250 l 770 220 q 628 189 699 189 q 433 268 501 189 q 364 492 364 347 q 439 717 364 632 q 640 802 513 802 q 794 766 721 802 l 770 710 q 640 741 703 741 m 100 496 q 168 750 100 631 q 354 937 235 869 q 610 1006 473 1006 q 864 938 745 1006 q 1051 751 983 870 q 1120 496 1120 633 q 1054 245 1120 362 q 869 57 988 127 q 610 -14 751 -14 q 351 57 469 -14 q 166 244 232 127 q 100 496 100 361 m 163 496 q 223 272 163 375 q 386 109 283 170 q 610 49 489 49 q 830 107 728 49 q 995 269 932 165 q 1057 496 1057 373 q 997 720 1057 616 q 834 883 937 823 q 610 943 731 943 q 382 881 486 943 q 221 716 279 819 q 163 496 163 614 z "},"ª":{"ha":436,"x_min":115,"x_max":514,"o":"m 330 1007 q 396 987 368 1007 q 441 929 425 968 l 446 929 l 469 999 l 514 999 l 421 558 l 372 558 l 387 643 l 385 643 q 233 550 319 550 q 147 588 179 550 q 115 700 115 627 q 177 918 115 828 q 330 1007 238 1007 m 250 600 q 341 651 295 600 q 407 777 387 703 q 418 860 418 811 q 393 928 418 899 q 330 957 369 957 q 221 881 267 957 q 175 697 175 806 q 250 600 175 600 z "},"«":{"ha":583,"x_min":41,"x_max":572,"o":"m 289 632 l 328 599 l 113 371 l 257 110 l 214 83 l 41 367 l 43 385 l 289 632 m 533 632 l 572 599 l 359 371 l 501 110 l 458 83 l 286 367 l 288 385 l 533 632 z "},"¬":{"ha":765,"x_min":85,"x_max":697,"o":"m 697 524 l 697 184 l 629 184 l 629 456 l 85 456 l 85 524 l 697 524 z "},"­":{"ha":427,"x_min":52,"x_max":374,"o":"m 52 340 l 64 401 l 374 401 l 363 340 l 52 340 z "},"®":{"ha":1156,"x_min":102,"x_max":1121,"o":"m 514 496 l 590 496 q 688 527 653 496 q 722 619 722 559 q 589 736 722 736 l 514 736 l 514 496 m 793 623 q 766 527 793 568 q 692 464 739 486 l 852 197 l 771 197 l 628 441 l 514 441 l 514 197 l 446 197 l 446 794 l 589 794 q 739 752 686 794 q 793 623 793 710 m 102 496 q 172 755 102 636 q 359 940 242 873 q 611 1006 477 1006 q 865 938 747 1006 q 1053 751 984 870 q 1121 496 1121 633 q 1055 245 1121 362 q 871 57 989 127 q 611 -14 752 -14 q 356 55 473 -14 q 170 240 239 123 q 102 496 102 357 m 164 496 q 224 272 164 375 q 387 109 284 170 q 611 49 490 49 q 831 107 729 49 q 996 269 934 165 q 1059 496 1059 373 q 998 720 1059 616 q 835 883 938 823 q 611 943 732 943 q 384 881 488 943 q 222 716 280 819 q 164 496 164 614 z "},"¯":{"ha":444,"x_min":236,"x_max":715,"o":"m 679 1055 l 236 1055 l 272 1121 l 715 1121 l 679 1055 z "},"°":{"ha":595,"x_min":164,"x_max":561,"o":"m 164 807 q 222 947 164 888 q 363 1006 279 1006 q 503 947 446 1006 q 561 807 561 888 q 503 666 561 724 q 363 608 445 608 q 222 666 280 608 q 164 807 164 724 m 214 807 q 257 703 214 747 q 363 660 301 660 q 468 703 425 660 q 511 807 511 747 q 468 912 511 868 q 363 957 425 957 q 258 912 302 957 q 214 807 214 868 z "},"±":{"ha":765,"x_min":86,"x_max":699,"o":"m 358 427 l 86 427 l 86 493 l 358 493 l 358 768 l 427 768 l 427 493 l 699 493 l 699 427 l 427 427 l 427 155 l 358 155 l 358 427 m 86 0 l 86 68 l 699 68 l 699 0 l 86 0 z "},"²":{"ha":436,"x_min":56,"x_max":484,"o":"m 410 397 l 56 397 l 66 452 l 268 627 q 392 756 361 707 q 422 860 422 805 q 396 926 422 900 q 325 951 370 951 q 193 900 260 951 l 165 942 q 328 1003 239 1003 q 412 985 377 1003 q 466 936 448 966 q 484 868 484 905 q 444 733 484 796 q 319 602 404 671 l 139 450 l 421 450 l 410 397 z "},"³":{"ha":436,"x_min":74,"x_max":478,"o":"m 478 865 q 445 765 478 808 q 340 705 412 722 l 340 703 q 412 656 385 692 q 439 572 439 621 q 412 477 439 520 q 338 410 386 433 q 229 386 291 386 q 145 396 189 386 q 74 424 102 407 l 74 485 q 147 452 105 466 q 232 439 189 439 q 340 474 299 439 q 380 571 380 510 q 248 681 380 681 l 191 681 l 201 734 l 260 734 q 374 768 329 734 q 419 856 419 802 q 394 925 419 902 q 322 949 368 949 q 187 903 254 949 l 160 946 q 330 1004 234 1004 q 438 966 398 1004 q 478 865 478 928 z "},"´":{"ha":770,"x_min":393,"x_max":676,"o":"m 393 856 q 495 952 438 890 q 583 1064 553 1014 l 676 1064 l 676 1048 q 569 941 642 1004 q 439 842 497 878 l 393 842 l 393 856 z "},"µ":{"ha":794,"x_min":-20,"x_max":743,"o":"m 161 164 q 194 78 161 109 q 286 47 227 47 q 427 91 361 47 q 537 215 492 135 q 606 408 581 295 l 676 737 l 743 737 l 585 0 l 532 0 l 551 139 l 547 139 q 273 -11 436 -11 q 179 11 216 -11 q 127 72 142 33 l 123 72 q 89 -121 111 -18 l 46 -334 l -20 -334 l 210 737 l 278 737 l 175 264 q 161 164 161 199 z "},"¶":{"ha":909,"x_min":146,"x_max":819,"o":"m 819 -176 l 751 -176 l 751 991 l 597 991 l 597 -176 l 529 -176 l 529 379 q 431 367 486 367 q 215 452 284 367 q 146 707 146 536 q 220 969 146 883 q 452 1055 294 1055 l 819 1055 l 819 -176 z "},"·":{"ha":329,"x_min":140,"x_max":249,"o":"m 140 473 q 157 533 140 511 q 204 555 174 555 q 249 507 249 555 q 232 447 249 471 q 186 424 215 424 q 140 473 140 424 z "},"¸":{"ha":285,"x_min":-118,"x_max":134,"o":"m 134 -196 q 82 -297 134 -260 q -65 -334 31 -334 q -118 -329 -96 -334 l -118 -275 q -69 -279 -98 -279 q 65 -201 65 -279 q -37 -129 65 -136 l 37 0 l 92 0 l 39 -93 q 134 -196 134 -113 z "},"¹":{"ha":436,"x_min":172,"x_max":401,"o":"m 347 991 l 401 991 l 275 397 l 218 397 l 298 783 q 306 818 302 798 q 316 858 311 838 q 326 898 321 879 q 336 932 332 918 q 296 897 313 911 q 199 833 278 883 l 172 873 l 347 991 z "},"º":{"ha":444,"x_min":129,"x_max":504,"o":"m 351 1003 q 463 960 422 1003 q 504 838 504 916 q 477 692 504 760 q 399 586 450 625 q 281 547 349 547 q 166 593 203 547 q 129 718 129 639 q 157 860 129 794 q 236 965 185 926 q 351 1003 286 1003 m 345 953 q 260 921 297 953 q 203 837 224 890 q 183 724 183 784 q 289 597 183 597 q 374 629 338 597 q 429 715 410 661 q 449 835 449 770 q 422 922 449 891 q 345 953 396 953 z "},"»":{"ha":583,"x_min":22,"x_max":553,"o":"m 306 83 l 267 117 l 479 345 l 338 606 l 380 632 l 553 349 l 551 330 l 306 83 m 61 83 l 22 117 l 235 345 l 93 606 l 136 632 l 309 349 l 307 330 l 61 83 z "},"¼":{"ha":1004,"x_min":87,"x_max":906,"o":"m 895 156 l 806 156 l 772 1 l 717 1 l 750 156 l 485 156 l 499 208 l 842 599 l 901 599 l 816 205 l 906 205 l 895 156 m 760 205 q 814 453 802 404 q 833 524 826 501 q 792 471 827 513 q 563 205 758 428 l 760 205 m 897 991 l 160 0 l 87 0 l 824 991 l 897 991 m 345 991 l 399 991 l 273 397 l 216 397 l 296 783 q 304 818 300 798 q 314 858 309 838 q 324 898 319 879 q 334 932 330 918 q 294 897 311 911 q 197 833 276 883 l 170 873 l 345 991 z "},"½":{"ha":989,"x_min":36,"x_max":941,"o":"m 867 1 l 513 1 l 524 55 l 725 230 q 849 359 818 310 q 880 463 880 408 q 853 529 880 503 q 782 555 827 555 q 650 503 718 555 l 623 545 q 785 606 696 606 q 869 588 834 606 q 923 539 905 570 q 941 471 941 509 q 901 337 941 399 q 777 205 861 274 l 596 54 l 878 54 l 867 1 m 292 991 l 347 991 l 220 397 l 163 397 l 243 783 q 251 818 247 798 q 261 858 256 838 q 271 898 266 879 q 281 932 277 918 q 241 897 258 911 q 144 833 223 883 l 117 873 l 292 991 m 846 991 l 109 0 l 36 0 l 772 991 l 846 991 z "},"¾":{"ha":989,"x_min":48,"x_max":954,"o":"m 936 156 l 847 156 l 814 1 l 758 1 l 791 156 l 526 156 l 541 208 l 884 599 l 942 599 l 857 205 l 947 205 l 936 156 m 802 205 q 855 453 843 404 q 875 524 867 501 q 833 471 868 513 q 604 205 799 428 l 802 205 m 452 865 q 419 765 452 808 q 315 705 387 722 l 315 703 q 386 656 359 692 q 413 572 413 621 q 387 477 413 520 q 313 410 360 433 q 203 386 265 386 q 120 396 163 386 q 48 424 76 407 l 48 485 q 121 452 79 466 q 206 439 163 439 q 314 474 273 439 q 355 571 355 510 q 222 681 355 681 l 165 681 l 176 734 l 234 734 q 348 768 303 734 q 393 856 393 802 q 368 925 393 902 q 296 949 342 949 q 161 903 229 949 l 134 946 q 304 1004 208 1004 q 412 966 372 1004 q 452 865 452 928 m 954 991 l 217 0 l 144 0 l 881 991 l 954 991 z "},"¿":{"ha":542,"x_min":0,"x_max":484,"o":"m 435 486 l 431 467 q 377 331 412 380 q 268 227 342 281 q 149 128 188 170 q 91 41 111 86 q 71 -54 71 -3 q 115 -169 71 -126 q 240 -211 159 -211 q 449 -143 336 -211 l 475 -201 q 359 -254 417 -235 q 232 -273 301 -273 q 62 -216 124 -273 q 0 -61 0 -159 q 47 102 0 29 q 201 252 95 175 q 292 326 259 293 q 341 390 325 358 q 372 486 358 422 l 435 486 m 484 692 q 466 632 484 654 q 419 610 449 610 q 375 659 375 610 q 392 719 375 696 q 437 742 409 742 q 484 692 484 742 z "},"À":{"ha":718,"x_min":-75,"x_max":664,"o":"m 546 353 l 199 353 l 4 0 l -75 0 l 482 996 l 528 996 l 664 0 l 593 0 l 546 353 m 538 415 l 511 612 q 485 885 490 777 q 441 797 465 842 q 233 415 418 751 l 538 415 m 553 1071 l 508 1071 q 431 1169 474 1106 q 363 1279 387 1232 l 363 1293 l 441 1293 q 553 1088 473 1206 l 553 1071 z "},"Á":{"ha":718,"x_min":-75,"x_max":736,"o":"m 546 353 l 199 353 l 4 0 l -75 0 l 482 996 l 528 996 l 664 0 l 593 0 l 546 353 m 538 415 l 511 612 q 485 885 490 777 q 441 797 465 842 q 233 415 418 751 l 538 415 m 453 1085 q 555 1181 498 1120 q 643 1293 612 1243 l 736 1293 l 736 1278 q 629 1170 701 1233 q 498 1071 557 1107 l 453 1071 l 453 1085 z "},"Â":{"ha":718,"x_min":-75,"x_max":683,"o":"m 546 353 l 199 353 l 4 0 l -75 0 l 482 996 l 528 996 l 664 0 l 593 0 l 546 353 m 538 415 l 511 612 q 485 885 490 777 q 441 797 465 842 q 233 415 418 751 l 538 415 m 683 1071 l 650 1071 q 541 1211 602 1112 q 456 1134 503 1173 q 371 1071 408 1095 l 334 1071 l 334 1090 q 441 1191 380 1128 q 528 1293 502 1254 l 571 1293 q 620 1190 587 1250 q 683 1090 654 1130 l 683 1071 z "},"Ã":{"ha":718,"x_min":-75,"x_max":753,"o":"m 546 353 l 199 353 l 4 0 l -75 0 l 482 996 l 528 996 l 664 0 l 593 0 l 546 353 m 538 415 l 511 612 q 485 885 490 777 q 441 797 465 842 q 233 415 418 751 l 538 415 m 618 1076 q 565 1089 591 1076 q 514 1120 540 1102 q 470 1147 491 1135 q 424 1160 450 1160 q 374 1140 393 1160 q 339 1072 354 1121 l 289 1072 q 337 1185 302 1145 q 428 1225 372 1225 q 478 1215 456 1225 q 557 1166 500 1206 q 621 1142 593 1142 q 670 1163 650 1142 q 701 1231 689 1183 l 753 1231 q 702 1114 735 1151 q 618 1076 669 1076 z "},"Ä":{"ha":718,"x_min":-75,"x_max":685,"o":"m 546 353 l 199 353 l 4 0 l -75 0 l 482 996 l 528 996 l 664 0 l 593 0 l 546 353 m 538 415 l 511 612 q 485 885 490 777 q 441 797 465 842 q 233 415 418 751 l 538 415 m 596 1156 q 610 1208 596 1189 q 648 1228 624 1228 q 685 1185 685 1228 q 671 1133 685 1152 q 633 1113 656 1113 q 596 1156 596 1113 m 363 1156 q 377 1208 363 1189 q 415 1228 391 1228 q 452 1185 452 1228 q 437 1133 452 1152 q 400 1113 423 1113 q 363 1156 363 1113 z "},"Å":{"ha":718,"x_min":-75,"x_max":664,"o":"m 546 353 l 199 353 l 4 0 l -75 0 l 482 996 l 528 996 l 664 0 l 593 0 l 546 353 m 538 415 l 511 612 q 485 885 490 777 q 441 797 465 842 q 233 415 418 751 l 538 415 m 641 1085 q 602 984 641 1023 q 503 946 563 946 q 403 981 440 946 q 366 1080 366 1017 q 406 1177 366 1139 q 507 1215 446 1215 q 604 1181 567 1215 q 641 1085 641 1147 m 588 1084 q 565 1145 588 1122 q 506 1167 543 1167 q 443 1143 465 1167 q 420 1080 420 1118 q 442 1019 420 1041 q 503 996 465 996 q 565 1021 541 996 q 588 1084 588 1045 z "},"Æ":{"ha":1112,"x_min":-79,"x_max":1161,"o":"m 951 0 l 458 0 l 533 354 l 232 354 l 9 0 l -79 0 l 562 991 l 1161 991 l 1147 928 l 724 928 l 644 553 l 1044 553 l 1031 489 l 632 489 l 541 64 l 965 64 l 951 0 m 277 425 l 549 425 l 654 928 l 595 928 l 277 425 z "},"Ç":{"ha":793,"x_min":115,"x_max":860,"o":"m 652 942 q 413 871 518 942 q 247 665 309 800 q 186 366 186 529 q 261 131 186 213 q 476 49 336 49 q 682 83 571 49 l 682 20 q 468 -14 576 -14 q 206 85 297 -14 q 115 363 115 183 q 186 694 115 543 q 379 925 257 844 q 652 1006 501 1006 q 860 960 772 1006 l 829 899 q 745 930 792 919 q 652 942 698 942 m 510 -196 q 459 -297 510 -260 q 311 -334 408 -334 q 258 -329 280 -334 l 258 -275 q 307 -279 279 -279 q 441 -201 441 -279 q 339 -129 441 -136 l 414 0 l 468 0 l 415 -93 q 510 -196 510 -113 z "},"È":{"ha":724,"x_min":69,"x_max":772,"o":"m 562 0 l 69 0 l 279 991 l 772 991 l 758 928 l 335 928 l 256 553 l 656 553 l 642 489 l 243 489 l 151 64 l 576 64 l 562 0 m 604 1071 l 559 1071 q 482 1169 526 1106 q 415 1279 439 1232 l 415 1293 l 493 1293 q 604 1088 524 1206 l 604 1071 z "},"É":{"ha":724,"x_min":69,"x_max":772,"o":"m 562 0 l 69 0 l 279 991 l 772 991 l 758 928 l 335 928 l 256 553 l 656 553 l 642 489 l 243 489 l 151 64 l 576 64 l 562 0 m 444 1085 q 546 1181 488 1120 q 633 1293 603 1243 l 726 1293 l 726 1278 q 620 1170 692 1233 q 489 1071 547 1107 l 444 1071 l 444 1085 z "},"Ê":{"ha":724,"x_min":69,"x_max":772,"o":"m 562 0 l 69 0 l 279 991 l 772 991 l 758 928 l 335 928 l 256 553 l 656 553 l 642 489 l 243 489 l 151 64 l 576 64 l 562 0 m 703 1071 l 669 1071 q 560 1211 622 1112 q 475 1134 523 1173 q 391 1071 428 1095 l 354 1071 l 354 1090 q 461 1191 400 1128 q 547 1293 522 1254 l 591 1293 q 640 1190 606 1250 q 703 1090 673 1130 l 703 1071 z "},"Ë":{"ha":724,"x_min":69,"x_max":772,"o":"m 562 0 l 69 0 l 279 991 l 772 991 l 758 928 l 335 928 l 256 553 l 656 553 l 642 489 l 243 489 l 151 64 l 576 64 l 562 0 m 612 1156 q 626 1208 612 1189 q 664 1228 640 1228 q 701 1185 701 1228 q 686 1133 701 1152 q 649 1113 672 1113 q 612 1156 612 1113 m 378 1156 q 392 1208 378 1189 q 431 1228 406 1228 q 467 1185 467 1228 q 453 1133 467 1152 q 416 1113 439 1113 q 378 1156 378 1113 z "},"Ð":{"ha":917,"x_min":61,"x_max":873,"o":"m 873 596 q 799 283 873 425 q 595 71 725 142 q 293 0 466 0 l 69 0 l 167 458 l 61 458 l 75 524 l 180 524 l 279 991 l 486 991 q 775 891 677 991 q 873 596 873 791 m 292 61 q 559 125 445 61 q 736 312 673 189 q 799 591 799 435 q 476 929 799 929 l 336 929 l 249 524 l 505 524 l 492 458 l 235 458 l 150 61 l 292 61 z "},"Ñ":{"ha":930,"x_min":69,"x_max":935,"o":"m 725 0 l 667 0 l 317 871 l 311 871 q 279 686 296 770 q 134 0 262 602 l 69 0 l 279 991 l 334 991 l 688 114 l 693 114 q 743 396 709 233 l 871 991 l 935 991 l 725 0 m 720 1076 q 668 1089 693 1076 q 616 1120 642 1102 q 573 1147 593 1135 q 526 1160 552 1160 q 476 1140 496 1160 q 441 1072 456 1121 l 391 1072 q 439 1185 404 1145 q 530 1225 475 1225 q 580 1215 558 1225 q 660 1166 602 1206 q 724 1142 695 1142 q 772 1163 753 1142 q 804 1231 791 1183 l 855 1231 q 805 1114 838 1151 q 720 1076 772 1076 z "},"Ò":{"ha":993,"x_min":117,"x_max":951,"o":"m 951 618 q 888 291 951 445 q 717 62 824 138 q 469 -14 610 -14 q 208 87 300 -14 q 117 379 117 189 q 180 703 117 557 q 353 927 243 849 q 606 1006 463 1006 q 862 905 773 1006 q 951 618 951 804 m 596 942 q 387 873 478 942 q 241 671 296 805 q 187 389 187 538 q 261 136 187 222 q 478 49 336 49 q 682 116 593 49 q 824 319 770 182 q 878 611 878 456 q 807 858 878 774 q 596 942 736 942 m 671 1071 l 626 1071 q 549 1169 592 1106 q 481 1279 505 1232 l 481 1293 l 559 1293 q 671 1088 591 1206 l 671 1071 z "},"Ó":{"ha":993,"x_min":117,"x_max":951,"o":"m 951 618 q 888 291 951 445 q 717 62 824 138 q 469 -14 610 -14 q 208 87 300 -14 q 117 379 117 189 q 180 703 117 557 q 353 927 243 849 q 606 1006 463 1006 q 862 905 773 1006 q 951 618 951 804 m 596 942 q 387 873 478 942 q 241 671 296 805 q 187 389 187 538 q 261 136 187 222 q 478 49 336 49 q 682 116 593 49 q 824 319 770 182 q 878 611 878 456 q 807 858 878 774 q 596 942 736 942 m 572 1085 q 674 1181 617 1120 q 762 1293 732 1243 l 855 1293 l 855 1278 q 748 1170 821 1233 q 618 1071 676 1107 l 572 1071 l 572 1085 z "},"Ô":{"ha":993,"x_min":117,"x_max":951,"o":"m 951 618 q 888 291 951 445 q 717 62 824 138 q 469 -14 610 -14 q 208 87 300 -14 q 117 379 117 189 q 180 703 117 557 q 353 927 243 849 q 606 1006 463 1006 q 862 905 773 1006 q 951 618 951 804 m 596 942 q 387 873 478 942 q 241 671 296 805 q 187 389 187 538 q 261 136 187 222 q 478 49 336 49 q 682 116 593 49 q 824 319 770 182 q 878 611 878 456 q 807 858 878 774 q 596 942 736 942 m 794 1071 l 761 1071 q 652 1211 713 1112 q 567 1134 614 1173 q 482 1071 519 1095 l 446 1071 l 446 1090 q 552 1191 492 1128 q 639 1293 613 1254 l 682 1293 q 731 1190 698 1250 q 794 1090 765 1130 l 794 1071 z "},"Õ":{"ha":993,"x_min":117,"x_max":951,"o":"m 951 618 q 888 291 951 445 q 717 62 824 138 q 469 -14 610 -14 q 208 87 300 -14 q 117 379 117 189 q 180 703 117 557 q 353 927 243 849 q 606 1006 463 1006 q 862 905 773 1006 q 951 618 951 804 m 596 942 q 387 873 478 942 q 241 671 296 805 q 187 389 187 538 q 261 136 187 222 q 478 49 336 49 q 682 116 593 49 q 824 319 770 182 q 878 611 878 456 q 807 858 878 774 q 596 942 736 942 m 730 1076 q 678 1089 703 1076 q 627 1120 652 1102 q 583 1147 604 1135 q 536 1160 562 1160 q 486 1140 506 1160 q 452 1072 467 1121 l 401 1072 q 450 1185 414 1145 q 541 1225 485 1225 q 590 1215 568 1225 q 670 1166 612 1206 q 734 1142 705 1142 q 782 1163 763 1142 q 814 1231 802 1183 l 865 1231 q 815 1114 848 1151 q 730 1076 782 1076 z "},"Ö":{"ha":993,"x_min":117,"x_max":951,"o":"m 951 618 q 888 291 951 445 q 717 62 824 138 q 469 -14 610 -14 q 208 87 300 -14 q 117 379 117 189 q 180 703 117 557 q 353 927 243 849 q 606 1006 463 1006 q 862 905 773 1006 q 951 618 951 804 m 596 942 q 387 873 478 942 q 241 671 296 805 q 187 389 187 538 q 261 136 187 222 q 478 49 336 49 q 682 116 593 49 q 824 319 770 182 q 878 611 878 456 q 807 858 878 774 q 596 942 736 942 m 699 1156 q 713 1208 699 1189 q 751 1228 727 1228 q 788 1185 788 1228 q 774 1133 788 1152 q 736 1113 760 1113 q 699 1156 699 1113 m 466 1156 q 480 1208 466 1189 q 518 1228 494 1228 q 555 1185 555 1228 q 541 1133 555 1152 q 503 1113 526 1113 q 466 1156 466 1113 z "},"×":{"ha":765,"x_min":150,"x_max":693,"o":"m 374 490 l 150 715 l 197 762 l 421 539 l 647 762 l 693 717 l 468 490 l 693 265 l 647 220 l 421 443 l 197 221 l 151 267 l 374 490 z "},"Ø":{"ha":993,"x_min":94,"x_max":982,"o":"m 951 618 q 916 370 951 491 q 818 163 881 249 q 667 32 755 78 q 469 -14 578 -14 q 233 62 323 -14 l 139 -53 l 94 -9 l 193 107 q 117 379 117 208 q 180 704 117 557 q 354 928 244 851 q 606 1006 465 1006 q 844 924 754 1006 l 935 1038 l 982 1002 l 884 878 q 933 768 914 843 q 951 618 951 694 m 596 942 q 431 902 505 942 q 303 786 356 861 q 218 605 250 711 q 187 389 187 498 q 202 259 187 317 q 240 165 216 201 l 800 865 q 596 942 728 942 m 878 611 q 866 728 878 669 q 836 815 854 787 l 279 117 q 478 49 352 49 q 682 117 593 49 q 824 318 771 184 q 878 611 878 451 z "},"Ù":{"ha":929,"x_min":119,"x_max":946,"o":"m 946 991 l 806 329 q 672 66 766 146 q 418 -14 578 -14 q 119 258 119 -14 q 138 395 119 315 l 264 991 l 334 991 l 203 382 q 189 257 189 321 q 421 47 189 47 q 630 113 553 47 q 737 329 706 178 l 878 991 l 946 991 m 642 1071 l 597 1071 q 519 1169 563 1106 q 452 1279 476 1232 l 452 1293 l 530 1293 q 642 1088 562 1206 l 642 1071 z "},"Ú":{"ha":929,"x_min":119,"x_max":946,"o":"m 946 991 l 806 329 q 672 66 766 146 q 418 -14 578 -14 q 119 258 119 -14 q 138 395 119 315 l 264 991 l 334 991 l 203 382 q 189 257 189 321 q 421 47 189 47 q 630 113 553 47 q 737 329 706 178 l 878 991 l 946 991 m 568 1085 q 670 1181 613 1120 q 758 1293 728 1243 l 851 1293 l 851 1278 q 744 1170 817 1233 q 614 1071 672 1107 l 568 1071 l 568 1085 z "},"Û":{"ha":929,"x_min":119,"x_max":946,"o":"m 946 991 l 806 329 q 672 66 766 146 q 418 -14 578 -14 q 119 258 119 -14 q 138 395 119 315 l 264 991 l 334 991 l 203 382 q 189 257 189 321 q 421 47 189 47 q 630 113 553 47 q 737 329 706 178 l 878 991 l 946 991 m 779 1071 l 745 1071 q 636 1211 698 1112 q 551 1134 599 1173 q 467 1071 504 1095 l 430 1071 l 430 1090 q 537 1191 476 1128 q 623 1293 597 1254 l 667 1293 q 716 1190 682 1250 q 779 1090 749 1130 l 779 1071 z "},"Ü":{"ha":929,"x_min":119,"x_max":946,"o":"m 946 991 l 806 329 q 672 66 766 146 q 418 -14 578 -14 q 119 258 119 -14 q 138 395 119 315 l 264 991 l 334 991 l 203 382 q 189 257 189 321 q 421 47 189 47 q 630 113 553 47 q 737 329 706 178 l 878 991 l 946 991 m 693 1156 q 707 1208 693 1189 q 745 1228 721 1228 q 782 1185 782 1228 q 768 1133 782 1152 q 730 1113 753 1113 q 693 1156 693 1113 m 460 1156 q 474 1208 460 1189 q 512 1228 488 1228 q 549 1185 549 1228 q 534 1133 549 1152 q 497 1113 520 1113 q 460 1156 460 1113 z "},"Ý":{"ha":654,"x_min":131,"x_max":783,"o":"m 335 437 l 704 991 l 783 991 l 355 359 l 282 0 l 211 0 l 292 370 l 131 991 l 199 991 l 335 437 m 382 1085 q 484 1181 427 1120 q 572 1293 541 1243 l 665 1293 l 665 1278 q 558 1170 630 1233 q 427 1071 486 1107 l 382 1071 l 382 1085 z "},"Þ":{"ha":777,"x_min":69,"x_max":737,"o":"m 737 567 q 633 314 737 399 q 323 228 530 228 l 187 228 l 139 0 l 69 0 l 279 991 l 349 991 l 310 811 l 454 811 q 664 748 590 811 q 737 567 737 686 m 199 290 l 328 290 q 583 357 501 290 q 664 562 664 424 q 440 749 664 749 l 297 749 l 199 290 z "},"ß":{"ha":742,"x_min":-191,"x_max":696,"o":"m -110 -334 q -191 -318 -159 -334 l -191 -257 q -113 -273 -155 -273 q -29 -239 -59 -273 q 16 -135 1 -205 l 222 821 q 497 1063 277 1063 q 643 1021 590 1063 q 696 903 696 979 q 666 807 696 852 q 553 707 635 763 q 457 622 480 655 q 433 550 433 589 q 456 490 433 515 q 519 439 479 465 q 613 348 585 396 q 642 236 642 300 q 569 54 642 121 q 375 -14 497 -14 q 216 31 278 -14 l 216 104 q 293 64 247 80 q 380 49 338 49 q 522 97 470 49 q 574 229 574 145 q 552 317 574 280 q 478 390 531 353 q 397 465 422 429 q 372 547 372 500 q 387 617 372 586 q 428 677 401 648 q 521 754 454 706 q 610 833 589 802 q 631 901 631 864 q 593 976 631 949 q 492 1003 556 1003 q 353 951 404 1003 q 279 796 301 900 l 82 -138 q 12 -287 60 -241 q -110 -334 -36 -334 z "},"à":{"ha":768,"x_min":69,"x_max":732,"o":"m 444 749 q 633 600 602 749 l 637 600 l 677 737 l 732 737 l 576 0 l 521 0 l 551 186 l 547 186 q 420 38 490 90 q 260 -14 351 -14 q 69 240 69 -14 q 120 495 69 374 q 256 683 171 616 q 444 749 341 749 m 275 47 q 396 90 336 47 q 504 202 456 132 q 576 358 551 273 q 602 503 602 444 q 584 598 602 556 q 532 666 566 641 q 446 690 497 690 q 294 635 361 690 q 182 468 226 579 q 139 248 139 357 q 173 96 139 144 q 275 47 207 47 m 549 842 l 504 842 q 427 940 470 877 q 359 1050 383 1002 l 359 1064 l 437 1064 q 549 859 469 977 l 549 842 z "},"á":{"ha":768,"x_min":69,"x_max":732,"o":"m 444 749 q 633 600 602 749 l 637 600 l 677 737 l 732 737 l 576 0 l 521 0 l 551 186 l 547 186 q 420 38 490 90 q 260 -14 351 -14 q 69 240 69 -14 q 120 495 69 374 q 256 683 171 616 q 444 749 341 749 m 275 47 q 396 90 336 47 q 504 202 456 132 q 576 358 551 273 q 602 503 602 444 q 584 598 602 556 q 532 666 566 641 q 446 690 497 690 q 294 635 361 690 q 182 468 226 579 q 139 248 139 357 q 173 96 139 144 q 275 47 207 47 m 397 856 q 499 952 442 890 q 587 1064 557 1014 l 680 1064 l 680 1048 q 573 941 646 1004 q 443 842 501 878 l 397 842 l 397 856 z "},"â":{"ha":768,"x_min":69,"x_max":732,"o":"m 444 749 q 633 600 602 749 l 637 600 l 677 737 l 732 737 l 576 0 l 521 0 l 551 186 l 547 186 q 420 38 490 90 q 260 -14 351 -14 q 69 240 69 -14 q 120 495 69 374 q 256 683 171 616 q 444 749 341 749 m 275 47 q 396 90 336 47 q 504 202 456 132 q 576 358 551 273 q 602 503 602 444 q 584 598 602 556 q 532 666 566 641 q 446 690 497 690 q 294 635 361 690 q 182 468 226 579 q 139 248 139 357 q 173 96 139 144 q 275 47 207 47 m 648 843 l 614 843 q 505 983 567 884 q 420 906 468 945 q 336 843 373 867 l 299 843 l 299 863 q 406 963 345 901 q 492 1065 467 1026 l 536 1065 q 585 962 551 1022 q 648 863 618 902 l 648 843 z "},"ã":{"ha":768,"x_min":69,"x_max":732,"o":"m 444 749 q 633 600 602 749 l 637 600 l 677 737 l 732 737 l 576 0 l 521 0 l 551 186 l 547 186 q 420 38 490 90 q 260 -14 351 -14 q 69 240 69 -14 q 120 495 69 374 q 256 683 171 616 q 444 749 341 749 m 275 47 q 396 90 336 47 q 504 202 456 132 q 576 358 551 273 q 602 503 602 444 q 584 598 602 556 q 532 666 566 641 q 446 690 497 690 q 294 635 361 690 q 182 468 226 579 q 139 248 139 357 q 173 96 139 144 q 275 47 207 47 m 582 847 q 529 860 555 847 q 478 890 504 873 q 434 918 455 906 q 388 930 414 930 q 338 911 357 930 q 303 843 318 892 l 253 843 q 301 956 266 916 q 392 996 336 996 q 442 986 420 996 q 522 937 464 977 q 585 913 557 913 q 634 933 614 913 q 665 1002 653 954 l 717 1002 q 666 884 699 922 q 582 847 633 847 z "},"ä":{"ha":768,"x_min":69,"x_max":732,"o":"m 444 749 q 633 600 602 749 l 637 600 l 677 737 l 732 737 l 576 0 l 521 0 l 551 186 l 547 186 q 420 38 490 90 q 260 -14 351 -14 q 69 240 69 -14 q 120 495 69 374 q 256 683 171 616 q 444 749 341 749 m 275 47 q 396 90 336 47 q 504 202 456 132 q 576 358 551 273 q 602 503 602 444 q 584 598 602 556 q 532 666 566 641 q 446 690 497 690 q 294 635 361 690 q 182 468 226 579 q 139 248 139 357 q 173 96 139 144 q 275 47 207 47 m 566 926 q 580 979 566 960 q 618 999 594 999 q 655 956 655 999 q 641 903 655 923 q 604 884 627 884 q 566 926 566 884 m 333 926 q 347 979 333 960 q 385 999 361 999 q 422 956 422 999 q 408 903 422 923 q 370 884 393 884 q 333 926 333 884 z "},"å":{"ha":768,"x_min":69,"x_max":732,"o":"m 444 749 q 633 600 602 749 l 637 600 l 677 737 l 732 737 l 576 0 l 521 0 l 551 186 l 547 186 q 420 38 490 90 q 260 -14 351 -14 q 69 240 69 -14 q 120 495 69 374 q 256 683 171 616 q 444 749 341 749 m 275 47 q 396 90 336 47 q 504 202 456 132 q 576 358 551 273 q 602 503 602 444 q 584 598 602 556 q 532 666 566 641 q 446 690 497 690 q 294 635 361 690 q 182 468 226 579 q 139 248 139 357 q 173 96 139 144 q 275 47 207 47 m 629 982 q 590 881 629 920 q 491 843 551 843 q 391 878 428 843 q 353 977 353 913 q 394 1074 353 1036 q 495 1112 434 1112 q 592 1078 555 1112 q 629 982 629 1044 m 576 981 q 553 1042 576 1019 q 494 1064 530 1064 q 430 1040 453 1064 q 408 977 408 1015 q 430 916 408 938 q 491 893 452 893 q 552 918 529 893 q 576 981 576 942 z "},"æ":{"ha":1086,"x_min":69,"x_max":1063,"o":"m 783 -14 q 640 27 700 -14 q 561 139 581 68 l 534 0 l 482 0 l 510 172 l 504 172 q 376 31 440 76 q 235 -14 311 -14 q 111 50 153 -14 q 69 233 69 114 q 117 494 69 373 q 248 682 165 615 q 433 749 330 749 q 546 710 505 749 q 596 604 587 672 l 603 604 l 643 734 l 688 734 l 664 608 q 901 749 758 749 q 1020 707 977 749 q 1063 590 1063 665 q 955 406 1063 469 q 636 343 848 343 l 610 343 q 604 278 604 309 q 651 108 604 169 q 799 47 699 47 q 889 62 846 47 q 978 97 933 76 l 978 33 q 878 -3 924 8 q 783 -14 833 -14 m 250 47 q 344 76 296 47 q 435 156 393 104 q 507 271 477 207 q 550 406 536 336 q 564 518 564 477 q 530 644 564 598 q 435 690 497 690 q 283 632 351 690 q 177 469 216 574 q 139 239 139 365 q 168 92 139 137 q 250 47 197 47 m 893 690 q 736 612 812 690 q 619 403 659 534 l 652 403 q 911 448 830 403 q 993 586 993 494 q 967 662 993 634 q 893 690 941 690 z "},"ç":{"ha":602,"x_min":69,"x_max":614,"o":"m 323 -14 q 137 61 205 -14 q 69 269 69 136 q 119 514 69 400 q 254 689 169 629 q 450 749 338 749 q 614 720 541 749 l 595 659 q 447 690 522 690 q 289 638 359 690 q 179 488 219 586 q 139 271 139 389 q 189 105 139 163 q 330 47 239 47 q 419 56 378 47 q 509 87 460 65 l 509 25 q 323 -14 430 -14 m 389 -196 q 338 -297 389 -260 q 191 -334 287 -334 q 138 -329 159 -334 l 138 -275 q 186 -279 158 -279 q 321 -201 321 -279 q 218 -129 321 -136 l 293 0 l 347 0 l 294 -93 q 389 -196 389 -113 z "},"è":{"ha":629,"x_min":69,"x_max":606,"o":"m 318 -14 q 135 61 201 -14 q 69 268 69 135 q 117 503 69 391 q 250 682 165 616 q 436 749 334 749 q 559 707 513 749 q 606 595 606 666 q 495 408 606 472 q 165 343 384 343 l 143 343 q 139 277 139 313 q 189 106 139 165 q 334 47 239 47 q 521 97 423 47 l 521 33 q 318 -14 426 -14 m 428 690 q 263 612 339 690 q 153 403 186 534 l 186 403 q 536 586 536 403 q 507 661 536 631 q 428 690 477 690 m 509 842 l 465 842 q 387 940 431 877 q 320 1050 344 1002 l 320 1064 l 398 1064 q 509 859 429 977 l 509 842 z "},"é":{"ha":629,"x_min":69,"x_max":644,"o":"m 318 -14 q 135 61 201 -14 q 69 268 69 135 q 117 503 69 391 q 250 682 165 616 q 436 749 334 749 q 559 707 513 749 q 606 595 606 666 q 495 408 606 472 q 165 343 384 343 l 143 343 q 139 277 139 313 q 189 106 139 165 q 334 47 239 47 q 521 97 423 47 l 521 33 q 318 -14 426 -14 m 428 690 q 263 612 339 690 q 153 403 186 534 l 186 403 q 536 586 536 403 q 507 661 536 631 q 428 690 477 690 m 361 856 q 463 952 406 890 q 551 1064 520 1014 l 644 1064 l 644 1048 q 537 941 609 1004 q 406 842 465 878 l 361 842 l 361 856 z "},"ê":{"ha":629,"x_min":69,"x_max":613,"o":"m 318 -14 q 135 61 201 -14 q 69 268 69 135 q 117 503 69 391 q 250 682 165 616 q 436 749 334 749 q 559 707 513 749 q 606 595 606 666 q 495 408 606 472 q 165 343 384 343 l 143 343 q 139 277 139 313 q 189 106 139 165 q 334 47 239 47 q 521 97 423 47 l 521 33 q 318 -14 426 -14 m 428 690 q 263 612 339 690 q 153 403 186 534 l 186 403 q 536 586 536 403 q 507 661 536 631 q 428 690 477 690 m 613 842 l 580 842 q 471 982 532 882 q 386 904 433 943 q 301 842 338 865 l 264 842 l 264 861 q 371 962 311 899 q 458 1064 432 1025 l 501 1064 q 550 961 517 1021 q 613 861 584 901 l 613 842 z "},"ë":{"ha":629,"x_min":69,"x_max":618,"o":"m 318 -14 q 135 61 201 -14 q 69 268 69 135 q 117 503 69 391 q 250 682 165 616 q 436 749 334 749 q 559 707 513 749 q 606 595 606 666 q 495 408 606 472 q 165 343 384 343 l 143 343 q 139 277 139 313 q 189 106 139 165 q 334 47 239 47 q 521 97 423 47 l 521 33 q 318 -14 426 -14 m 428 690 q 263 612 339 690 q 153 403 186 534 l 186 403 q 536 586 536 403 q 507 661 536 631 q 428 690 477 690 m 529 926 q 543 979 529 960 q 581 999 557 999 q 618 956 618 999 q 604 903 618 923 q 566 884 589 884 q 529 926 529 884 m 296 926 q 310 979 296 960 q 348 999 323 999 q 385 956 385 999 q 370 903 385 923 q 333 884 356 884 q 296 926 296 884 z "},"ì":{"ha":322,"x_min":52,"x_max":308,"o":"m 118 0 l 52 0 l 208 737 l 273 737 l 118 0 m 308 842 l 263 842 q 186 940 229 877 q 119 1050 142 1002 l 119 1064 l 197 1064 q 308 859 228 977 l 308 842 z "},"í":{"ha":322,"x_min":52,"x_max":475,"o":"m 118 0 l 52 0 l 208 737 l 273 737 l 118 0 m 193 856 q 295 952 237 890 q 382 1064 352 1014 l 475 1064 l 475 1048 q 369 941 441 1004 q 238 842 296 878 l 193 842 l 193 856 z "},"î":{"ha":322,"x_min":52,"x_max":435,"o":"m 118 0 l 52 0 l 208 737 l 273 737 l 118 0 m 435 842 l 402 842 q 293 982 355 882 q 208 904 256 943 q 123 842 161 865 l 87 842 l 87 861 q 194 962 133 899 q 280 1064 254 1025 l 323 1064 q 373 961 339 1021 q 435 861 406 901 l 435 842 z "},"ï":{"ha":322,"x_min":52,"x_max":438,"o":"m 118 0 l 52 0 l 208 737 l 273 737 l 118 0 m 349 926 q 363 979 349 960 q 401 999 377 999 q 438 956 438 999 q 424 903 438 923 q 387 884 410 884 q 349 926 349 884 m 116 926 q 130 979 116 960 q 168 999 144 999 q 205 956 205 999 q 191 903 205 923 q 153 884 176 884 q 116 926 116 884 z "},"ð":{"ha":762,"x_min":69,"x_max":746,"o":"m 484 925 q 376 1019 447 966 l 416 1065 q 471 1021 438 1048 q 539 957 505 994 l 720 1059 l 746 1008 l 572 913 q 662 726 631 834 q 692 498 692 617 q 596 122 692 258 q 325 -14 500 -14 q 137 59 205 -14 q 69 258 69 131 q 112 463 69 374 q 233 601 155 552 q 411 650 311 650 q 538 616 484 650 q 621 519 593 583 l 624 519 q 595 715 624 614 q 517 880 566 817 l 317 770 l 290 819 l 484 925 m 332 47 q 473 89 412 47 q 571 215 534 130 q 607 399 607 300 q 583 495 607 451 q 515 564 559 539 q 410 589 471 589 q 265 547 326 589 q 172 432 204 505 q 139 264 139 359 q 189 104 139 160 q 332 47 239 47 z "},"ñ":{"ha":775,"x_min":52,"x_max":728,"o":"m 518 0 l 619 469 q 633 575 633 532 q 604 660 633 629 q 513 690 574 690 q 370 645 437 690 q 257 518 303 600 q 187 323 212 436 l 118 0 l 52 0 l 208 737 l 264 737 l 239 587 l 243 587 q 525 749 354 749 q 657 705 613 749 q 701 581 701 662 q 685 457 701 533 l 585 0 l 518 0 m 593 847 q 540 860 566 847 q 489 890 515 873 q 445 918 466 906 q 399 930 425 930 q 349 911 368 930 q 314 843 329 892 l 264 843 q 312 956 277 916 q 403 996 347 996 q 453 986 431 996 q 532 937 475 977 q 596 913 568 913 q 645 933 625 913 q 676 1002 664 954 l 728 1002 q 677 884 710 922 q 593 847 644 847 z "},"ò":{"ha":762,"x_min":66,"x_max":696,"o":"m 440 751 q 629 678 562 751 q 696 475 696 604 q 647 225 696 341 q 515 47 599 109 q 321 -14 431 -14 q 131 61 196 -14 q 66 273 66 135 q 116 516 66 403 q 250 690 165 629 q 440 751 334 751 m 435 693 q 283 640 351 693 q 176 487 216 587 q 136 277 136 388 q 328 45 136 45 q 480 97 414 45 q 587 252 547 150 q 627 476 627 354 q 577 637 627 581 q 435 693 528 693 m 505 842 l 460 842 q 382 940 426 877 q 315 1050 339 1002 l 315 1064 l 393 1064 q 505 859 425 977 l 505 842 z "},"ó":{"ha":762,"x_min":66,"x_max":696,"o":"m 440 751 q 629 678 562 751 q 696 475 696 604 q 647 225 696 341 q 515 47 599 109 q 321 -14 431 -14 q 131 61 196 -14 q 66 273 66 135 q 116 516 66 403 q 250 690 165 629 q 440 751 334 751 m 435 693 q 283 640 351 693 q 176 487 216 587 q 136 277 136 388 q 328 45 136 45 q 480 97 414 45 q 587 252 547 150 q 627 476 627 354 q 577 637 627 581 q 435 693 528 693 m 389 856 q 491 952 433 890 q 578 1064 548 1014 l 671 1064 l 671 1048 q 565 941 637 1004 q 434 842 492 878 l 389 842 l 389 856 z "},"ô":{"ha":762,"x_min":66,"x_max":696,"o":"m 440 751 q 629 678 562 751 q 696 475 696 604 q 647 225 696 341 q 515 47 599 109 q 321 -14 431 -14 q 131 61 196 -14 q 66 273 66 135 q 116 516 66 403 q 250 690 165 629 q 440 751 334 751 m 435 693 q 283 640 351 693 q 176 487 216 587 q 136 277 136 388 q 328 45 136 45 q 480 97 414 45 q 587 252 547 150 q 627 476 627 354 q 577 637 627 581 q 435 693 528 693 m 638 842 l 605 842 q 496 982 557 882 q 411 904 458 943 q 326 842 363 865 l 290 842 l 290 861 q 396 962 336 899 q 483 1064 457 1025 l 526 1064 q 575 961 542 1021 q 638 861 609 901 l 638 842 z "},"õ":{"ha":762,"x_min":66,"x_max":704,"o":"m 440 751 q 629 678 562 751 q 696 475 696 604 q 647 225 696 341 q 515 47 599 109 q 321 -14 431 -14 q 131 61 196 -14 q 66 273 66 135 q 116 516 66 403 q 250 690 165 629 q 440 751 334 751 m 435 693 q 283 640 351 693 q 176 487 216 587 q 136 277 136 388 q 328 45 136 45 q 480 97 414 45 q 587 252 547 150 q 627 476 627 354 q 577 637 627 581 q 435 693 528 693 m 569 847 q 516 860 542 847 q 465 890 491 873 q 421 918 442 906 q 375 930 401 930 q 325 911 345 930 q 290 843 305 892 l 240 843 q 288 956 253 916 q 379 996 323 996 q 429 986 407 996 q 509 937 451 977 q 572 913 544 913 q 621 933 602 913 q 652 1002 640 954 l 704 1002 q 653 884 686 922 q 569 847 621 847 z "},"ö":{"ha":762,"x_min":66,"x_max":696,"o":"m 440 751 q 629 678 562 751 q 696 475 696 604 q 647 225 696 341 q 515 47 599 109 q 321 -14 431 -14 q 131 61 196 -14 q 66 273 66 135 q 116 516 66 403 q 250 690 165 629 q 440 751 334 751 m 435 693 q 283 640 351 693 q 176 487 216 587 q 136 277 136 388 q 328 45 136 45 q 480 97 414 45 q 587 252 547 150 q 627 476 627 354 q 577 637 627 581 q 435 693 528 693 m 551 926 q 565 979 551 960 q 603 999 578 999 q 640 956 640 999 q 625 903 640 923 q 588 884 611 884 q 551 926 551 884 m 317 926 q 331 979 317 960 q 370 999 345 999 q 406 956 406 999 q 392 903 406 923 q 355 884 378 884 q 317 926 317 884 z "},"÷":{"ha":765,"x_min":114,"x_max":726,"o":"m 114 456 l 114 524 l 726 524 l 726 456 l 114 456 m 354 253 q 419 325 354 325 q 469 306 452 325 q 486 253 486 288 q 467 197 486 214 q 419 180 447 180 q 354 253 354 180 m 354 726 q 419 799 354 799 q 468 780 450 799 q 486 726 486 762 q 467 671 486 688 q 419 654 447 654 q 354 726 354 654 z "},"ø":{"ha":762,"x_min":31,"x_max":728,"o":"m 111 86 q 66 273 66 158 q 116 516 66 403 q 250 690 165 629 q 440 751 334 751 q 610 696 542 751 l 684 786 l 728 750 l 648 653 q 696 475 696 582 q 647 225 696 341 q 515 47 599 109 q 321 -14 431 -14 q 149 43 210 -14 l 74 -49 l 31 -12 l 111 86 m 627 476 q 603 597 627 545 l 191 94 q 328 45 236 45 q 480 97 414 45 q 587 252 547 150 q 627 476 627 354 m 435 693 q 283 640 351 693 q 176 487 216 587 q 136 277 136 388 q 158 143 136 192 l 568 644 q 435 693 518 693 z "},"ù":{"ha":775,"x_min":74,"x_max":724,"o":"m 258 737 l 155 264 q 140 157 140 192 q 173 77 140 106 q 267 47 205 47 q 407 92 341 47 q 518 219 473 136 q 586 408 564 301 l 657 737 l 724 737 l 567 0 l 513 0 l 532 139 l 528 139 q 254 -11 414 -11 q 120 31 165 -11 q 74 154 74 73 q 89 269 74 195 l 191 737 l 258 737 m 525 842 l 480 842 q 403 940 446 877 q 336 1050 359 1002 l 336 1064 l 414 1064 q 525 859 445 977 l 525 842 z "},"ú":{"ha":775,"x_min":74,"x_max":724,"o":"m 258 737 l 155 264 q 140 157 140 192 q 173 77 140 106 q 267 47 205 47 q 407 92 341 47 q 518 219 473 136 q 586 408 564 301 l 657 737 l 724 737 l 567 0 l 513 0 l 532 139 l 528 139 q 254 -11 414 -11 q 120 31 165 -11 q 74 154 74 73 q 89 269 74 195 l 191 737 l 258 737 m 425 856 q 527 952 470 890 q 615 1064 585 1014 l 708 1064 l 708 1048 q 601 941 673 1004 q 471 842 529 878 l 425 842 l 425 856 z "},"û":{"ha":775,"x_min":74,"x_max":724,"o":"m 258 737 l 155 264 q 140 157 140 192 q 173 77 140 106 q 267 47 205 47 q 407 92 341 47 q 518 219 473 136 q 586 408 564 301 l 657 737 l 724 737 l 567 0 l 513 0 l 532 139 l 528 139 q 254 -11 414 -11 q 120 31 165 -11 q 74 154 74 73 q 89 269 74 195 l 191 737 l 258 737 m 649 842 l 616 842 q 507 982 568 882 q 422 904 469 943 q 337 842 374 865 l 300 842 l 300 861 q 407 962 347 899 q 494 1064 468 1025 l 537 1064 q 586 961 553 1021 q 649 861 620 901 l 649 842 z "},"ü":{"ha":775,"x_min":74,"x_max":724,"o":"m 258 737 l 155 264 q 140 157 140 192 q 173 77 140 106 q 267 47 205 47 q 407 92 341 47 q 518 219 473 136 q 586 408 564 301 l 657 737 l 724 737 l 567 0 l 513 0 l 532 139 l 528 139 q 254 -11 414 -11 q 120 31 165 -11 q 74 154 74 73 q 89 269 74 195 l 191 737 l 258 737 m 561 926 q 575 979 561 960 q 613 999 589 999 q 650 956 650 999 q 635 903 650 923 q 598 884 621 884 q 561 926 561 884 m 328 926 q 341 979 328 960 q 380 999 355 999 q 416 956 416 999 q 402 903 416 923 q 365 884 388 884 q 328 926 328 884 z "},"ý":{"ha":624,"x_min":-147,"x_max":684,"o":"m 83 737 l 151 737 l 207 366 q 244 61 241 127 l 252 61 q 378 310 281 132 l 614 737 l 684 737 l 200 -138 q 117 -258 151 -224 q 40 -313 83 -293 q -60 -334 -3 -334 q -147 -319 -106 -334 l -147 -257 q -54 -275 -99 -275 q 45 -242 0 -275 q 134 -130 91 -208 q 201 -5 176 -52 l 83 737 m 342 856 q 445 952 387 890 q 532 1064 502 1014 l 625 1064 l 625 1048 q 518 941 591 1004 q 388 842 446 878 l 342 842 l 342 856 z "},"þ":{"ha":789,"x_min":-22,"x_max":713,"o":"m 338 -11 q 149 138 182 -11 l 146 138 q 45 -334 137 89 l -22 -334 l 272 1055 l 339 1055 q 228 546 262 692 l 232 546 q 367 702 295 652 q 524 751 439 751 q 663 689 614 751 q 713 497 713 626 q 664 245 713 365 q 530 58 615 126 q 338 -11 445 -11 m 507 690 q 390 651 449 690 q 280 536 332 612 q 204 375 229 460 q 180 235 180 290 q 222 99 180 150 q 336 47 264 47 q 489 104 420 47 q 600 270 557 161 q 643 490 643 378 q 507 690 643 690 z "},"ÿ":{"ha":624,"x_min":-147,"x_max":684,"o":"m 83 737 l 151 737 l 207 366 q 244 61 241 127 l 252 61 q 378 310 281 132 l 614 737 l 684 737 l 200 -138 q 117 -258 151 -224 q 40 -313 83 -293 q -60 -334 -3 -334 q -147 -319 -106 -334 l -147 -257 q -54 -275 -99 -275 q 45 -242 0 -275 q 134 -130 91 -208 q 201 -5 176 -52 l 83 737 m 473 926 q 487 979 473 960 q 526 999 501 999 q 562 956 562 999 q 548 903 562 923 q 511 884 534 884 q 473 926 473 884 m 240 926 q 254 979 240 960 q 292 999 268 999 q 329 956 329 999 q 315 903 329 923 q 277 884 300 884 q 240 926 240 884 z "},"Ā":{"ha":718,"x_min":-75,"x_max":692,"o":"m 546 353 l 199 353 l 4 0 l -75 0 l 482 996 l 528 996 l 664 0 l 593 0 l 546 353 m 538 415 l 511 612 q 485 885 490 777 q 441 797 465 842 q 233 415 418 751 l 538 415 m 347 1133 l 692 1133 l 680 1074 l 335 1074 l 347 1133 z "},"ā":{"ha":768,"x_min":69,"x_max":732,"o":"m 444 749 q 633 600 602 749 l 637 600 l 677 737 l 732 737 l 576 0 l 521 0 l 551 186 l 547 186 q 420 38 490 90 q 260 -14 351 -14 q 69 240 69 -14 q 120 495 69 374 q 256 683 171 616 q 444 749 341 749 m 275 47 q 396 90 336 47 q 504 202 456 132 q 576 358 551 273 q 602 503 602 444 q 584 598 602 556 q 532 666 566 641 q 446 690 497 690 q 294 635 361 690 q 182 468 226 579 q 139 248 139 357 q 173 96 139 144 q 275 47 207 47 m 318 904 l 663 904 l 650 844 l 306 844 l 318 904 z "},"Ă":{"ha":718,"x_min":-75,"x_max":707,"o":"m 546 353 l 199 353 l 4 0 l -75 0 l 482 996 l 528 996 l 664 0 l 593 0 l 546 353 m 538 415 l 511 612 q 485 885 490 777 q 441 797 465 842 q 233 415 418 751 l 538 415 m 707 1234 q 639 1114 688 1152 q 509 1075 590 1075 q 398 1109 437 1075 q 359 1206 359 1143 l 359 1220 l 360 1234 l 407 1234 q 431 1164 407 1187 q 514 1140 456 1140 q 607 1161 572 1140 q 659 1234 642 1181 l 707 1234 z "},"ă":{"ha":768,"x_min":69,"x_max":732,"o":"m 444 749 q 633 600 602 749 l 637 600 l 677 737 l 732 737 l 576 0 l 521 0 l 551 186 l 547 186 q 420 38 490 90 q 260 -14 351 -14 q 69 240 69 -14 q 120 495 69 374 q 256 683 171 616 q 444 749 341 749 m 275 47 q 396 90 336 47 q 504 202 456 132 q 576 358 551 273 q 602 503 602 444 q 584 598 602 556 q 532 666 566 641 q 446 690 497 690 q 294 635 361 690 q 182 468 226 579 q 139 248 139 357 q 173 96 139 144 q 275 47 207 47 m 692 1004 q 623 884 672 923 q 493 846 574 846 q 382 880 422 846 q 343 977 343 914 l 343 991 l 345 1004 l 391 1004 q 416 935 391 958 q 498 911 440 911 q 591 931 556 911 q 643 1004 626 952 l 692 1004 z "},"Ą":{"ha":718,"x_min":-75,"x_max":664,"o":"m 546 353 l 199 353 l 4 0 l -75 0 l 482 996 l 528 996 l 664 0 l 593 0 l 546 353 m 538 415 l 511 612 q 485 885 490 777 q 441 797 465 842 q 233 415 418 751 l 538 415 m 642 0 l 591 -41 q 529 -105 550 -73 q 509 -174 509 -138 q 568 -229 509 -229 q 620 -222 591 -229 l 620 -271 q 553 -281 592 -281 q 474 -255 503 -281 q 446 -182 446 -229 q 479 -92 446 -135 q 593 0 511 -49 l 642 0 z "},"ą":{"ha":768,"x_min":69,"x_max":732,"o":"m 444 749 q 633 600 602 749 l 637 600 l 677 737 l 732 737 l 576 0 l 521 0 l 551 186 l 547 186 q 420 38 490 90 q 260 -14 351 -14 q 69 240 69 -14 q 120 495 69 374 q 256 683 171 616 q 444 749 341 749 m 275 47 q 396 90 336 47 q 504 202 456 132 q 576 358 551 273 q 602 503 602 444 q 584 598 602 556 q 532 666 566 641 q 446 690 497 690 q 294 635 361 690 q 182 468 226 579 q 139 248 139 357 q 173 96 139 144 q 275 47 207 47 m 570 0 l 519 -41 q 457 -105 477 -73 q 436 -174 436 -138 q 496 -229 436 -229 q 547 -222 518 -229 l 547 -271 q 481 -281 519 -281 q 402 -255 430 -281 q 374 -182 374 -229 q 406 -92 374 -135 q 521 0 439 -49 l 570 0 z "},"Ć":{"ha":793,"x_min":115,"x_max":863,"o":"m 652 942 q 413 871 518 942 q 247 665 309 800 q 186 366 186 529 q 261 131 186 213 q 476 49 336 49 q 682 83 571 49 l 682 20 q 468 -14 576 -14 q 206 85 297 -14 q 115 363 115 183 q 186 694 115 543 q 379 925 257 844 q 652 1006 501 1006 q 860 960 772 1006 l 829 899 q 745 930 792 919 q 652 942 698 942 m 581 1085 q 683 1181 625 1120 q 770 1293 740 1243 l 863 1293 l 863 1278 q 756 1170 829 1233 q 626 1071 684 1107 l 581 1071 l 581 1085 z "},"ć":{"ha":602,"x_min":69,"x_max":674,"o":"m 323 -14 q 137 61 205 -14 q 69 269 69 136 q 119 514 69 400 q 254 689 169 629 q 450 749 338 749 q 614 720 541 749 l 595 659 q 447 690 522 690 q 289 638 359 690 q 179 488 219 586 q 139 271 139 389 q 189 105 139 163 q 330 47 239 47 q 419 56 378 47 q 509 87 460 65 l 509 25 q 323 -14 430 -14 m 391 856 q 493 952 436 890 q 581 1064 551 1014 l 674 1064 l 674 1048 q 567 941 640 1004 q 437 842 495 878 l 391 842 l 391 856 z "},"Ĉ":{"ha":793,"x_min":115,"x_max":860,"o":"m 652 942 q 413 871 518 942 q 247 665 309 800 q 186 366 186 529 q 261 131 186 213 q 476 49 336 49 q 682 83 571 49 l 682 20 q 468 -14 576 -14 q 206 85 297 -14 q 115 363 115 183 q 186 694 115 543 q 379 925 257 844 q 652 1006 501 1006 q 860 960 772 1006 l 829 899 q 745 930 792 919 q 652 942 698 942 m 794 1071 l 761 1071 q 652 1211 713 1112 q 567 1134 614 1173 q 482 1071 519 1095 l 446 1071 l 446 1090 q 552 1191 492 1128 q 639 1293 613 1254 l 682 1293 q 731 1190 698 1250 q 794 1090 765 1130 l 794 1071 z "},"ĉ":{"ha":602,"x_min":69,"x_max":616,"o":"m 323 -14 q 137 61 205 -14 q 69 269 69 136 q 119 514 69 400 q 254 689 169 629 q 450 749 338 749 q 614 720 541 749 l 595 659 q 447 690 522 690 q 289 638 359 690 q 179 488 219 586 q 139 271 139 389 q 189 105 139 163 q 330 47 239 47 q 419 56 378 47 q 509 87 460 65 l 509 25 q 323 -14 430 -14 m 616 842 l 583 842 q 473 982 535 882 q 389 904 436 943 q 304 842 341 865 l 267 842 l 267 861 q 374 962 313 899 q 460 1064 435 1025 l 504 1064 q 553 961 519 1021 q 616 861 587 901 l 616 842 z "},"Ċ":{"ha":793,"x_min":115,"x_max":860,"o":"m 652 942 q 413 871 518 942 q 247 665 309 800 q 186 366 186 529 q 261 131 186 213 q 476 49 336 49 q 682 83 571 49 l 682 20 q 468 -14 576 -14 q 206 85 297 -14 q 115 363 115 183 q 186 694 115 543 q 379 925 257 844 q 652 1006 501 1006 q 860 960 772 1006 l 829 899 q 745 930 792 919 q 652 942 698 942 m 575 1156 q 590 1216 575 1194 q 631 1238 604 1238 q 669 1189 669 1238 q 654 1127 669 1149 q 615 1105 639 1105 q 575 1156 575 1105 z "},"ċ":{"ha":602,"x_min":69,"x_max":614,"o":"m 323 -14 q 137 61 205 -14 q 69 269 69 136 q 119 514 69 400 q 254 689 169 629 q 450 749 338 749 q 614 720 541 749 l 595 659 q 447 690 522 690 q 289 638 359 690 q 179 488 219 586 q 139 271 139 389 q 189 105 139 163 q 330 47 239 47 q 419 56 378 47 q 509 87 460 65 l 509 25 q 323 -14 430 -14 m 436 926 q 451 986 436 964 q 492 1008 465 1008 q 530 960 530 1008 q 515 898 530 920 q 476 876 500 876 q 436 926 436 876 z "},"Č":{"ha":793,"x_min":115,"x_max":860,"o":"m 652 942 q 413 871 518 942 q 247 665 309 800 q 186 366 186 529 q 261 131 186 213 q 476 49 336 49 q 682 83 571 49 l 682 20 q 468 -14 576 -14 q 206 85 297 -14 q 115 363 115 183 q 186 694 115 543 q 379 925 257 844 q 652 1006 501 1006 q 860 960 772 1006 l 829 899 q 745 930 792 919 q 652 942 698 942 m 461 1293 l 494 1293 q 604 1153 543 1252 q 689 1231 642 1192 q 774 1293 736 1270 l 810 1293 l 810 1274 q 704 1175 764 1236 q 616 1071 645 1113 l 574 1071 q 522 1178 554 1121 q 461 1274 490 1235 l 461 1293 z "},"č":{"ha":602,"x_min":69,"x_max":653,"o":"m 323 -14 q 137 61 205 -14 q 69 269 69 136 q 119 514 69 400 q 254 689 169 629 q 450 749 338 749 q 614 720 541 749 l 595 659 q 447 690 522 690 q 289 638 359 690 q 179 488 219 586 q 139 271 139 389 q 189 105 139 163 q 330 47 239 47 q 419 56 378 47 q 509 87 460 65 l 509 25 q 323 -14 430 -14 m 304 1064 l 338 1064 q 448 924 387 1023 q 532 1001 485 962 q 617 1064 580 1040 l 653 1064 l 653 1044 q 548 945 607 1007 q 460 842 488 884 l 417 842 q 365 949 397 892 q 304 1044 333 1006 l 304 1064 z "},"Ď":{"ha":916,"x_min":69,"x_max":873,"o":"m 873 596 q 799 283 873 425 q 595 71 725 142 q 293 0 466 0 l 69 0 l 279 991 l 486 991 q 775 891 677 991 q 873 596 873 791 m 292 61 q 559 125 445 61 q 736 312 673 189 q 799 591 799 435 q 476 929 799 929 l 336 929 l 150 61 l 292 61 m 412 1293 l 446 1293 q 555 1153 494 1252 q 640 1231 593 1192 q 725 1293 688 1270 l 761 1293 l 761 1274 q 655 1175 715 1236 q 568 1071 596 1113 l 525 1071 q 473 1178 505 1121 q 412 1274 441 1235 l 412 1293 z "},"ď":{"ha":768,"x_min":69,"x_max":1026,"o":"m 444 749 q 633 600 600 749 l 636 600 q 733 1055 644 645 l 800 1055 l 576 0 l 521 0 l 551 186 l 547 186 q 260 -14 430 -14 q 69 240 69 -14 q 118 491 69 371 q 252 680 166 611 q 444 749 337 749 m 275 47 q 396 90 336 47 q 505 204 457 132 q 577 360 553 275 q 602 503 602 446 q 560 639 602 588 q 446 690 518 690 q 294 634 361 690 q 182 470 226 578 q 139 248 139 361 q 275 47 139 47 m 852 851 q 912 950 877 882 q 961 1055 947 1019 l 1026 1055 l 1026 1042 q 972 943 1020 1015 q 885 833 924 870 l 852 833 l 852 851 z "},"Đ":{"ha":917,"x_min":61,"x_max":873,"o":"m 873 596 q 799 283 873 425 q 595 71 725 142 q 293 0 466 0 l 69 0 l 167 458 l 61 458 l 75 524 l 180 524 l 279 991 l 486 991 q 775 891 677 991 q 873 596 873 791 m 292 61 q 559 125 445 61 q 736 312 673 189 q 799 591 799 435 q 476 929 799 929 l 336 929 l 249 524 l 505 524 l 492 458 l 235 458 l 150 61 l 292 61 z "},"đ":{"ha":789,"x_min":69,"x_max":878,"o":"m 444 749 q 633 600 598 749 l 636 600 q 692 863 641 629 l 418 863 l 432 920 l 704 920 l 733 1055 l 800 1055 l 771 920 l 878 920 l 864 863 l 760 863 l 576 0 l 521 0 l 551 186 l 547 186 q 260 -14 430 -14 q 69 240 69 -14 q 118 491 69 371 q 252 680 166 611 q 444 749 337 749 m 275 47 q 396 90 336 47 q 505 204 457 132 q 577 360 553 275 q 602 503 602 446 q 560 639 602 588 q 446 690 518 690 q 294 634 361 690 q 182 470 226 578 q 139 248 139 361 q 275 47 139 47 z "},"Ē":{"ha":724,"x_min":69,"x_max":772,"o":"m 562 0 l 69 0 l 279 991 l 772 991 l 758 928 l 335 928 l 256 553 l 656 553 l 642 489 l 243 489 l 151 64 l 576 64 l 562 0 m 368 1133 l 713 1133 l 701 1074 l 356 1074 l 368 1133 z "},"ē":{"ha":629,"x_min":69,"x_max":629,"o":"m 318 -14 q 135 61 201 -14 q 69 268 69 135 q 117 503 69 391 q 250 682 165 616 q 436 749 334 749 q 559 707 513 749 q 606 595 606 666 q 495 408 606 472 q 165 343 384 343 l 143 343 q 139 277 139 313 q 189 106 139 165 q 334 47 239 47 q 521 97 423 47 l 521 33 q 318 -14 426 -14 m 428 690 q 263 612 339 690 q 153 403 186 534 l 186 403 q 536 586 536 403 q 507 661 536 631 q 428 690 477 690 m 284 904 l 629 904 l 616 844 l 272 844 l 284 904 z "},"Ĕ":{"ha":724,"x_min":69,"x_max":772,"o":"m 562 0 l 69 0 l 279 991 l 772 991 l 758 928 l 335 928 l 256 553 l 656 553 l 642 489 l 243 489 l 151 64 l 576 64 l 562 0 m 738 1234 q 669 1114 718 1152 q 539 1075 621 1075 q 429 1109 468 1075 q 389 1206 389 1143 l 389 1220 l 391 1234 l 437 1234 q 462 1164 437 1187 q 545 1140 486 1140 q 637 1161 602 1140 q 689 1234 672 1181 l 738 1234 z "},"ĕ":{"ha":629,"x_min":69,"x_max":642,"o":"m 318 -14 q 135 61 201 -14 q 69 268 69 135 q 117 503 69 391 q 250 682 165 616 q 436 749 334 749 q 559 707 513 749 q 606 595 606 666 q 495 408 606 472 q 165 343 384 343 l 143 343 q 139 277 139 313 q 189 106 139 165 q 334 47 239 47 q 521 97 423 47 l 521 33 q 318 -14 426 -14 m 428 690 q 263 612 339 690 q 153 403 186 534 l 186 403 q 536 586 536 403 q 507 661 536 631 q 428 690 477 690 m 642 1004 q 573 884 622 923 q 443 846 524 846 q 332 880 372 846 q 293 977 293 914 l 293 991 l 294 1004 l 341 1004 q 366 935 341 958 q 448 911 390 911 q 541 931 506 911 q 593 1004 576 952 l 642 1004 z "},"Ė":{"ha":724,"x_min":69,"x_max":772,"o":"m 562 0 l 69 0 l 279 991 l 772 991 l 758 928 l 335 928 l 256 553 l 656 553 l 642 489 l 243 489 l 151 64 l 576 64 l 562 0 m 498 1136 q 512 1196 498 1174 q 553 1218 527 1218 q 592 1169 592 1218 q 577 1108 592 1130 q 538 1086 562 1086 q 498 1136 498 1086 z "},"ė":{"ha":629,"x_min":69,"x_max":606,"o":"m 318 -14 q 135 61 201 -14 q 69 268 69 135 q 117 503 69 391 q 250 682 165 616 q 436 749 334 749 q 559 707 513 749 q 606 595 606 666 q 495 408 606 472 q 165 343 384 343 l 143 343 q 139 277 139 313 q 189 106 139 165 q 334 47 239 47 q 521 97 423 47 l 521 33 q 318 -14 426 -14 m 428 690 q 263 612 339 690 q 153 403 186 534 l 186 403 q 536 586 536 403 q 507 661 536 631 q 428 690 477 690 m 389 926 q 404 986 389 964 q 445 1008 418 1008 q 484 960 484 1008 q 468 898 484 920 q 429 876 453 876 q 389 926 389 876 z "},"Ę":{"ha":724,"x_min":69,"x_max":772,"o":"m 562 0 l 69 0 l 279 991 l 772 991 l 758 928 l 335 928 l 256 553 l 656 553 l 642 489 l 243 489 l 151 64 l 576 64 l 562 0 m 503 0 l 452 -41 q 390 -105 411 -73 q 370 -174 370 -138 q 429 -229 370 -229 q 481 -222 452 -229 l 481 -271 q 414 -281 453 -281 q 335 -255 363 -281 q 307 -182 307 -229 q 340 -92 307 -135 q 454 0 372 -49 l 503 0 z "},"ę":{"ha":629,"x_min":69,"x_max":606,"o":"m 318 -14 q 135 61 201 -14 q 69 268 69 135 q 117 503 69 391 q 250 682 165 616 q 436 749 334 749 q 559 707 513 749 q 606 595 606 666 q 495 408 606 472 q 165 343 384 343 l 143 343 q 139 277 139 313 q 189 106 139 165 q 334 47 239 47 q 521 97 423 47 l 521 33 q 318 -14 426 -14 m 428 690 q 263 612 339 690 q 153 403 186 534 l 186 403 q 536 586 536 403 q 507 661 536 631 q 428 690 477 690 m 474 21 l 423 -20 q 361 -84 382 -52 q 340 -153 340 -117 q 400 -208 340 -208 q 452 -201 422 -208 l 452 -250 q 385 -260 424 -260 q 306 -234 334 -260 q 278 -161 278 -208 q 311 -71 278 -114 q 425 21 343 -28 l 474 21 z "},"Ě":{"ha":724,"x_min":69,"x_max":772,"o":"m 562 0 l 69 0 l 279 991 l 772 991 l 758 928 l 335 928 l 256 553 l 656 553 l 642 489 l 243 489 l 151 64 l 576 64 l 562 0 m 395 1293 l 428 1293 q 538 1153 477 1252 q 623 1231 575 1192 q 707 1293 670 1270 l 743 1293 l 743 1274 q 638 1175 697 1236 q 550 1071 578 1113 l 507 1071 q 455 1178 488 1121 q 395 1274 423 1235 l 395 1293 z "},"ě":{"ha":629,"x_min":69,"x_max":650,"o":"m 318 -14 q 135 61 201 -14 q 69 268 69 135 q 117 503 69 391 q 250 682 165 616 q 436 749 334 749 q 559 707 513 749 q 606 595 606 666 q 495 408 606 472 q 165 343 384 343 l 143 343 q 139 277 139 313 q 189 106 139 165 q 334 47 239 47 q 521 97 423 47 l 521 33 q 318 -14 426 -14 m 428 690 q 263 612 339 690 q 153 403 186 534 l 186 403 q 536 586 536 403 q 507 661 536 631 q 428 690 477 690 m 302 1064 l 335 1064 q 445 924 384 1023 q 530 1001 482 962 q 614 1064 577 1040 l 650 1064 l 650 1044 q 545 945 604 1007 q 457 842 486 884 l 414 842 q 362 949 395 892 q 302 1044 330 1006 l 302 1064 z "},"Ĝ":{"ha":932,"x_min":115,"x_max":909,"o":"m 581 498 l 856 498 l 754 36 q 479 -14 611 -14 q 210 85 305 -14 q 115 371 115 184 q 186 699 115 551 q 379 926 258 847 q 647 1006 500 1006 q 785 993 724 1006 q 909 953 846 980 l 884 889 q 755 931 809 920 q 642 942 701 942 q 412 869 517 942 q 246 665 307 796 q 186 371 186 533 q 263 132 186 216 q 485 49 341 49 q 694 81 590 49 l 774 437 l 568 437 l 581 498 m 798 1071 l 765 1071 q 656 1211 718 1112 q 571 1134 618 1173 q 486 1071 524 1095 l 450 1071 l 450 1090 q 556 1191 496 1128 q 643 1293 617 1254 l 686 1293 q 735 1190 702 1250 q 798 1090 769 1130 l 798 1071 z "},"ĝ":{"ha":705,"x_min":-60,"x_max":746,"o":"m 746 737 l 734 684 l 570 676 q 599 619 587 657 q 611 542 611 581 q 574 402 611 468 q 474 303 537 336 q 329 271 410 271 q 277 277 286 271 q 193 227 222 254 q 163 172 163 200 q 184 129 163 144 q 261 107 205 113 l 343 100 q 578 -79 578 79 q 534 -213 578 -155 q 407 -302 490 -271 q 210 -334 324 -334 q 12 -285 83 -334 q -60 -147 -60 -236 q 150 79 -60 13 q 97 163 97 108 q 227 300 97 246 q 152 371 178 324 q 125 478 125 418 q 161 616 125 553 q 261 715 197 680 q 401 751 326 751 q 501 737 448 751 l 746 737 m 9 -140 q 64 -242 9 -209 q 216 -275 119 -275 q 431 -225 354 -275 q 509 -86 509 -174 q 466 2 509 -28 q 318 41 424 33 l 210 52 q 56 -26 103 21 q 9 -140 9 -73 m 193 482 q 233 367 193 406 q 345 328 273 328 q 449 353 404 328 q 518 430 494 378 q 543 545 543 482 q 505 654 543 615 q 399 693 467 693 q 290 664 336 693 q 218 585 243 635 q 193 482 193 536 m 609 842 l 576 842 q 467 982 528 882 q 382 904 429 943 q 297 842 334 865 l 260 842 l 260 861 q 367 962 307 899 q 454 1064 428 1025 l 497 1064 q 546 961 513 1021 q 609 861 580 901 l 609 842 z "},"Ğ":{"ha":932,"x_min":115,"x_max":909,"o":"m 581 498 l 856 498 l 754 36 q 479 -14 611 -14 q 210 85 305 -14 q 115 371 115 184 q 186 699 115 551 q 379 926 258 847 q 647 1006 500 1006 q 785 993 724 1006 q 909 953 846 980 l 884 889 q 755 931 809 920 q 642 942 701 942 q 412 869 517 942 q 246 665 307 796 q 186 371 186 533 q 263 132 186 216 q 485 49 341 49 q 694 81 590 49 l 774 437 l 568 437 l 581 498 m 825 1234 q 757 1114 806 1152 q 627 1075 708 1075 q 516 1109 555 1075 q 477 1206 477 1143 l 477 1220 l 478 1234 l 525 1234 q 549 1164 525 1187 q 632 1140 574 1140 q 725 1161 690 1140 q 777 1234 760 1181 l 825 1234 z "},"ğ":{"ha":705,"x_min":-60,"x_max":746,"o":"m 746 737 l 734 684 l 570 676 q 599 619 587 657 q 611 542 611 581 q 574 402 611 468 q 474 303 537 336 q 329 271 410 271 q 277 277 286 271 q 193 227 222 254 q 163 172 163 200 q 184 129 163 144 q 261 107 205 113 l 343 100 q 578 -79 578 79 q 534 -213 578 -155 q 407 -302 490 -271 q 210 -334 324 -334 q 12 -285 83 -334 q -60 -147 -60 -236 q 150 79 -60 13 q 97 163 97 108 q 227 300 97 246 q 152 371 178 324 q 125 478 125 418 q 161 616 125 553 q 261 715 197 680 q 401 751 326 751 q 501 737 448 751 l 746 737 m 9 -140 q 64 -242 9 -209 q 216 -275 119 -275 q 431 -225 354 -275 q 509 -86 509 -174 q 466 2 509 -28 q 318 41 424 33 l 210 52 q 56 -26 103 21 q 9 -140 9 -73 m 193 482 q 233 367 193 406 q 345 328 273 328 q 449 353 404 328 q 518 430 494 378 q 543 545 543 482 q 505 654 543 615 q 399 693 467 693 q 290 664 336 693 q 218 585 243 635 q 193 482 193 536 m 625 1004 q 556 884 605 923 q 426 846 507 846 q 315 880 355 846 q 276 977 276 914 l 276 991 l 277 1004 l 324 1004 q 349 935 324 958 q 431 911 373 911 q 524 931 489 911 q 576 1004 559 952 l 625 1004 z "},"Ġ":{"ha":932,"x_min":115,"x_max":909,"o":"m 581 498 l 856 498 l 754 36 q 479 -14 611 -14 q 210 85 305 -14 q 115 371 115 184 q 186 699 115 551 q 379 926 258 847 q 647 1006 500 1006 q 785 993 724 1006 q 909 953 846 980 l 884 889 q 755 931 809 920 q 642 942 701 942 q 412 869 517 942 q 246 665 307 796 q 186 371 186 533 q 263 132 186 216 q 485 49 341 49 q 694 81 590 49 l 774 437 l 568 437 l 581 498 m 589 1156 q 604 1216 589 1194 q 645 1238 618 1238 q 684 1189 684 1238 q 668 1127 684 1149 q 629 1105 653 1105 q 589 1156 589 1105 z "},"ġ":{"ha":705,"x_min":-60,"x_max":746,"o":"m 746 737 l 734 684 l 570 676 q 599 619 587 657 q 611 542 611 581 q 574 402 611 468 q 474 303 537 336 q 329 271 410 271 q 277 277 286 271 q 193 227 222 254 q 163 172 163 200 q 184 129 163 144 q 261 107 205 113 l 343 100 q 578 -79 578 79 q 534 -213 578 -155 q 407 -302 490 -271 q 210 -334 324 -334 q 12 -285 83 -334 q -60 -147 -60 -236 q 150 79 -60 13 q 97 163 97 108 q 227 300 97 246 q 152 371 178 324 q 125 478 125 418 q 161 616 125 553 q 261 715 197 680 q 401 751 326 751 q 501 737 448 751 l 746 737 m 9 -140 q 64 -242 9 -209 q 216 -275 119 -275 q 431 -225 354 -275 q 509 -86 509 -174 q 466 2 509 -28 q 318 41 424 33 l 210 52 q 56 -26 103 21 q 9 -140 9 -73 m 193 482 q 233 367 193 406 q 345 328 273 328 q 449 353 404 328 q 518 430 494 378 q 543 545 543 482 q 505 654 543 615 q 399 693 467 693 q 290 664 336 693 q 218 585 243 635 q 193 482 193 536 m 410 926 q 425 986 410 964 q 466 1008 439 1008 q 505 960 505 1008 q 489 898 505 920 q 450 876 474 876 q 410 926 410 876 z "},"Ģ":{"ha":932,"x_min":115,"x_max":909,"o":"m 581 498 l 856 498 l 754 36 q 479 -14 611 -14 q 210 85 305 -14 q 115 371 115 184 q 186 699 115 551 q 379 926 258 847 q 647 1006 500 1006 q 785 993 724 1006 q 909 953 846 980 l 884 889 q 755 931 809 920 q 642 942 701 942 q 412 869 517 942 q 246 665 307 796 q 186 371 186 533 q 263 132 186 216 q 485 49 341 49 q 694 81 590 49 l 774 437 l 568 437 l 581 498 m 313 -289 q 371 -193 336 -259 q 421 -85 406 -126 l 486 -85 l 486 -98 q 433 -197 480 -125 q 345 -307 386 -269 l 313 -307 l 313 -289 z "},"ģ":{"ha":705,"x_min":-60,"x_max":746,"o":"m 746 737 l 734 684 l 570 676 q 599 619 587 657 q 611 542 611 581 q 574 402 611 468 q 474 303 537 336 q 329 271 410 271 q 277 277 286 271 q 193 227 222 254 q 163 172 163 200 q 184 129 163 144 q 261 107 205 113 l 343 100 q 578 -79 578 79 q 534 -213 578 -155 q 407 -302 490 -271 q 210 -334 324 -334 q 12 -285 83 -334 q -60 -147 -60 -236 q 150 79 -60 13 q 97 163 97 108 q 227 300 97 246 q 152 371 178 324 q 125 478 125 418 q 161 616 125 553 q 261 715 197 680 q 401 751 326 751 q 501 737 448 751 l 746 737 m 9 -140 q 64 -242 9 -209 q 216 -275 119 -275 q 431 -225 354 -275 q 509 -86 509 -174 q 466 2 509 -28 q 318 41 424 33 l 210 52 q 56 -26 103 21 q 9 -140 9 -73 m 193 482 q 233 367 193 406 q 345 328 273 328 q 449 353 404 328 q 518 430 494 378 q 543 545 543 482 q 505 654 543 615 q 399 693 467 693 q 290 664 336 693 q 218 585 243 635 q 193 482 193 536 m 566 1046 q 508 949 543 1016 q 458 842 473 883 l 393 842 l 393 856 q 445 953 398 882 q 534 1064 492 1024 l 566 1064 l 566 1046 z "},"Ĥ":{"ha":926,"x_min":69,"x_max":930,"o":"m 721 0 l 653 0 l 755 488 l 240 488 l 139 0 l 69 0 l 279 991 l 349 991 l 254 551 l 770 551 l 863 991 l 930 991 l 721 0 m 779 1071 l 745 1071 q 636 1211 698 1112 q 551 1134 599 1173 q 467 1071 504 1095 l 430 1071 l 430 1090 q 537 1191 476 1128 q 623 1293 597 1254 l 667 1293 q 716 1190 682 1250 q 779 1090 749 1130 l 779 1071 z "},"ĥ":{"ha":775,"x_min":52,"x_max":701,"o":"m 518 0 l 619 469 q 633 575 633 532 q 604 660 633 629 q 513 690 574 690 q 370 645 437 690 q 257 517 303 600 q 187 323 212 435 l 118 0 l 52 0 l 277 1055 l 342 1055 l 283 777 q 239 587 254 641 l 243 587 q 369 706 296 664 q 525 749 443 749 q 655 705 609 749 q 701 581 701 661 q 685 457 701 533 l 585 0 l 518 0 m 677 1108 l 644 1108 q 535 1249 597 1149 q 450 1171 498 1210 q 366 1108 403 1132 l 329 1108 l 329 1128 q 436 1229 375 1166 q 522 1331 496 1291 l 566 1331 q 615 1227 581 1287 q 677 1128 648 1167 l 677 1108 z "},"Ħ":{"ha":926,"x_min":69,"x_max":1025,"o":"m 890 803 l 1025 803 l 1011 742 l 878 742 l 721 0 l 653 0 l 755 488 l 240 488 l 139 0 l 69 0 l 227 742 l 96 742 l 110 803 l 239 803 l 279 991 l 349 991 l 309 803 l 822 803 l 863 991 l 930 991 l 890 803 m 770 551 l 810 742 l 294 742 l 254 551 l 770 551 z "},"ħ":{"ha":782,"x_min":52,"x_max":701,"o":"m 515 0 l 619 473 q 633 579 633 542 q 601 662 633 634 q 510 690 568 690 q 308 594 394 690 q 186 326 221 498 l 118 0 l 52 0 l 236 869 l 139 869 l 150 922 l 248 922 l 275 1055 l 342 1055 l 314 922 l 567 922 l 555 869 l 302 869 q 239 593 256 656 l 245 593 q 375 713 309 677 q 521 749 441 749 q 655 707 608 749 q 701 583 701 665 q 686 468 701 541 l 585 0 l 515 0 z "},"ĩ":{"ha":322,"x_min":45,"x_max":509,"o":"m 118 0 l 52 0 l 208 737 l 273 737 l 118 0 m 374 847 q 321 860 347 847 q 270 890 296 873 q 226 918 247 906 q 180 930 205 930 q 130 911 149 930 q 95 843 110 892 l 45 843 q 93 956 58 916 q 184 996 128 996 q 234 986 212 996 q 313 937 256 977 q 377 913 349 913 q 426 933 406 913 q 457 1002 445 954 l 509 1002 q 458 884 491 922 q 374 847 425 847 z "},"ī":{"ha":322,"x_min":52,"x_max":446,"o":"m 118 0 l 52 0 l 208 737 l 273 737 l 118 0 m 102 904 l 446 904 l 434 844 l 90 844 l 102 904 z "},"ĭ":{"ha":322,"x_min":52,"x_max":456,"o":"m 118 0 l 52 0 l 208 737 l 273 737 l 118 0 m 456 1004 q 388 884 437 923 q 258 846 339 846 q 147 880 186 846 q 108 977 108 914 l 108 991 l 109 1004 l 156 1004 q 180 935 156 958 q 263 911 205 911 q 356 931 321 911 q 408 1004 391 952 l 456 1004 z "},"į":{"ha":322,"x_min":-78,"x_max":332,"o":"m 118 0 l 52 0 l 208 737 l 273 737 l 118 0 m 237 926 q 252 986 237 964 q 293 1008 267 1008 q 332 960 332 1008 q 317 899 332 921 q 278 876 302 876 q 248 889 258 876 q 237 926 237 903 m 118 0 l 67 -41 q 5 -105 26 -73 q -16 -174 -16 -138 q 44 -229 -16 -229 q 96 -222 66 -229 l 96 -271 q 29 -281 68 -281 q -50 -255 -22 -281 q -78 -182 -78 -229 q -45 -92 -78 -135 q 69 0 -13 -49 l 118 0 z "},"ı":{"ha":322,"x_min":52,"x_max":273,"o":"m 118 0 l 52 0 l 208 737 l 273 737 l 118 0 z "},"ĳ":{"ha":644,"x_min":50,"x_max":651,"o":"m 116 0 l 50 0 l 206 737 l 271 737 l 116 0 m 235 926 q 250 986 235 964 q 291 1008 265 1008 q 330 960 330 1008 q 315 899 330 921 q 276 876 300 876 q 246 889 256 876 q 235 926 235 903 m 207 -334 q 130 -321 165 -334 l 130 -258 q 207 -273 162 -273 q 294 -238 262 -273 q 343 -118 326 -203 l 524 737 l 589 737 l 407 -125 q 335 -285 383 -237 q 207 -334 286 -334 m 557 926 q 572 986 557 964 q 612 1008 587 1008 q 651 960 651 1008 q 636 899 651 921 q 597 876 621 876 q 567 889 578 876 q 557 926 557 903 z "},"Ĵ":{"ha":323,"x_min":-220,"x_max":492,"o":"m -122 -244 q -182 -239 -155 -244 q -220 -228 -209 -233 l -212 -165 q -119 -179 -174 -179 q 58 -16 25 -179 l 268 991 l 339 991 l 126 -20 q 41 -190 102 -135 q -122 -244 -20 -244 m 492 1071 l 459 1071 q 350 1211 412 1112 q 265 1134 313 1173 q 180 1071 218 1095 l 144 1071 l 144 1090 q 251 1191 190 1128 q 337 1293 311 1254 l 380 1293 q 430 1190 396 1250 q 492 1090 463 1130 l 492 1071 z "},"ĵ":{"ha":322,"x_min":-189,"x_max":424,"o":"m -113 -334 q -189 -321 -155 -334 l -189 -258 q -113 -273 -157 -273 q -25 -238 -57 -273 q 24 -118 6 -203 l 204 737 l 269 737 l 87 -125 q 15 -285 64 -237 q -113 -334 -33 -334 m 424 842 l 391 842 q 281 982 343 882 q 197 904 244 943 q 112 842 149 865 l 75 842 l 75 861 q 182 962 121 899 q 269 1064 243 1025 l 312 1064 q 361 961 328 1021 q 424 861 395 901 l 424 842 z "},"Ķ":{"ha":761,"x_min":69,"x_max":886,"o":"m 664 0 l 589 0 l 357 534 l 228 431 l 139 0 l 69 0 l 279 991 l 349 991 l 241 501 l 332 583 l 793 991 l 886 991 l 412 578 l 664 0 m 201 -289 q 259 -193 224 -259 q 310 -85 294 -126 l 375 -85 l 375 -98 q 322 -197 369 -125 q 233 -307 275 -269 l 201 -307 l 201 -289 z "},"ķ":{"ha":640,"x_min":52,"x_max":681,"o":"m 183 323 l 596 737 l 681 737 l 359 419 l 561 0 l 489 0 l 310 379 l 171 252 l 117 0 l 52 0 l 275 1055 l 340 1055 l 228 526 l 180 323 l 183 323 m 147 -289 q 205 -193 170 -259 q 256 -85 240 -126 l 321 -85 l 321 -98 q 268 -197 315 -125 q 179 -307 220 -269 l 147 -307 l 147 -289 z "},"ĸ":{"ha":640,"x_min":52,"x_max":681,"o":"m 183 323 l 596 737 l 681 737 l 359 419 l 561 0 l 489 0 l 310 379 l 171 252 l 117 0 l 52 0 l 207 737 l 272 737 l 228 526 l 180 323 l 183 323 z "},"Ĺ":{"ha":636,"x_min":69,"x_max":574,"o":"m 69 0 l 279 991 l 349 991 l 153 65 l 574 65 l 558 0 l 69 0 m 281 1085 q 384 1181 326 1120 q 471 1293 441 1243 l 564 1293 l 564 1278 q 457 1170 530 1233 q 327 1071 385 1107 l 281 1071 l 281 1085 z "},"ĺ":{"ha":322,"x_min":52,"x_max":556,"o":"m 115 0 l 52 0 l 278 1055 l 342 1055 l 115 0 m 273 1124 q 375 1220 318 1158 q 463 1332 433 1282 l 556 1332 l 556 1316 q 449 1209 522 1272 q 319 1109 377 1146 l 273 1109 l 273 1124 z "},"Ļ":{"ha":636,"x_min":69,"x_max":574,"o":"m 69 0 l 279 991 l 349 991 l 153 65 l 574 65 l 558 0 l 69 0 m 197 -289 q 255 -193 220 -259 q 306 -85 290 -126 l 371 -85 l 371 -98 q 318 -197 365 -125 q 229 -307 271 -269 l 197 -307 l 197 -289 z "},"ļ":{"ha":322,"x_min":-55,"x_max":342,"o":"m 115 0 l 52 0 l 278 1055 l 342 1055 l 115 0 m -55 -289 q 3 -193 -32 -259 q 54 -85 38 -126 l 119 -85 l 119 -98 q 65 -197 113 -125 q -23 -307 18 -269 l -55 -307 l -55 -289 z "},"Ľ":{"ha":636,"x_min":69,"x_max":692,"o":"m 69 0 l 279 991 l 349 991 l 153 65 l 574 65 l 558 0 l 69 0 m 519 788 q 578 887 543 819 q 627 992 614 956 l 692 992 l 692 979 q 638 880 686 952 q 551 770 591 807 l 519 770 l 519 788 z "},"ľ":{"ha":322,"x_min":52,"x_max":577,"o":"m 115 0 l 52 0 l 278 1055 l 342 1055 l 115 0 m 404 851 q 463 950 428 882 q 512 1055 498 1019 l 577 1055 l 577 1042 q 523 943 571 1015 q 436 833 475 870 l 404 833 l 404 851 z "},"Ŀ":{"ha":636,"x_min":69,"x_max":574,"o":"m 69 0 l 279 991 l 349 991 l 153 65 l 574 65 l 558 0 l 69 0 m 464 487 q 478 547 464 525 q 519 569 493 569 q 558 520 558 569 q 543 459 558 481 q 504 437 528 437 q 464 487 464 437 z "},"ŀ":{"ha":283,"x_min":47,"x_max":395,"o":"m 111 0 l 47 0 l 273 1055 l 337 1055 l 111 0 m 300 516 q 315 576 300 554 q 356 598 330 598 q 395 549 395 598 q 379 488 395 510 q 340 466 364 466 q 300 516 300 466 z "},"Ł":{"ha":625,"x_min":26,"x_max":574,"o":"m 68 0 l 144 355 l 53 301 l 26 354 l 161 435 l 279 991 l 349 991 l 240 479 l 433 595 l 463 543 l 222 399 l 153 65 l 574 65 l 558 0 l 68 0 z "},"ł":{"ha":292,"x_min":7,"x_max":389,"o":"m 237 567 l 361 637 l 389 589 l 221 493 l 115 0 l 52 0 l 147 450 l 32 383 l 7 432 l 163 524 l 278 1055 l 342 1055 l 237 567 z "},"Ń":{"ha":930,"x_min":69,"x_max":935,"o":"m 725 0 l 667 0 l 317 871 l 311 871 q 279 686 296 770 q 134 0 262 602 l 69 0 l 279 991 l 334 991 l 688 114 l 693 114 q 743 396 709 233 l 871 991 l 935 991 l 725 0 m 572 1085 q 674 1181 617 1120 q 762 1293 732 1243 l 855 1293 l 855 1278 q 748 1170 821 1233 q 618 1071 676 1107 l 572 1071 l 572 1085 z "},"ń":{"ha":775,"x_min":52,"x_max":734,"o":"m 518 0 l 619 469 q 633 575 633 532 q 604 660 633 629 q 513 690 574 690 q 370 645 437 690 q 257 518 303 600 q 187 323 212 436 l 118 0 l 52 0 l 208 737 l 264 737 l 239 587 l 243 587 q 525 749 354 749 q 657 705 613 749 q 701 581 701 662 q 685 457 701 533 l 585 0 l 518 0 m 452 856 q 554 952 496 890 q 642 1064 611 1014 l 734 1064 l 734 1048 q 628 941 700 1004 q 497 842 555 878 l 452 842 l 452 856 z "},"Ņ":{"ha":930,"x_min":69,"x_max":935,"o":"m 725 0 l 667 0 l 317 871 l 311 871 q 279 686 296 770 q 134 0 262 602 l 69 0 l 279 991 l 334 991 l 688 114 l 693 114 q 743 396 709 233 l 871 991 l 935 991 l 725 0 m 262 -289 q 320 -193 286 -259 q 371 -85 355 -126 l 436 -85 l 436 -98 q 383 -197 430 -125 q 294 -307 336 -269 l 262 -307 l 262 -289 z "},"ņ":{"ha":775,"x_min":52,"x_max":701,"o":"m 518 0 l 619 469 q 633 575 633 532 q 604 660 633 629 q 513 690 574 690 q 370 645 437 690 q 257 518 303 600 q 187 323 212 436 l 118 0 l 52 0 l 208 737 l 264 737 l 239 587 l 243 587 q 525 749 354 749 q 657 705 613 749 q 701 581 701 662 q 685 457 701 533 l 585 0 l 518 0 m 175 -289 q 233 -193 198 -259 q 283 -85 268 -126 l 349 -85 l 349 -98 q 295 -197 342 -125 q 207 -307 248 -269 l 175 -307 l 175 -289 z "},"Ň":{"ha":930,"x_min":69,"x_max":935,"o":"m 725 0 l 667 0 l 317 871 l 311 871 q 279 686 296 770 q 134 0 262 602 l 69 0 l 279 991 l 334 991 l 688 114 l 693 114 q 743 396 709 233 l 871 991 l 935 991 l 725 0 m 482 1293 l 515 1293 q 625 1153 564 1252 q 710 1231 663 1192 q 795 1293 758 1270 l 831 1293 l 831 1274 q 725 1175 785 1236 q 637 1071 666 1113 l 595 1071 q 543 1178 575 1121 q 482 1274 511 1235 l 482 1293 z "},"ň":{"ha":775,"x_min":52,"x_max":701,"o":"m 518 0 l 619 469 q 633 575 633 532 q 604 660 633 629 q 513 690 574 690 q 370 645 437 690 q 257 518 303 600 q 187 323 212 436 l 118 0 l 52 0 l 208 737 l 264 737 l 239 587 l 243 587 q 525 749 354 749 q 657 705 613 749 q 701 581 701 662 q 685 457 701 533 l 585 0 l 518 0 m 344 1064 l 377 1064 q 487 924 426 1023 q 572 1001 524 962 q 656 1064 619 1040 l 692 1064 l 692 1044 q 587 945 646 1007 q 499 842 528 884 l 456 842 q 405 949 437 892 q 344 1044 372 1006 l 344 1064 z "},"ŉ":{"ha":869,"x_min":92,"x_max":786,"o":"m 326 991 l 329 977 q 249 817 300 905 q 142 652 199 728 l 92 652 q 179 816 136 724 q 250 991 222 909 l 326 991 m 603 0 l 704 469 q 718 575 718 532 q 689 660 718 629 q 597 690 659 690 q 455 645 522 690 q 342 518 388 600 q 272 323 296 436 l 203 0 l 136 0 l 293 737 l 349 737 l 323 587 l 328 587 q 610 749 439 749 q 742 705 698 749 q 786 581 786 662 q 770 457 786 533 l 669 0 l 603 0 z "},"Ŋ":{"ha":936,"x_min":69,"x_max":935,"o":"m 472 -244 q 416 -238 447 -244 q 375 -228 385 -233 l 382 -165 q 475 -179 421 -179 q 594 -135 551 -179 q 660 16 636 -91 l 317 871 l 311 871 q 279 686 296 770 q 134 0 262 602 l 69 0 l 279 991 l 334 991 l 688 114 l 693 114 q 743 396 709 233 l 871 991 l 935 991 l 728 12 q 639 -182 700 -121 q 472 -244 578 -244 z "},"ŋ":{"ha":782,"x_min":52,"x_max":701,"o":"m 358 -334 q 282 -321 314 -334 l 282 -258 q 358 -273 314 -273 q 445 -239 414 -273 q 493 -118 475 -204 l 619 469 q 633 575 633 532 q 604 660 633 629 q 513 690 574 690 q 370 645 437 690 q 257 518 303 600 q 187 323 212 436 l 118 0 l 52 0 l 208 737 l 264 737 l 239 587 l 243 587 q 525 749 354 749 q 657 705 613 749 q 701 581 701 662 q 685 457 701 533 l 558 -125 q 486 -285 534 -237 q 358 -334 437 -334 z "},"Ō":{"ha":993,"x_min":117,"x_max":951,"o":"m 951 618 q 888 291 951 445 q 717 62 824 138 q 469 -14 610 -14 q 208 87 300 -14 q 117 379 117 189 q 180 703 117 557 q 353 927 243 849 q 606 1006 463 1006 q 862 905 773 1006 q 951 618 951 804 m 596 942 q 387 873 478 942 q 241 671 296 805 q 187 389 187 538 q 261 136 187 222 q 478 49 336 49 q 682 116 593 49 q 824 319 770 182 q 878 611 878 456 q 807 858 878 774 q 596 942 736 942 m 451 1133 l 795 1133 l 783 1074 l 439 1074 l 451 1133 z "},"ō":{"ha":762,"x_min":66,"x_max":696,"o":"m 440 751 q 629 678 562 751 q 696 475 696 604 q 647 225 696 341 q 515 47 599 109 q 321 -14 431 -14 q 131 61 196 -14 q 66 273 66 135 q 116 516 66 403 q 250 690 165 629 q 440 751 334 751 m 435 693 q 283 640 351 693 q 176 487 216 587 q 136 277 136 388 q 328 45 136 45 q 480 97 414 45 q 587 252 547 150 q 627 476 627 354 q 577 637 627 581 q 435 693 528 693 m 296 904 l 640 904 l 628 844 l 283 844 l 296 904 z "},"Ŏ":{"ha":993,"x_min":117,"x_max":951,"o":"m 951 618 q 888 291 951 445 q 717 62 824 138 q 469 -14 610 -14 q 208 87 300 -14 q 117 379 117 189 q 180 703 117 557 q 353 927 243 849 q 606 1006 463 1006 q 862 905 773 1006 q 951 618 951 804 m 596 942 q 387 873 478 942 q 241 671 296 805 q 187 389 187 538 q 261 136 187 222 q 478 49 336 49 q 682 116 593 49 q 824 319 770 182 q 878 611 878 456 q 807 858 878 774 q 596 942 736 942 m 803 1234 q 734 1114 783 1152 q 604 1075 686 1075 q 494 1109 533 1075 q 454 1206 454 1143 l 454 1220 l 456 1234 l 503 1234 q 527 1164 503 1187 q 610 1140 551 1140 q 702 1161 667 1140 q 754 1234 737 1181 l 803 1234 z "},"ŏ":{"ha":762,"x_min":66,"x_max":696,"o":"m 440 751 q 629 678 562 751 q 696 475 696 604 q 647 225 696 341 q 515 47 599 109 q 321 -14 431 -14 q 131 61 196 -14 q 66 273 66 135 q 116 516 66 403 q 250 690 165 629 q 440 751 334 751 m 435 693 q 283 640 351 693 q 176 487 216 587 q 136 277 136 388 q 328 45 136 45 q 480 97 414 45 q 587 252 547 150 q 627 476 627 354 q 577 637 627 581 q 435 693 528 693 m 650 1004 q 581 884 630 923 q 451 846 532 846 q 340 880 380 846 q 301 977 301 914 l 301 991 l 302 1004 l 349 1004 q 374 935 349 958 q 456 911 398 911 q 549 931 514 911 q 601 1004 584 952 l 650 1004 z "},"Ő":{"ha":993,"x_min":117,"x_max":951,"o":"m 951 618 q 888 291 951 445 q 717 62 824 138 q 469 -14 610 -14 q 208 87 300 -14 q 117 379 117 189 q 180 703 117 557 q 353 927 243 849 q 606 1006 463 1006 q 862 905 773 1006 q 951 618 951 804 m 596 942 q 387 873 478 942 q 241 671 296 805 q 187 389 187 538 q 261 136 187 222 q 478 49 336 49 q 682 116 593 49 q 824 319 770 182 q 878 611 878 456 q 807 858 878 774 q 596 942 736 942 m 513 1090 q 589 1180 545 1124 q 667 1293 632 1236 l 736 1293 l 736 1278 q 638 1162 696 1223 q 539 1071 580 1101 l 513 1071 l 513 1090 m 725 1090 q 798 1178 753 1120 q 879 1293 843 1236 l 949 1293 l 949 1278 q 849 1161 907 1222 q 750 1071 791 1101 l 725 1071 l 725 1090 z "},"ő":{"ha":762,"x_min":66,"x_max":764,"o":"m 440 751 q 629 678 562 751 q 696 475 696 604 q 647 225 696 341 q 515 47 599 109 q 321 -14 431 -14 q 131 61 196 -14 q 66 273 66 135 q 116 516 66 403 q 250 690 165 629 q 440 751 334 751 m 435 693 q 283 640 351 693 q 176 487 216 587 q 136 277 136 388 q 328 45 136 45 q 480 97 414 45 q 587 252 547 150 q 627 476 627 354 q 577 637 627 581 q 435 693 528 693 m 328 861 q 404 951 361 895 q 482 1064 448 1007 l 552 1064 l 552 1048 q 454 933 512 994 q 355 842 395 871 l 328 842 l 328 861 m 541 861 q 613 949 568 891 q 694 1064 659 1007 l 764 1064 l 764 1048 q 665 932 723 993 q 566 842 607 871 l 541 842 l 541 861 z "},"Œ":{"ha":1198,"x_min":117,"x_max":1247,"o":"m 1038 0 l 586 0 q 533 -9 569 -4 q 469 -14 498 -14 q 208 88 299 -14 q 117 379 117 189 q 182 706 117 557 q 359 930 247 854 q 618 1006 472 1006 q 781 991 706 1006 l 1247 991 l 1234 928 l 810 928 l 730 553 l 1131 553 l 1117 489 l 718 489 l 627 64 l 1051 64 l 1038 0 m 478 49 q 557 57 524 49 l 741 932 q 612 942 666 942 q 394 875 489 942 q 243 676 300 808 q 187 389 187 544 q 261 136 187 222 q 478 49 335 49 z "},"œ":{"ha":1166,"x_min":66,"x_max":1143,"o":"m 856 -14 q 701 33 764 -14 q 616 170 638 80 q 495 35 572 83 q 321 -14 418 -14 q 131 61 196 -14 q 66 273 66 135 q 116 516 66 403 q 250 690 165 629 q 440 751 334 751 q 601 701 536 751 q 686 557 666 650 q 810 697 734 646 q 974 749 886 749 q 1097 707 1051 749 q 1143 595 1143 666 q 1033 408 1143 472 q 703 343 922 343 l 681 343 q 676 277 676 317 q 726 106 676 165 q 871 47 777 47 q 1059 97 961 47 l 1059 33 q 856 -14 964 -14 m 435 693 q 283 640 351 693 q 176 487 216 587 q 136 277 136 388 q 328 45 136 45 q 480 97 414 45 q 587 252 547 150 q 627 476 627 354 q 577 637 627 581 q 435 693 528 693 m 965 690 q 800 612 876 690 q 690 403 724 534 l 724 403 q 1074 586 1074 403 q 1043 662 1074 633 q 965 690 1013 690 z "},"Ŕ":{"ha":777,"x_min":69,"x_max":777,"o":"m 228 429 l 139 0 l 69 0 l 279 991 l 485 991 q 777 747 777 991 q 706 542 777 624 q 515 439 636 460 q 665 0 652 38 l 590 0 l 447 429 l 228 429 m 243 492 l 414 492 q 629 556 555 492 q 703 747 703 621 q 479 929 703 929 l 336 929 l 243 492 m 492 1085 q 594 1181 536 1120 q 682 1293 651 1243 l 774 1293 l 774 1278 q 668 1170 740 1233 q 537 1071 595 1107 l 492 1071 l 492 1085 z "},"ŕ":{"ha":510,"x_min":49,"x_max":599,"o":"m 484 750 q 567 741 530 750 l 553 677 q 476 688 521 688 q 355 644 412 688 q 251 514 297 601 q 183 326 205 427 l 115 0 l 49 0 l 205 737 l 260 737 l 240 599 l 244 599 q 328 691 294 663 q 400 734 361 719 q 484 750 438 750 m 316 856 q 418 952 361 890 q 506 1064 475 1014 l 599 1064 l 599 1048 q 492 941 564 1004 q 361 842 420 878 l 316 842 l 316 856 z "},"Ŗ":{"ha":777,"x_min":69,"x_max":777,"o":"m 228 429 l 139 0 l 69 0 l 279 991 l 485 991 q 777 747 777 991 q 706 542 777 624 q 515 439 636 460 q 665 0 652 38 l 590 0 l 447 429 l 228 429 m 243 492 l 414 492 q 629 556 555 492 q 703 747 703 621 q 479 929 703 929 l 336 929 l 243 492 m 214 -289 q 272 -193 237 -259 q 322 -85 307 -126 l 387 -85 l 387 -98 q 334 -197 381 -125 q 245 -307 287 -269 l 214 -307 l 214 -289 z "},"ŗ":{"ha":510,"x_min":-59,"x_max":567,"o":"m 484 750 q 567 741 530 750 l 553 677 q 476 688 521 688 q 355 644 412 688 q 251 514 297 601 q 183 326 205 427 l 115 0 l 49 0 l 205 737 l 260 737 l 240 599 l 244 599 q 328 691 294 663 q 400 734 361 719 q 484 750 438 750 m -59 -289 q -1 -193 -36 -259 q 50 -85 34 -126 l 115 -85 l 115 -98 q 61 -197 109 -125 q -27 -307 14 -269 l -59 -307 l -59 -289 z "},"Ř":{"ha":777,"x_min":69,"x_max":777,"o":"m 228 429 l 139 0 l 69 0 l 279 991 l 485 991 q 777 747 777 991 q 706 542 777 624 q 515 439 636 460 q 665 0 652 38 l 590 0 l 447 429 l 228 429 m 243 492 l 414 492 q 629 556 555 492 q 703 747 703 621 q 479 929 703 929 l 336 929 l 243 492 m 383 1293 l 416 1293 q 526 1153 465 1252 q 611 1231 564 1192 q 696 1293 659 1270 l 732 1293 l 732 1274 q 626 1175 686 1236 q 538 1071 567 1113 l 496 1071 q 444 1178 476 1121 q 383 1274 412 1235 l 383 1293 z "},"ř":{"ha":510,"x_min":49,"x_max":605,"o":"m 484 750 q 567 741 530 750 l 553 677 q 476 688 521 688 q 355 644 412 688 q 251 514 297 601 q 183 326 205 427 l 115 0 l 49 0 l 205 737 l 260 737 l 240 599 l 244 599 q 328 691 294 663 q 400 734 361 719 q 484 750 438 750 m 256 1064 l 290 1064 q 399 924 338 1023 q 484 1001 437 962 q 569 1064 532 1040 l 605 1064 l 605 1044 q 499 945 559 1007 q 412 842 440 884 l 369 842 q 317 949 349 892 q 256 1044 285 1006 l 256 1064 z "},"Ś":{"ha":692,"x_min":25,"x_max":719,"o":"m 607 273 q 563 121 607 188 q 441 20 518 54 q 258 -14 363 -14 q 141 -2 199 -14 q 25 37 84 9 l 25 111 q 261 49 136 49 q 461 107 389 49 q 534 265 534 166 q 523 336 534 307 q 487 389 511 366 q 426 435 463 413 q 336 486 388 458 q 194 597 235 538 q 154 737 154 657 q 194 878 154 817 q 306 972 234 939 q 467 1006 378 1006 q 589 994 534 1006 q 703 953 644 982 l 681 889 q 578 932 636 916 q 467 947 520 947 q 291 891 356 947 q 225 743 225 836 q 258 628 225 673 q 382 538 292 583 q 527 450 486 484 q 587 373 567 415 q 607 273 607 331 m 436 1085 q 538 1181 481 1120 q 626 1293 595 1243 l 719 1293 l 719 1278 q 612 1170 684 1233 q 481 1071 540 1107 l 436 1071 l 436 1085 z "},"ś":{"ha":561,"x_min":17,"x_max":589,"o":"m 484 200 q 414 44 484 102 q 224 -14 344 -14 q 17 37 106 -14 l 17 110 q 121 62 67 79 q 221 45 174 45 q 364 84 315 45 q 414 195 414 123 q 403 245 414 223 q 369 287 393 267 q 279 345 346 307 q 144 443 179 399 q 109 551 109 488 q 175 693 109 638 q 351 749 242 749 q 459 737 402 749 q 554 705 515 725 l 530 646 q 351 689 438 689 q 225 653 273 689 q 178 559 178 617 q 189 500 178 522 q 230 453 201 477 q 311 401 260 429 q 421 331 389 359 q 468 273 453 304 q 484 200 484 241 m 307 856 q 409 952 351 890 q 496 1064 466 1014 l 589 1064 l 589 1048 q 483 941 555 1004 q 352 842 410 878 l 307 842 l 307 856 z "},"Ŝ":{"ha":692,"x_min":25,"x_max":703,"o":"m 607 273 q 563 121 607 188 q 441 20 518 54 q 258 -14 363 -14 q 141 -2 199 -14 q 25 37 84 9 l 25 111 q 261 49 136 49 q 461 107 389 49 q 534 265 534 166 q 523 336 534 307 q 487 389 511 366 q 426 435 463 413 q 336 486 388 458 q 194 597 235 538 q 154 737 154 657 q 194 878 154 817 q 306 972 234 939 q 467 1006 378 1006 q 589 994 534 1006 q 703 953 644 982 l 681 889 q 578 932 636 916 q 467 947 520 947 q 291 891 356 947 q 225 743 225 836 q 258 628 225 673 q 382 538 292 583 q 527 450 486 484 q 587 373 567 415 q 607 273 607 331 m 650 1071 l 616 1071 q 507 1211 569 1112 q 422 1134 470 1173 q 338 1071 375 1095 l 301 1071 l 301 1090 q 408 1191 347 1128 q 494 1293 469 1254 l 538 1293 q 587 1190 553 1250 q 650 1090 621 1130 l 650 1071 z "},"ŝ":{"ha":561,"x_min":17,"x_max":554,"o":"m 484 200 q 414 44 484 102 q 224 -14 344 -14 q 17 37 106 -14 l 17 110 q 121 62 67 79 q 221 45 174 45 q 364 84 315 45 q 414 195 414 123 q 403 245 414 223 q 369 287 393 267 q 279 345 346 307 q 144 443 179 399 q 109 551 109 488 q 175 693 109 638 q 351 749 242 749 q 459 737 402 749 q 554 705 515 725 l 530 646 q 351 689 438 689 q 225 653 273 689 q 178 559 178 617 q 189 500 178 522 q 230 453 201 477 q 311 401 260 429 q 421 331 389 359 q 468 273 453 304 q 484 200 484 241 m 541 842 l 507 842 q 398 982 460 882 q 313 904 361 943 q 229 842 266 865 l 192 842 l 192 861 q 299 962 238 899 q 385 1064 359 1025 l 429 1064 q 478 961 444 1021 q 541 861 511 901 l 541 842 z "},"Ş":{"ha":692,"x_min":25,"x_max":703,"o":"m 607 273 q 563 121 607 188 q 441 20 518 54 q 258 -14 363 -14 q 141 -2 199 -14 q 25 37 84 9 l 25 111 q 261 49 136 49 q 461 107 389 49 q 534 265 534 166 q 523 336 534 307 q 487 389 511 366 q 426 435 463 413 q 336 486 388 458 q 194 597 235 538 q 154 737 154 657 q 194 878 154 817 q 306 972 234 939 q 467 1006 378 1006 q 589 994 534 1006 q 703 953 644 982 l 681 889 q 578 932 636 916 q 467 947 520 947 q 291 891 356 947 q 225 743 225 836 q 258 628 225 673 q 382 538 292 583 q 527 450 486 484 q 587 373 567 415 q 607 273 607 331 m 345 -196 q 293 -297 345 -260 q 146 -334 242 -334 q 93 -329 115 -334 l 93 -275 q 142 -279 113 -279 q 276 -201 276 -279 q 174 -129 276 -136 l 248 0 l 302 0 l 250 -93 q 345 -196 345 -113 z "},"ş":{"ha":561,"x_min":17,"x_max":554,"o":"m 484 200 q 414 44 484 102 q 224 -14 344 -14 q 17 37 106 -14 l 17 110 q 121 62 67 79 q 221 45 174 45 q 364 84 315 45 q 414 195 414 123 q 403 245 414 223 q 369 287 393 267 q 279 345 346 307 q 144 443 179 399 q 109 551 109 488 q 175 693 109 638 q 351 749 242 749 q 459 737 402 749 q 554 705 515 725 l 530 646 q 351 689 438 689 q 225 653 273 689 q 178 559 178 617 q 189 500 178 522 q 230 453 201 477 q 311 401 260 429 q 421 331 389 359 q 468 273 453 304 q 484 200 484 241 m 304 -196 q 253 -297 304 -260 q 106 -334 202 -334 q 53 -329 75 -334 l 53 -275 q 102 -279 73 -279 q 236 -201 236 -279 q 134 -129 236 -136 l 208 0 l 262 0 l 210 -93 q 304 -196 304 -113 z "},"Š":{"ha":692,"x_min":25,"x_max":703,"o":"m 607 273 q 563 121 607 188 q 441 20 518 54 q 258 -14 363 -14 q 141 -2 199 -14 q 25 37 84 9 l 25 111 q 261 49 136 49 q 461 107 389 49 q 534 265 534 166 q 523 336 534 307 q 487 389 511 366 q 426 435 463 413 q 336 486 388 458 q 194 597 235 538 q 154 737 154 657 q 194 878 154 817 q 306 972 234 939 q 467 1006 378 1006 q 589 994 534 1006 q 703 953 644 982 l 681 889 q 578 932 636 916 q 467 947 520 947 q 291 891 356 947 q 225 743 225 836 q 258 628 225 673 q 382 538 292 583 q 527 450 486 484 q 587 373 567 415 q 607 273 607 331 m 317 1293 l 351 1293 q 460 1153 399 1252 q 545 1231 498 1192 q 630 1293 593 1270 l 666 1293 l 666 1274 q 561 1175 620 1236 q 473 1071 501 1113 l 430 1071 q 378 1178 410 1121 q 317 1274 346 1235 l 317 1293 z "},"š":{"ha":561,"x_min":17,"x_max":573,"o":"m 484 200 q 414 44 484 102 q 224 -14 344 -14 q 17 37 106 -14 l 17 110 q 121 62 67 79 q 221 45 174 45 q 364 84 315 45 q 414 195 414 123 q 403 245 414 223 q 369 287 393 267 q 279 345 346 307 q 144 443 179 399 q 109 551 109 488 q 175 693 109 638 q 351 749 242 749 q 459 737 402 749 q 554 705 515 725 l 530 646 q 351 689 438 689 q 225 653 273 689 q 178 559 178 617 q 189 500 178 522 q 230 453 201 477 q 311 401 260 429 q 421 331 389 359 q 468 273 453 304 q 484 200 484 241 m 224 1064 l 258 1064 q 368 924 307 1023 q 452 1001 405 962 q 537 1064 500 1040 l 573 1064 l 573 1044 q 468 945 527 1007 q 380 842 408 884 l 337 842 q 285 949 317 892 q 224 1044 253 1006 l 224 1064 z "},"Ț":{"ha":668,"x_min":109,"x_max":804,"o":"m 297 0 l 228 0 l 424 928 l 131 928 l 144 991 l 804 991 l 791 928 l 493 928 l 297 0 m 109 -289 q 167 -193 132 -259 q 218 -85 202 -126 l 283 -85 l 283 -98 q 230 -197 277 -125 q 141 -307 182 -269 l 109 -307 l 109 -289 z "},"ț":{"ha":418,"x_min":51,"x_max":471,"o":"m 471 737 l 458 682 l 267 682 l 175 252 q 160 140 160 184 q 245 46 160 46 q 349 64 292 46 l 349 5 q 233 -14 280 -14 q 130 23 166 -14 q 93 131 93 60 q 113 271 93 180 l 200 682 l 77 682 l 86 728 l 211 739 l 277 911 l 314 911 l 277 737 l 471 737 m 51 -289 q 109 -193 74 -259 q 159 -85 144 -126 l 224 -85 l 224 -98 q 171 -197 218 -125 q 83 -307 124 -269 l 51 -307 l 51 -289 z "},"Ť":{"ha":668,"x_min":131,"x_max":804,"o":"m 297 0 l 228 0 l 424 928 l 131 928 l 144 991 l 804 991 l 791 928 l 493 928 l 297 0 m 350 1293 l 383 1293 q 493 1153 432 1252 q 578 1231 530 1192 q 663 1293 625 1270 l 699 1293 l 699 1274 q 593 1175 652 1236 q 505 1071 534 1113 l 463 1071 q 411 1178 443 1121 q 350 1274 378 1235 l 350 1293 z "},"ť":{"ha":418,"x_min":77,"x_max":605,"o":"m 471 737 l 458 682 l 267 682 l 175 252 q 160 140 160 184 q 245 46 160 46 q 349 64 292 46 l 349 5 q 233 -14 280 -14 q 130 23 166 -14 q 93 131 93 60 q 113 271 93 180 l 200 682 l 77 682 l 86 728 l 211 739 l 277 911 l 314 911 l 277 737 l 471 737 m 431 850 q 491 950 456 882 q 540 1055 526 1018 l 605 1055 l 605 1041 q 551 942 599 1015 q 464 833 503 869 l 431 833 l 431 850 z "},"Ŧ":{"ha":668,"x_min":111,"x_max":804,"o":"m 123 545 l 343 545 l 424 928 l 131 928 l 144 991 l 804 991 l 791 928 l 493 928 l 411 545 l 636 545 l 624 489 l 400 489 l 297 0 l 228 0 l 330 489 l 111 489 l 123 545 z "},"ŧ":{"ha":389,"x_min":31,"x_max":471,"o":"m 43 461 l 153 461 l 200 682 l 77 682 l 86 728 l 211 739 l 277 911 l 314 911 l 277 737 l 471 737 l 458 682 l 267 682 l 220 461 l 389 461 l 376 406 l 207 406 l 175 252 q 160 136 160 184 q 181 72 160 98 q 245 46 201 46 q 349 64 292 46 l 349 5 q 295 -7 332 -1 q 236 -14 259 -14 q 131 26 170 -14 q 93 131 93 66 q 110 258 93 184 l 140 406 l 31 406 l 43 461 z "},"Ũ":{"ha":929,"x_min":119,"x_max":946,"o":"m 946 991 l 806 329 q 672 66 766 146 q 418 -14 578 -14 q 119 258 119 -14 q 138 395 119 315 l 264 991 l 334 991 l 203 382 q 189 257 189 321 q 421 47 189 47 q 630 113 553 47 q 737 329 706 178 l 878 991 l 946 991 m 725 1076 q 672 1089 698 1076 q 621 1120 647 1102 q 577 1147 598 1135 q 531 1160 557 1160 q 481 1140 500 1160 q 446 1072 461 1121 l 396 1072 q 444 1185 409 1145 q 535 1225 479 1225 q 585 1215 563 1225 q 665 1166 607 1206 q 728 1142 700 1142 q 777 1163 758 1142 q 808 1231 796 1183 l 860 1231 q 809 1114 842 1151 q 725 1076 777 1076 z "},"ũ":{"ha":775,"x_min":74,"x_max":725,"o":"m 258 737 l 155 264 q 140 157 140 192 q 173 77 140 106 q 267 47 205 47 q 407 92 341 47 q 518 219 473 136 q 586 408 564 301 l 657 737 l 724 737 l 567 0 l 513 0 l 532 139 l 528 139 q 254 -11 414 -11 q 120 31 165 -11 q 74 154 74 73 q 89 269 74 195 l 191 737 l 258 737 m 590 847 q 537 860 563 847 q 486 890 512 873 q 443 918 463 906 q 396 930 422 930 q 346 911 366 930 q 311 843 326 892 l 261 843 q 309 956 274 916 q 400 996 345 996 q 450 986 428 996 q 530 937 472 977 q 593 913 565 913 q 642 933 623 913 q 673 1002 661 954 l 725 1002 q 674 884 707 922 q 590 847 642 847 z "},"Ū":{"ha":929,"x_min":119,"x_max":946,"o":"m 946 991 l 806 329 q 672 66 766 146 q 418 -14 578 -14 q 119 258 119 -14 q 138 395 119 315 l 264 991 l 334 991 l 203 382 q 189 257 189 321 q 421 47 189 47 q 630 113 553 47 q 737 329 706 178 l 878 991 l 946 991 m 450 1133 l 794 1133 l 782 1074 l 437 1074 l 450 1133 z "},"ū":{"ha":775,"x_min":74,"x_max":724,"o":"m 258 737 l 155 264 q 140 157 140 192 q 173 77 140 106 q 267 47 205 47 q 407 92 341 47 q 518 219 473 136 q 586 408 564 301 l 657 737 l 724 737 l 567 0 l 513 0 l 532 139 l 528 139 q 254 -11 414 -11 q 120 31 165 -11 q 74 154 74 73 q 89 269 74 195 l 191 737 l 258 737 m 319 904 l 664 904 l 652 844 l 307 844 l 319 904 z "},"Ŭ":{"ha":929,"x_min":119,"x_max":946,"o":"m 946 991 l 806 329 q 672 66 766 146 q 418 -14 578 -14 q 119 258 119 -14 q 138 395 119 315 l 264 991 l 334 991 l 203 382 q 189 257 189 321 q 421 47 189 47 q 630 113 553 47 q 737 329 706 178 l 878 991 l 946 991 m 806 1234 q 737 1114 786 1152 q 607 1075 688 1075 q 496 1109 536 1075 q 457 1206 457 1143 l 457 1220 l 458 1234 l 505 1234 q 530 1164 505 1187 q 612 1140 554 1140 q 705 1161 670 1140 q 757 1234 740 1181 l 806 1234 z "},"ŭ":{"ha":775,"x_min":74,"x_max":724,"o":"m 258 737 l 155 264 q 140 157 140 192 q 173 77 140 106 q 267 47 205 47 q 407 92 341 47 q 518 219 473 136 q 586 408 564 301 l 657 737 l 724 737 l 567 0 l 513 0 l 532 139 l 528 139 q 254 -11 414 -11 q 120 31 165 -11 q 74 154 74 73 q 89 269 74 195 l 191 737 l 258 737 m 667 1004 q 599 884 648 923 q 469 846 550 846 q 358 880 397 846 q 319 977 319 914 l 319 991 l 320 1004 l 367 1004 q 391 935 367 958 q 474 911 416 911 q 567 931 532 911 q 618 1004 602 952 l 667 1004 z "},"Ů":{"ha":929,"x_min":119,"x_max":946,"o":"m 946 991 l 806 329 q 672 66 766 146 q 418 -14 578 -14 q 119 258 119 -14 q 138 395 119 315 l 264 991 l 334 991 l 203 382 q 189 257 189 321 q 421 47 189 47 q 630 113 553 47 q 737 329 706 178 l 878 991 l 946 991 m 753 1211 q 714 1111 753 1149 q 615 1072 675 1072 q 515 1107 552 1072 q 477 1206 477 1143 q 518 1303 477 1265 q 619 1341 558 1341 q 716 1308 679 1341 q 753 1211 753 1274 m 700 1210 q 677 1271 700 1249 q 618 1293 654 1293 q 554 1269 577 1293 q 532 1206 532 1244 q 554 1145 532 1167 q 615 1122 576 1122 q 676 1147 653 1122 q 700 1210 700 1171 z "},"ů":{"ha":775,"x_min":74,"x_max":724,"o":"m 258 737 l 155 264 q 140 157 140 192 q 173 77 140 106 q 267 47 205 47 q 407 92 341 47 q 518 219 473 136 q 586 408 564 301 l 657 737 l 724 737 l 567 0 l 513 0 l 532 139 l 528 139 q 254 -11 414 -11 q 120 31 165 -11 q 74 154 74 73 q 89 269 74 195 l 191 737 l 258 737 m 630 982 q 591 881 630 920 q 492 843 552 843 q 392 878 429 843 q 355 977 355 913 q 395 1074 355 1036 q 496 1112 435 1112 q 593 1078 556 1112 q 630 982 630 1044 m 577 981 q 554 1042 577 1019 q 495 1064 532 1064 q 432 1040 454 1064 q 409 977 409 1015 q 431 916 409 938 q 492 893 454 893 q 554 918 530 893 q 577 981 577 942 z "},"Ű":{"ha":929,"x_min":119,"x_max":946,"o":"m 946 991 l 806 329 q 672 66 766 146 q 418 -14 578 -14 q 119 258 119 -14 q 138 395 119 315 l 264 991 l 334 991 l 203 382 q 189 257 189 321 q 421 47 189 47 q 630 113 553 47 q 737 329 706 178 l 878 991 l 946 991 m 484 1090 q 559 1180 516 1124 q 637 1293 603 1236 l 707 1293 l 707 1278 q 609 1162 667 1223 q 510 1071 551 1101 l 484 1071 l 484 1090 m 696 1090 q 769 1178 724 1120 q 850 1293 814 1236 l 920 1293 l 920 1278 q 820 1161 878 1222 q 721 1071 762 1101 l 696 1071 l 696 1090 z "},"ű":{"ha":775,"x_min":74,"x_max":761,"o":"m 258 737 l 155 264 q 140 157 140 192 q 173 77 140 106 q 267 47 205 47 q 407 92 341 47 q 518 219 473 136 q 586 408 564 301 l 657 737 l 724 737 l 567 0 l 513 0 l 532 139 l 528 139 q 254 -11 414 -11 q 120 31 165 -11 q 74 154 74 73 q 89 269 74 195 l 191 737 l 258 737 m 325 861 q 401 951 357 895 q 479 1064 444 1007 l 549 1064 l 549 1048 q 450 933 509 994 q 351 842 392 871 l 325 842 l 325 861 m 537 861 q 610 949 565 891 q 691 1064 655 1007 l 761 1064 l 761 1048 q 662 932 720 993 q 562 842 604 871 l 537 842 l 537 861 z "},"Ų":{"ha":929,"x_min":119,"x_max":946,"o":"m 946 991 l 806 329 q 672 66 766 146 q 418 -14 578 -14 q 119 258 119 -14 q 138 395 119 315 l 264 991 l 334 991 l 203 382 q 189 257 189 321 q 421 47 189 47 q 630 113 553 47 q 737 329 706 178 l 878 991 l 946 991 m 532 0 l 481 -41 q 419 -105 440 -73 q 399 -174 399 -138 q 458 -229 399 -229 q 510 -222 481 -229 l 510 -271 q 444 -281 482 -281 q 365 -255 393 -281 q 336 -182 336 -229 q 369 -92 336 -135 q 484 0 401 -49 l 532 0 z "},"ų":{"ha":775,"x_min":74,"x_max":724,"o":"m 258 737 l 155 264 q 140 157 140 192 q 173 77 140 106 q 267 47 205 47 q 407 92 341 47 q 518 219 473 136 q 586 408 564 301 l 657 737 l 724 737 l 567 0 l 513 0 l 532 139 l 528 139 q 254 -11 414 -11 q 120 31 165 -11 q 74 154 74 73 q 89 269 74 195 l 191 737 l 258 737 m 562 0 l 511 -41 q 449 -105 469 -73 q 428 -174 428 -138 q 488 -229 428 -229 q 539 -222 510 -229 l 539 -271 q 473 -281 511 -281 q 394 -255 422 -281 q 366 -182 366 -229 q 398 -92 366 -135 q 513 0 431 -49 l 562 0 z "},"Ŵ":{"ha":1154,"x_min":161,"x_max":1255,"o":"m 690 909 q 648 805 672 858 q 267 0 625 753 l 211 0 l 161 991 l 229 991 l 261 292 l 264 180 l 262 122 l 267 122 q 382 392 324 275 l 676 991 l 747 991 l 789 396 q 802 118 802 216 l 806 118 q 847 229 826 176 q 1182 991 869 281 l 1255 991 q 1031 496 1141 744 q 808 0 922 248 l 755 0 l 703 729 q 695 878 695 825 l 696 909 l 690 909 m 888 1071 l 855 1071 q 746 1211 808 1112 q 661 1134 709 1173 q 576 1071 614 1095 l 540 1071 l 540 1090 q 647 1191 586 1128 q 733 1293 707 1254 l 777 1293 q 826 1190 792 1250 q 888 1090 859 1130 l 888 1071 z "},"ŵ":{"ha":945,"x_min":82,"x_max":986,"o":"m 568 0 l 528 465 q 518 646 518 617 l 514 646 q 416 449 491 583 l 175 0 l 96 0 l 82 737 l 144 737 l 153 180 l 151 74 l 155 74 q 257 275 197 165 l 510 737 l 562 737 l 606 275 q 615 74 615 176 l 619 74 l 635 115 l 704 275 l 921 737 l 986 737 l 642 0 l 568 0 m 726 842 l 693 842 q 584 982 646 882 q 499 904 547 943 q 414 842 452 865 l 378 842 l 378 861 q 485 962 424 899 q 571 1064 545 1025 l 614 1064 q 664 961 630 1021 q 726 861 697 901 l 726 842 z "},"Ŷ":{"ha":654,"x_min":131,"x_max":783,"o":"m 335 437 l 704 991 l 783 991 l 355 359 l 282 0 l 211 0 l 292 370 l 131 991 l 199 991 l 335 437 m 629 1071 l 596 1071 q 487 1211 549 1112 q 402 1134 450 1173 q 317 1071 355 1095 l 281 1071 l 281 1090 q 388 1191 327 1128 q 474 1293 448 1254 l 517 1293 q 567 1190 533 1250 q 629 1090 600 1130 l 629 1071 z "},"ŷ":{"ha":624,"x_min":-147,"x_max":684,"o":"m 83 737 l 151 737 l 207 366 q 244 61 241 127 l 252 61 q 378 310 281 132 l 614 737 l 684 737 l 200 -138 q 117 -258 151 -224 q 40 -313 83 -293 q -60 -334 -3 -334 q -147 -319 -106 -334 l -147 -257 q -54 -275 -99 -275 q 45 -242 0 -275 q 134 -130 91 -208 q 201 -5 176 -52 l 83 737 m 563 842 l 530 842 q 420 982 482 882 q 336 904 383 943 q 251 842 288 865 l 214 842 l 214 861 q 321 962 260 899 q 408 1064 382 1025 l 451 1064 q 500 961 467 1021 q 563 861 534 901 l 563 842 z "},"Ÿ":{"ha":654,"x_min":131,"x_max":783,"o":"m 335 437 l 704 991 l 783 991 l 355 359 l 282 0 l 211 0 l 292 370 l 131 991 l 199 991 l 335 437 m 541 1156 q 555 1208 541 1189 q 593 1228 569 1228 q 630 1185 630 1228 q 616 1133 630 1152 q 578 1113 602 1113 q 541 1156 541 1113 m 308 1156 q 322 1208 308 1189 q 360 1228 336 1228 q 397 1185 397 1228 q 382 1133 397 1152 q 345 1113 368 1113 q 308 1156 308 1113 z "},"Ź":{"ha":765,"x_min":-8,"x_max":831,"o":"m 619 0 l -8 0 l 7 62 l 732 928 l 214 928 l 229 991 l 831 991 l 818 932 l 93 64 l 635 64 l 619 0 m 453 1085 q 555 1181 498 1120 q 643 1293 612 1243 l 736 1293 l 736 1278 q 629 1170 701 1233 q 498 1071 557 1107 l 453 1071 l 453 1085 z "},"ź":{"ha":602,"x_min":-20,"x_max":614,"o":"m 475 0 l -20 0 l -9 49 l 517 681 l 149 681 l 160 737 l 607 737 l 595 681 l 78 57 l 486 57 l 475 0 m 332 856 q 434 952 376 890 q 522 1064 491 1014 l 614 1064 l 614 1048 q 508 941 580 1004 q 377 842 435 878 l 332 842 l 332 856 z "},"Ż":{"ha":765,"x_min":-8,"x_max":831,"o":"m 619 0 l -8 0 l 7 62 l 732 928 l 214 928 l 229 991 l 831 991 l 818 932 l 93 64 l 635 64 l 619 0 m 488 1156 q 502 1216 488 1194 q 543 1238 517 1238 q 582 1189 582 1238 q 567 1127 582 1149 q 528 1105 551 1105 q 488 1156 488 1105 z "},"ż":{"ha":602,"x_min":-20,"x_max":607,"o":"m 475 0 l -20 0 l -9 49 l 517 681 l 149 681 l 160 737 l 607 737 l 595 681 l 78 57 l 486 57 l 475 0 m 357 926 q 372 986 357 964 q 413 1008 387 1008 q 452 960 452 1008 q 436 898 452 920 q 397 876 421 876 q 357 926 357 876 z "},"Ž":{"ha":765,"x_min":-8,"x_max":831,"o":"m 619 0 l -8 0 l 7 62 l 732 928 l 214 928 l 229 991 l 831 991 l 818 932 l 93 64 l 635 64 l 619 0 m 385 1293 l 418 1293 q 528 1153 467 1252 q 612 1231 565 1192 q 697 1293 660 1270 l 733 1293 l 733 1274 q 628 1175 687 1236 q 540 1071 568 1113 l 497 1071 q 445 1178 477 1121 q 385 1274 413 1235 l 385 1293 z "},"ž":{"ha":602,"x_min":-20,"x_max":608,"o":"m 475 0 l -20 0 l -9 49 l 517 681 l 149 681 l 160 737 l 607 737 l 595 681 l 78 57 l 486 57 l 475 0 m 259 1064 l 292 1064 q 402 924 341 1023 q 487 1001 439 962 q 572 1064 534 1040 l 608 1064 l 608 1044 q 502 945 562 1007 q 414 842 443 884 l 372 842 q 320 949 352 892 q 259 1044 288 1006 l 259 1064 z "},"ſ":{"ha":321,"x_min":-195,"x_max":561,"o":"m -125 -334 q -195 -321 -158 -334 l -195 -260 q -126 -271 -159 -271 q -35 -235 -66 -271 q 16 -109 -4 -199 l 215 846 q 295 1011 241 960 q 449 1063 350 1063 q 510 1055 476 1063 q 561 1042 544 1048 l 545 987 q 444 1006 486 1006 q 341 970 380 1006 q 283 848 302 934 l 78 -125 q 7 -284 56 -234 q -125 -334 -41 -334 z "},"ƒ":{"ha":765,"x_min":1,"x_max":745,"o":"m 71 -334 q 1 -321 38 -334 l 1 -260 q 69 -271 37 -271 q 160 -235 129 -271 q 211 -109 191 -199 l 357 582 l 218 582 l 228 628 l 367 637 l 399 789 q 478 954 422 903 q 632 1006 533 1006 q 745 985 682 1006 l 728 930 q 628 949 669 949 q 524 912 563 949 q 467 791 485 876 l 435 637 l 603 637 l 591 582 l 424 582 l 273 -125 q 202 -285 250 -237 q 71 -334 153 -334 z "},"Ǻ":{"ha":718,"x_min":-75,"x_max":742,"o":"m 629 981 q 608 903 629 938 q 547 854 587 869 l 664 0 l 593 0 l 546 353 l 199 353 l 4 0 l -75 0 l 408 865 q 369 912 383 883 q 354 977 354 941 q 394 1076 354 1038 q 494 1114 434 1114 q 593 1078 557 1114 q 629 981 629 1042 m 538 415 l 511 612 q 488 844 496 718 l 465 844 q 426 768 446 807 q 233 415 406 729 l 538 415 m 578 979 q 556 1041 578 1018 q 493 1064 534 1064 q 432 1041 456 1064 q 408 979 408 1018 q 430 917 408 939 q 493 895 452 895 q 554 917 531 895 q 578 979 578 939 m 458 1173 q 561 1269 503 1207 q 648 1381 618 1331 l 742 1381 l 742 1365 q 633 1256 703 1317 q 504 1158 563 1195 l 458 1158 l 458 1173 z "},"ǻ":{"ha":768,"x_min":69,"x_max":732,"o":"m 444 749 q 633 600 602 749 l 637 600 l 677 737 l 732 737 l 576 0 l 521 0 l 551 186 l 547 186 q 420 38 490 90 q 260 -14 351 -14 q 69 240 69 -14 q 120 495 69 374 q 256 683 171 616 q 444 749 341 749 m 275 47 q 396 90 336 47 q 504 202 456 132 q 576 358 551 273 q 602 503 602 444 q 584 598 602 556 q 532 666 566 641 q 446 690 497 690 q 294 635 361 690 q 182 468 226 579 q 139 248 139 357 q 173 96 139 144 q 275 47 207 47 m 631 948 q 592 847 631 886 q 494 809 553 809 q 393 844 431 809 q 356 943 356 880 q 396 1040 356 1002 q 498 1078 437 1078 q 594 1044 557 1078 q 631 948 631 1010 m 578 947 q 556 1008 578 985 q 496 1030 533 1030 q 433 1006 456 1030 q 410 943 410 981 q 433 882 410 904 q 494 859 455 859 q 555 884 532 859 q 578 947 578 908 m 445 1142 q 547 1238 490 1177 q 635 1350 604 1300 l 728 1350 l 728 1335 q 621 1227 693 1290 q 490 1128 549 1164 l 445 1128 l 445 1142 z "},"Ǽ":{"ha":1112,"x_min":-79,"x_max":1161,"o":"m 951 0 l 458 0 l 533 354 l 232 354 l 9 0 l -79 0 l 562 991 l 1161 991 l 1147 928 l 724 928 l 644 553 l 1044 553 l 1031 489 l 632 489 l 541 64 l 965 64 l 951 0 m 277 425 l 549 425 l 654 928 l 595 928 l 277 425 m 746 1085 q 848 1181 791 1120 q 936 1293 905 1243 l 1029 1293 l 1029 1278 q 922 1170 994 1233 q 791 1071 850 1107 l 746 1071 l 746 1085 z "},"ǽ":{"ha":1086,"x_min":69,"x_max":1063,"o":"m 783 -14 q 640 27 700 -14 q 561 139 581 68 l 534 0 l 482 0 l 510 172 l 504 172 q 376 31 440 76 q 235 -14 311 -14 q 111 50 153 -14 q 69 233 69 114 q 117 494 69 373 q 248 682 165 615 q 433 749 330 749 q 546 710 505 749 q 596 604 587 672 l 603 604 l 643 734 l 688 734 l 664 608 q 901 749 758 749 q 1020 707 977 749 q 1063 590 1063 665 q 955 406 1063 469 q 636 343 848 343 l 610 343 q 604 278 604 309 q 651 108 604 169 q 799 47 699 47 q 889 62 846 47 q 978 97 933 76 l 978 33 q 878 -3 924 8 q 783 -14 833 -14 m 250 47 q 344 76 296 47 q 435 156 393 104 q 507 271 477 207 q 550 406 536 336 q 564 518 564 477 q 530 644 564 598 q 435 690 497 690 q 283 632 351 690 q 177 469 216 574 q 139 239 139 365 q 168 92 139 137 q 250 47 197 47 m 893 690 q 736 612 812 690 q 619 403 659 534 l 652 403 q 911 448 830 403 q 993 586 993 494 q 967 662 993 634 q 893 690 941 690 m 657 856 q 759 952 702 890 q 847 1064 817 1014 l 940 1064 l 940 1048 q 833 941 905 1004 q 703 842 761 878 l 657 842 l 657 856 z "},"Ǿ":{"ha":993,"x_min":94,"x_max":982,"o":"m 951 618 q 916 370 951 491 q 818 163 881 249 q 667 32 755 78 q 469 -14 578 -14 q 233 62 323 -14 l 139 -53 l 94 -9 l 193 107 q 117 379 117 208 q 180 704 117 557 q 354 928 244 851 q 606 1006 465 1006 q 844 924 754 1006 l 935 1038 l 982 1002 l 884 878 q 933 768 914 843 q 951 618 951 694 m 596 942 q 431 902 505 942 q 303 786 356 861 q 218 605 250 711 q 187 389 187 498 q 202 259 187 317 q 240 165 216 201 l 800 865 q 596 942 728 942 m 878 611 q 866 728 878 669 q 836 815 854 787 l 279 117 q 478 49 352 49 q 682 117 593 49 q 824 318 771 184 q 878 611 878 451 m 551 1085 q 653 1181 596 1120 q 741 1293 711 1243 l 834 1293 l 834 1278 q 727 1170 800 1233 q 597 1071 655 1107 l 551 1071 l 551 1085 z "},"ǿ":{"ha":762,"x_min":31,"x_max":728,"o":"m 111 86 q 66 273 66 158 q 116 516 66 403 q 250 690 165 629 q 440 751 334 751 q 610 696 542 751 l 684 786 l 728 750 l 648 653 q 696 475 696 582 q 647 225 696 341 q 515 47 599 109 q 321 -14 431 -14 q 149 43 210 -14 l 74 -49 l 31 -12 l 111 86 m 627 476 q 603 597 627 545 l 191 94 q 328 45 236 45 q 480 97 414 45 q 587 252 547 150 q 627 476 627 354 m 435 693 q 283 640 351 693 q 176 487 216 587 q 136 277 136 388 q 158 143 136 192 l 568 644 q 435 693 518 693 m 393 856 q 495 952 438 890 q 583 1064 553 1014 l 676 1064 l 676 1048 q 569 941 642 1004 q 439 842 497 878 l 393 842 l 393 856 z "},"Ș":{"ha":692,"x_min":25,"x_max":703,"o":"m 607 273 q 563 121 607 188 q 441 20 518 54 q 258 -14 363 -14 q 141 -2 199 -14 q 25 37 84 9 l 25 111 q 261 49 136 49 q 461 107 389 49 q 534 265 534 166 q 523 336 534 307 q 487 389 511 366 q 426 435 463 413 q 336 486 388 458 q 194 597 235 538 q 154 737 154 657 q 194 878 154 817 q 306 972 234 939 q 467 1006 378 1006 q 589 994 534 1006 q 703 953 644 982 l 681 889 q 578 932 636 916 q 467 947 520 947 q 291 891 356 947 q 225 743 225 836 q 258 628 225 673 q 382 538 292 583 q 527 450 486 484 q 587 373 567 415 q 607 273 607 331 m 135 -289 q 193 -193 158 -259 q 243 -85 228 -126 l 309 -85 l 309 -98 q 255 -197 302 -125 q 167 -307 208 -269 l 135 -307 l 135 -289 z "},"ș":{"ha":561,"x_min":17,"x_max":554,"o":"m 484 200 q 414 44 484 102 q 224 -14 344 -14 q 17 37 106 -14 l 17 110 q 121 62 67 79 q 221 45 174 45 q 364 84 315 45 q 414 195 414 123 q 403 245 414 223 q 369 287 393 267 q 279 345 346 307 q 144 443 179 399 q 109 551 109 488 q 175 693 109 638 q 351 749 242 749 q 459 737 402 749 q 554 705 515 725 l 530 646 q 351 689 438 689 q 225 653 273 689 q 178 559 178 617 q 189 500 178 522 q 230 453 201 477 q 311 401 260 429 q 421 331 389 359 q 468 273 453 304 q 484 200 484 241 m 76 -289 q 134 -193 99 -259 q 184 -85 169 -126 l 250 -85 l 250 -98 q 196 -197 243 -125 q 108 -307 149 -269 l 76 -307 l 76 -289 z "},"ˆ":{"ha":770,"x_min":301,"x_max":650,"o":"m 650 842 l 616 842 q 507 982 569 882 q 422 904 470 943 q 338 842 375 865 l 301 842 l 301 861 q 408 962 347 899 q 494 1064 469 1025 l 538 1064 q 587 961 553 1021 q 650 861 621 901 l 650 842 z "},"ˇ":{"ha":770,"x_min":349,"x_max":697,"o":"m 349 1064 l 382 1064 q 492 924 431 1023 q 576 1001 529 962 q 661 1064 624 1040 l 697 1064 l 697 1044 q 592 945 651 1007 q 504 842 532 884 l 461 842 q 409 949 441 892 q 349 1044 377 1006 l 349 1064 z "},"ˉ":{"ha":743,"x_min":282,"x_max":639,"o":"m 294 904 l 639 904 l 627 844 l 282 844 l 294 904 z "},"˘":{"ha":770,"x_min":335,"x_max":684,"o":"m 684 1004 q 615 884 664 923 q 485 846 566 846 q 374 880 414 846 q 335 977 335 914 l 335 991 l 336 1004 l 383 1004 q 408 935 383 958 q 490 911 432 911 q 583 931 548 911 q 635 1004 618 952 l 684 1004 z "},"˙":{"ha":298,"x_min":221,"x_max":315,"o":"m 221 926 q 236 986 221 964 q 277 1008 250 1008 q 315 960 315 1008 q 300 898 315 920 q 261 876 285 876 q 221 926 221 876 z "},"˚":{"ha":802,"x_min":380,"x_max":656,"o":"m 656 982 q 617 881 656 920 q 518 843 578 843 q 418 878 455 843 q 380 977 380 913 q 421 1074 380 1036 q 522 1112 461 1112 q 619 1078 582 1112 q 656 982 656 1044 m 603 981 q 580 1042 603 1019 q 521 1064 557 1064 q 457 1040 480 1064 q 435 977 435 1015 q 457 916 435 938 q 518 893 479 893 q 579 918 556 893 q 603 981 603 942 z "},"˛":{"ha":236,"x_min":-92,"x_max":104,"o":"m 104 0 l 54 -41 q -8 -105 12 -73 q -29 -174 -29 -138 q 31 -229 -29 -229 q 82 -222 53 -229 l 82 -271 q 16 -281 54 -281 q -63 -255 -35 -281 q -92 -182 -92 -229 q -59 -92 -92 -135 q 56 0 -26 -49 l 104 0 z "},"˜":{"ha":770,"x_min":235,"x_max":699,"o":"m 564 847 q 511 860 536 847 q 460 890 486 873 q 416 918 437 906 q 370 930 395 930 q 319 911 339 930 q 285 843 300 892 l 235 843 q 283 956 248 916 q 374 996 318 996 q 424 986 401 996 q 503 937 446 977 q 567 913 538 913 q 615 933 596 913 q 647 1002 635 954 l 699 1002 q 648 884 681 922 q 564 847 615 847 z "},"˝":{"ha":770,"x_min":313,"x_max":749,"o":"m 313 861 q 389 951 345 895 q 467 1064 432 1007 l 536 1064 l 536 1048 q 438 933 496 994 q 339 842 380 871 l 313 842 l 313 861 m 525 861 q 598 949 553 891 q 679 1064 643 1007 l 749 1064 l 749 1048 q 649 932 707 993 q 550 842 591 871 l 525 842 l 525 861 z "},"΄":{"ha":789,"x_min":441,"x_max":660,"o":"m 441 859 q 520 988 480 913 q 585 1128 561 1063 l 660 1128 l 660 1107 q 586 977 640 1059 q 486 842 532 895 l 441 842 l 441 859 z "},"΅":{"ha":789,"x_min":216,"x_max":583,"o":"m 497 928 q 511 983 497 963 q 549 1003 525 1003 q 583 958 583 1003 q 570 902 583 923 q 533 882 557 882 q 497 928 497 882 m 216 928 q 230 983 216 963 q 268 1003 244 1003 q 302 958 302 1003 q 289 902 302 923 q 253 882 276 882 q 226 894 235 882 q 216 928 216 906 m 367 953 q 419 1062 393 1002 q 457 1164 446 1123 l 536 1164 l 536 1152 q 481 1049 519 1111 q 406 942 443 987 l 367 942 l 367 953 z "},"Ά":{"ha":718,"x_min":-75,"x_max":664,"o":"m 546 353 l 199 353 l 4 0 l -75 0 l 482 996 l 528 996 l 664 0 l 593 0 l 546 353 m 538 415 l 511 612 q 485 885 490 777 q 441 797 465 842 q 233 415 418 751 l 538 415 m 115 787 q 194 917 153 842 q 258 1057 234 992 l 333 1057 l 333 1036 q 259 906 313 988 q 159 770 205 823 l 115 770 l 115 787 z "},"·":{"ha":329,"x_min":140,"x_max":249,"o":"m 140 473 q 157 533 140 511 q 204 555 174 555 q 249 507 249 555 q 232 447 249 471 q 186 424 215 424 q 140 473 140 424 z "},"Έ":{"ha":745,"x_min":60,"x_max":872,"o":"m 60 787 q 139 917 99 842 q 203 1057 180 992 l 279 1057 l 279 1036 q 205 906 259 988 q 105 770 151 823 l 60 770 l 60 787 m 662 0 l 169 0 l 379 991 l 872 991 l 858 928 l 435 928 l 355 553 l 755 553 l 741 489 l 342 489 l 251 64 l 676 64 l 662 0 z "},"Ή":{"ha":1035,"x_min":60,"x_max":1038,"o":"m 60 787 q 139 917 99 842 q 203 1057 180 992 l 279 1057 l 279 1036 q 205 906 259 988 q 105 770 151 823 l 60 770 l 60 787 m 828 0 l 760 0 l 863 488 l 347 488 l 246 0 l 176 0 l 387 991 l 456 991 l 361 551 l 877 551 l 970 991 l 1038 991 l 828 0 z "},"Ό":{"ha":1031,"x_min":70,"x_max":987,"o":"m 70 787 q 149 917 109 842 q 213 1057 189 992 l 288 1057 l 288 1036 q 215 906 269 988 q 115 770 161 823 l 70 770 l 70 787 m 987 618 q 924 291 987 445 q 753 62 860 138 q 505 -14 646 -14 q 244 87 336 -14 q 153 379 153 189 q 216 703 153 557 q 389 927 279 849 q 642 1006 498 1006 q 898 905 809 1006 q 987 618 987 804 m 632 942 q 423 873 514 942 q 277 671 332 805 q 223 389 223 538 q 297 136 223 222 q 514 49 372 49 q 718 116 629 49 q 860 319 806 182 q 913 611 913 456 q 843 858 913 774 q 632 942 772 942 z "},"Ύ":{"ha":835,"x_min":60,"x_max":1000,"o":"m 551 437 l 920 991 l 1000 991 l 572 359 l 498 0 l 427 0 l 508 370 l 347 991 l 415 991 l 551 437 m 60 787 q 139 917 99 842 q 203 1057 180 992 l 279 1057 l 279 1036 q 205 906 259 988 q 105 770 151 823 l 60 770 l 60 787 z "},"Ώ":{"ha":1074,"x_min":68,"x_max":1002,"o":"m 646 942 q 480 906 555 942 q 353 805 406 871 q 269 645 300 739 q 237 453 237 550 q 256 297 237 366 q 308 171 275 228 q 414 39 342 113 l 407 0 l 68 0 l 81 64 l 315 64 q 230 182 258 127 q 184 304 201 237 q 167 457 167 372 q 231 743 167 611 q 402 940 295 874 q 649 1006 510 1006 q 910 907 819 1006 q 1002 618 1002 808 q 918 298 1002 446 q 692 64 835 149 l 947 64 l 935 0 l 555 0 l 563 39 q 835 288 743 138 q 928 624 928 438 q 854 859 928 776 q 646 942 781 942 m 88 787 q 167 917 127 842 q 231 1057 208 992 l 307 1057 l 307 1036 q 233 906 287 988 q 133 770 179 823 l 88 770 l 88 787 z "},"ΐ":{"ha":379,"x_min":82,"x_max":452,"o":"m 235 46 q 323 60 272 46 l 323 3 q 222 -14 267 -14 q 118 25 155 -14 q 82 131 82 64 q 102 271 82 187 l 201 737 l 268 737 l 164 252 q 149 140 149 182 q 235 46 149 46 m 366 928 q 379 983 366 963 q 417 1003 393 1003 q 452 958 452 1003 q 438 902 452 923 q 401 882 425 882 q 366 928 366 882 m 85 928 q 99 983 85 963 q 136 1003 113 1003 q 171 958 171 1003 q 158 902 171 923 q 121 882 144 882 q 94 894 104 882 q 85 928 85 906 m 235 953 q 288 1062 262 1002 q 326 1164 314 1123 l 405 1164 l 405 1152 q 349 1049 387 1111 q 274 942 311 987 l 235 942 l 235 953 z "},"Α":{"ha":718,"x_min":-75,"x_max":664,"o":"m 546 353 l 199 353 l 4 0 l -75 0 l 482 996 l 528 996 l 664 0 l 593 0 l 546 353 m 538 415 l 511 612 q 485 885 490 777 q 441 797 465 842 q 233 415 418 751 l 538 415 z "},"Β":{"ha":815,"x_min":69,"x_max":802,"o":"m 279 991 l 536 991 q 733 935 665 991 q 802 771 802 878 q 741 602 802 667 q 568 518 680 537 l 568 515 q 696 438 653 494 q 739 300 739 382 q 644 80 739 161 q 379 0 549 0 l 69 0 l 279 991 m 256 550 l 444 550 q 656 605 584 550 q 729 766 729 660 q 676 889 729 847 q 521 930 623 930 l 336 930 l 256 550 m 243 489 l 151 61 l 383 61 q 593 120 519 61 q 667 294 667 180 q 606 441 667 393 q 419 489 545 489 l 243 489 z "},"Γ":{"ha":665,"x_min":69,"x_max":760,"o":"m 139 0 l 69 0 l 279 991 l 760 991 l 746 928 l 336 928 l 139 0 z "},"Δ":{"ha":741,"x_min":-31,"x_max":686,"o":"m 510 996 l 555 996 l 686 45 l 679 0 l -31 0 l -21 47 l 510 996 m 511 885 q 448 758 483 824 q 68 65 413 691 l 611 65 q 538 616 564 425 q 511 885 513 806 z "},"Ε":{"ha":724,"x_min":69,"x_max":772,"o":"m 562 0 l 69 0 l 279 991 l 772 991 l 758 928 l 335 928 l 256 553 l 656 553 l 642 489 l 243 489 l 151 64 l 576 64 l 562 0 z "},"Ζ":{"ha":765,"x_min":-8,"x_max":831,"o":"m 619 0 l -8 0 l 7 62 l 732 928 l 214 928 l 229 991 l 831 991 l 818 932 l 93 64 l 635 64 l 619 0 z "},"Η":{"ha":926,"x_min":69,"x_max":930,"o":"m 721 0 l 653 0 l 755 488 l 240 488 l 139 0 l 69 0 l 279 991 l 349 991 l 254 551 l 770 551 l 863 991 l 930 991 l 721 0 z "},"Θ":{"ha":993,"x_min":117,"x_max":951,"o":"m 737 538 l 725 472 l 318 472 l 330 538 l 737 538 m 951 618 q 888 291 951 445 q 717 62 824 138 q 469 -14 610 -14 q 208 87 300 -14 q 117 379 117 189 q 180 703 117 557 q 353 927 243 849 q 606 1006 463 1006 q 862 905 773 1006 q 951 618 951 804 m 596 942 q 387 873 478 942 q 241 671 296 805 q 187 389 187 538 q 261 136 187 222 q 478 49 336 49 q 682 116 593 49 q 824 319 770 182 q 878 611 878 456 q 807 858 878 774 q 596 942 736 942 z "},"Κ":{"ha":761,"x_min":69,"x_max":886,"o":"m 664 0 l 589 0 l 357 534 l 228 431 l 139 0 l 69 0 l 279 991 l 349 991 l 241 501 l 332 583 l 793 991 l 886 991 l 412 578 l 664 0 z "},"Λ":{"ha":746,"x_min":-77,"x_max":689,"o":"m 500 903 q 361 637 454 802 l 4 0 l -77 0 l 486 991 l 549 991 l 689 0 l 621 0 l 526 668 q 503 903 507 808 l 500 903 z "},"Μ":{"ha":1132,"x_min":74,"x_max":1122,"o":"m 524 139 l 1021 991 l 1122 991 l 918 0 l 850 0 l 979 611 q 1047 914 1033 861 l 1043 914 l 514 0 l 479 0 l 329 914 l 325 914 q 272 625 311 810 l 139 0 l 74 0 l 283 991 l 380 991 l 519 139 l 524 139 z "},"Ν":{"ha":930,"x_min":69,"x_max":935,"o":"m 725 0 l 667 0 l 317 871 l 311 871 q 279 686 296 770 q 134 0 262 602 l 69 0 l 279 991 l 334 991 l 688 114 l 693 114 q 743 396 709 233 l 871 991 l 935 991 l 725 0 z "},"Ξ":{"ha":717,"x_min":-12,"x_max":772,"o":"m 193 553 l 618 553 l 606 489 l 180 489 l 193 553 m 224 991 l 772 991 l 760 928 l 210 928 l 224 991 m 603 64 l 589 0 l -12 0 l 0 64 l 603 64 z "},"Ο":{"ha":993,"x_min":117,"x_max":951,"o":"m 951 618 q 888 291 951 445 q 717 62 824 138 q 469 -14 610 -14 q 208 87 300 -14 q 117 379 117 189 q 180 703 117 557 q 353 927 243 849 q 606 1006 463 1006 q 862 905 773 1006 q 951 618 951 804 m 596 942 q 387 873 478 942 q 241 671 296 805 q 187 389 187 538 q 261 136 187 222 q 478 49 336 49 q 682 116 593 49 q 824 319 770 182 q 878 611 878 456 q 807 858 878 774 q 596 942 736 942 z "},"Π":{"ha":932,"x_min":69,"x_max":930,"o":"m 721 0 l 653 0 l 848 926 l 335 926 l 139 0 l 69 0 l 279 991 l 930 991 l 721 0 z "},"Ρ":{"ha":777,"x_min":69,"x_max":777,"o":"m 777 747 q 363 408 777 408 l 227 408 l 139 0 l 69 0 l 279 991 l 493 991 q 703 929 630 991 q 777 747 777 866 m 237 471 l 367 471 q 620 536 538 471 q 703 743 703 602 q 479 929 703 929 l 336 929 l 237 471 z "},"Σ":{"ha":708,"x_min":-16,"x_max":771,"o":"m -16 0 l -5 60 l 419 504 l 191 935 l 201 991 l 771 991 l 758 928 l 399 928 l 265 930 l 493 496 l 78 61 l 180 64 l 614 64 l 600 0 l -16 0 z "},"Τ":{"ha":668,"x_min":131,"x_max":804,"o":"m 297 0 l 228 0 l 424 928 l 131 928 l 144 991 l 804 991 l 791 928 l 493 928 l 297 0 z "},"Υ":{"ha":654,"x_min":131,"x_max":783,"o":"m 335 437 l 704 991 l 783 991 l 355 359 l 282 0 l 211 0 l 292 370 l 131 991 l 199 991 l 335 437 z "},"Φ":{"ha":981,"x_min":106,"x_max":945,"o":"m 380 -14 l 414 144 q 247 192 316 150 q 142 301 178 233 q 106 457 106 369 q 162 673 106 577 q 322 821 218 769 q 570 876 426 872 l 597 1006 l 665 1006 l 639 876 q 866 788 787 867 q 945 574 945 710 q 888 350 945 447 q 727 201 831 252 q 485 144 623 149 l 450 -14 l 380 -14 m 497 207 q 775 307 676 212 q 873 570 873 401 q 811 744 873 680 q 625 812 749 808 l 497 207 m 555 812 q 354 768 439 810 q 222 646 269 726 q 175 463 175 566 q 243 277 175 345 q 428 207 311 210 l 555 812 z "},"Χ":{"ha":659,"x_min":-92,"x_max":779,"o":"m 596 0 l 524 0 l 351 460 l -5 0 l -92 0 l 321 519 l 136 991 l 208 991 l 371 567 l 699 991 l 779 991 l 403 504 l 596 0 z "},"Ψ":{"ha":962,"x_min":142,"x_max":1035,"o":"m 522 309 l 514 309 l 449 0 l 379 0 l 444 309 l 439 309 q 218 377 295 309 q 142 575 142 445 q 161 737 142 644 l 215 991 l 285 991 q 227 721 248 817 q 210 581 206 625 q 268 420 210 472 q 449 368 326 368 l 457 368 l 589 991 l 659 991 l 526 368 l 533 368 q 778 439 692 368 q 899 677 863 511 l 966 991 l 1035 991 l 964 663 q 818 392 926 476 q 522 309 711 309 z "},"Ω":{"ha":1025,"x_min":18,"x_max":951,"o":"m 596 942 q 430 906 505 942 q 302 805 355 871 q 218 645 250 739 q 187 453 187 550 q 206 297 187 366 q 258 171 224 228 q 364 39 292 113 l 357 0 l 18 0 l 31 64 l 265 64 q 180 182 208 127 q 134 304 151 237 q 117 457 117 372 q 181 743 117 611 q 352 940 245 874 q 599 1006 460 1006 q 860 907 769 1006 q 951 618 951 808 q 868 298 951 446 q 642 64 785 149 l 897 64 l 885 0 l 505 0 l 513 39 q 785 288 692 138 q 878 624 878 438 q 804 859 878 776 q 596 942 731 942 z "},"Ϋ":{"ha":654,"x_min":131,"x_max":783,"o":"m 335 437 l 704 991 l 783 991 l 355 359 l 282 0 l 211 0 l 292 370 l 131 991 l 199 991 l 335 437 m 540 1156 q 554 1208 540 1189 q 592 1228 568 1228 q 629 1185 629 1228 q 614 1133 629 1152 q 577 1113 600 1113 q 540 1156 540 1113 m 307 1156 q 320 1208 307 1189 q 359 1228 334 1228 q 395 1185 395 1228 q 381 1133 395 1152 q 344 1113 367 1113 q 307 1156 307 1113 z "},"ά":{"ha":771,"x_min":69,"x_max":768,"o":"m 444 749 q 570 710 521 749 q 637 593 619 671 l 642 593 q 713 737 677 690 l 768 737 q 716 613 744 696 q 665 424 688 530 q 611 159 616 191 q 607 111 607 127 q 659 45 607 45 q 722 60 685 45 l 722 7 q 639 -14 682 -14 q 563 17 587 -14 q 539 96 539 47 q 547 186 539 133 l 543 186 q 260 -14 432 -14 q 69 240 69 -14 q 120 495 69 374 q 256 683 171 616 q 444 749 341 749 m 275 47 q 398 89 338 47 q 506 201 459 131 q 577 355 552 272 q 602 503 602 439 q 584 598 602 556 q 532 666 566 641 q 446 690 497 690 q 294 635 361 690 q 182 468 226 579 q 139 248 139 357 q 173 96 139 144 q 275 47 207 47 m 430 859 q 509 988 469 913 q 573 1128 549 1063 l 648 1128 l 648 1107 q 575 977 629 1059 q 475 842 521 895 l 430 842 l 430 859 z "},"έ":{"ha":570,"x_min":40,"x_max":597,"o":"m 421 355 l 345 355 q 170 310 231 355 q 110 180 110 265 q 152 80 110 116 q 273 45 195 45 q 392 61 329 45 q 503 104 456 78 l 503 41 q 395 2 456 18 q 268 -14 333 -14 q 101 37 161 -14 q 40 175 40 87 q 96 322 40 264 q 250 395 151 380 l 250 397 q 172 451 201 414 q 142 543 142 488 q 212 693 142 637 q 399 749 281 749 q 595 704 509 749 l 568 646 q 487 677 534 665 q 397 689 439 689 q 259 651 307 689 q 211 545 211 614 q 254 450 211 483 q 375 418 296 418 l 433 418 l 421 355 m 378 859 q 457 988 417 913 q 522 1128 498 1063 l 597 1128 l 597 1107 q 523 977 577 1059 q 423 842 469 895 l 378 842 l 378 859 z "},"ή":{"ha":782,"x_min":52,"x_max":701,"o":"m 446 -334 l 619 469 q 633 575 633 532 q 604 660 633 629 q 513 690 574 690 q 370 645 437 690 q 257 518 303 600 q 187 323 212 436 l 118 0 l 52 0 l 208 737 l 264 737 l 239 587 l 243 587 q 525 749 354 749 q 657 705 613 749 q 701 581 701 662 q 685 457 701 533 l 511 -334 l 446 -334 m 443 859 q 522 988 481 913 q 586 1128 562 1063 l 661 1128 l 661 1107 q 588 977 642 1059 q 488 842 534 895 l 443 842 l 443 859 z "},"ί":{"ha":379,"x_min":76,"x_max":430,"o":"m 229 46 q 317 60 266 46 l 317 3 q 216 -14 260 -14 q 112 25 149 -14 q 76 131 76 64 q 96 271 76 187 l 195 737 l 262 737 l 158 252 q 142 140 142 182 q 229 46 142 46 m 212 859 q 291 988 250 913 q 355 1128 331 1063 l 430 1128 l 430 1107 q 356 977 410 1059 q 256 842 302 895 l 212 842 l 212 859 z "},"ΰ":{"ha":772,"x_min":96,"x_max":720,"o":"m 328 -14 q 157 48 218 -14 q 96 221 96 111 q 121 404 96 292 l 192 737 l 261 737 l 192 412 q 169 287 172 317 q 165 227 165 258 q 209 91 165 137 q 336 45 252 45 q 571 220 492 45 q 650 737 650 395 l 720 737 q 328 -14 720 -14 m 581 928 q 594 983 581 963 q 632 1003 608 1003 q 667 958 667 1003 q 653 902 667 923 q 616 882 640 882 q 581 928 581 882 m 300 928 q 314 983 300 963 q 351 1003 328 1003 q 386 958 386 1003 q 373 902 386 923 q 336 882 359 882 q 309 894 319 882 q 300 928 300 906 m 450 953 q 503 1062 477 1002 q 541 1164 529 1123 l 620 1164 l 620 1152 q 564 1049 602 1111 q 489 942 526 987 l 450 942 l 450 953 z "},"α":{"ha":771,"x_min":69,"x_max":768,"o":"m 444 749 q 570 710 521 749 q 637 593 619 671 l 642 593 q 713 737 677 690 l 768 737 q 716 613 744 696 q 665 424 688 530 q 611 159 616 191 q 607 111 607 127 q 659 45 607 45 q 722 60 685 45 l 722 7 q 639 -14 682 -14 q 563 17 587 -14 q 539 96 539 47 q 547 186 539 133 l 543 186 q 260 -14 432 -14 q 69 240 69 -14 q 120 495 69 374 q 256 683 171 616 q 444 749 341 749 m 275 47 q 398 89 338 47 q 506 201 459 131 q 577 355 552 272 q 602 503 602 439 q 584 598 602 556 q 532 666 566 641 q 446 690 497 690 q 294 635 361 690 q 182 468 226 579 q 139 248 139 357 q 173 96 139 144 q 275 47 207 47 z "},"β":{"ha":781,"x_min":-21,"x_max":753,"o":"m 522 1063 q 690 1003 627 1063 q 753 840 753 943 q 722 701 753 762 q 638 602 692 640 q 513 553 584 564 q 644 466 597 532 q 690 304 690 401 q 651 140 690 212 q 540 27 612 67 q 371 -14 468 -14 q 284 -4 324 -14 q 211 21 244 5 q 131 71 178 36 l 87 -130 l 43 -334 l -21 -334 l 215 764 q 324 992 249 922 q 522 1063 399 1063 m 513 1004 q 401 977 448 1004 q 326 898 355 949 q 277 751 296 846 l 143 127 q 250 67 191 90 q 368 45 310 45 q 552 114 484 45 q 621 300 621 182 q 375 526 621 526 l 339 526 l 350 582 l 390 582 q 608 647 533 582 q 684 836 684 711 q 638 960 684 916 q 513 1004 593 1004 z "},"γ":{"ha":599,"x_min":81,"x_max":675,"o":"m 150 -334 l 81 -334 q 208 9 99 -194 l 83 737 l 151 737 l 221 306 q 252 74 234 229 l 254 74 q 368 297 301 176 l 607 737 l 675 737 l 290 31 q 150 -334 170 -187 z "},"δ":{"ha":743,"x_min":53,"x_max":739,"o":"m 425 650 q 286 868 286 755 q 349 1009 286 956 q 513 1063 411 1063 q 739 985 622 1063 l 708 932 q 505 1004 600 1004 q 395 967 435 1004 q 355 869 355 929 q 367 810 355 838 q 401 756 379 783 q 485 679 424 730 q 591 573 556 620 q 643 471 625 526 q 661 351 661 416 q 617 164 661 251 q 495 32 572 77 q 318 -14 417 -14 q 124 59 196 -14 q 53 250 53 132 q 425 650 53 559 m 325 45 q 466 84 406 45 q 559 194 526 124 q 591 351 591 264 q 564 492 591 429 q 471 608 536 554 q 204 476 286 562 q 122 257 122 389 q 176 101 122 157 q 325 45 229 45 z "},"ε":{"ha":570,"x_min":40,"x_max":595,"o":"m 421 355 l 345 355 q 170 310 231 355 q 110 180 110 265 q 152 80 110 116 q 273 45 195 45 q 392 61 329 45 q 503 104 456 78 l 503 41 q 395 2 456 18 q 268 -14 333 -14 q 101 37 161 -14 q 40 175 40 87 q 96 322 40 264 q 250 395 151 380 l 250 397 q 172 451 201 414 q 142 543 142 488 q 212 693 142 637 q 399 749 281 749 q 595 704 509 749 l 568 646 q 487 677 534 665 q 397 689 439 689 q 259 651 307 689 q 211 545 211 614 q 254 450 211 483 q 375 418 296 418 l 433 418 l 421 355 z "},"ζ":{"ha":614,"x_min":79,"x_max":714,"o":"m 79 261 q 205 587 79 415 q 631 1003 332 759 q 475 999 566 999 l 293 999 l 306 1055 l 714 1055 l 701 999 l 572 882 q 329 646 418 747 q 194 451 239 545 q 150 269 150 357 q 165 173 150 212 q 213 107 181 134 q 319 50 244 81 q 418 1 389 22 q 462 -46 448 -20 q 476 -109 476 -73 q 452 -195 476 -152 q 368 -297 429 -239 l 289 -297 q 380 -199 350 -241 q 411 -118 411 -157 q 386 -59 411 -84 q 281 -4 361 -35 q 125 98 172 36 q 79 261 79 160 z "},"η":{"ha":782,"x_min":52,"x_max":701,"o":"m 446 -334 l 619 469 q 633 575 633 532 q 604 660 633 629 q 513 690 574 690 q 370 645 437 690 q 257 518 303 600 q 187 323 212 436 l 118 0 l 52 0 l 208 737 l 264 737 l 239 587 l 243 587 q 525 749 354 749 q 657 705 613 749 q 701 581 701 662 q 685 457 701 533 l 511 -334 l 446 -334 z "},"θ":{"ha":732,"x_min":83,"x_max":736,"o":"m 319 45 q 512 159 434 45 q 644 522 591 273 l 172 522 q 156 415 164 485 q 149 298 149 345 q 190 107 149 170 q 319 45 232 45 m 503 1014 q 184 583 278 1014 l 654 583 q 672 775 672 685 q 631 956 672 899 q 503 1014 591 1014 m 313 -14 q 140 63 197 -14 q 83 294 83 140 q 103 507 83 390 q 161 738 122 623 q 251 926 199 853 q 367 1035 302 1000 q 511 1071 431 1071 q 736 778 736 1071 q 717 567 736 688 q 660 329 698 446 q 572 137 621 211 q 458 24 522 62 q 313 -14 394 -14 z "},"ι":{"ha":379,"x_min":82,"x_max":323,"o":"m 235 46 q 323 60 272 46 l 323 3 q 222 -14 267 -14 q 118 25 155 -14 q 82 131 82 64 q 102 271 82 187 l 201 737 l 268 737 l 164 252 q 149 140 149 182 q 235 46 149 46 z "},"κ":{"ha":640,"x_min":52,"x_max":681,"o":"m 183 323 l 596 737 l 681 737 l 359 419 l 561 0 l 489 0 l 310 379 l 171 252 l 117 0 l 52 0 l 207 737 l 272 737 l 228 526 l 180 323 l 183 323 z "},"λ":{"ha":607,"x_min":-78,"x_max":576,"o":"m 358 654 q 273 492 325 582 l -8 0 l -78 0 q 135 369 27 184 q 349 739 243 553 l 335 869 q 301 974 328 941 q 214 1007 273 1007 q 143 996 187 1007 l 138 1051 q 222 1064 172 1064 q 345 1021 303 1064 q 397 878 387 979 l 472 123 q 489 60 477 81 q 530 40 502 40 q 576 49 552 40 l 576 -4 q 517 -14 550 -14 q 439 16 464 -14 q 408 110 414 45 l 376 446 q 363 654 366 561 l 358 654 z "},"μ":{"ha":794,"x_min":-20,"x_max":743,"o":"m 161 164 q 194 78 161 109 q 286 47 227 47 q 427 91 361 47 q 537 215 492 135 q 606 408 581 295 l 676 737 l 743 737 l 585 0 l 532 0 l 551 139 l 547 139 q 273 -11 436 -11 q 179 11 216 -11 q 127 72 142 33 l 123 72 q 89 -121 111 -18 l 46 -334 l -20 -334 l 210 737 l 278 737 l 175 264 q 161 164 161 199 z "},"ν":{"ha":635,"x_min":82,"x_max":669,"o":"m 82 737 l 149 737 l 196 350 q 227 61 214 197 q 461 348 363 174 q 603 737 559 522 l 669 737 q 519 323 623 503 q 245 0 416 143 l 178 0 l 82 737 z "},"ξ":{"ha":593,"x_min":40,"x_max":656,"o":"m 539 530 l 490 530 q 290 496 379 530 q 156 401 200 461 q 111 258 111 341 q 147 142 111 189 q 279 62 183 96 q 393 13 362 33 q 440 -37 425 -8 q 456 -107 456 -66 q 430 -195 456 -149 q 357 -282 404 -241 l 275 -282 q 385 -106 385 -193 q 363 -52 385 -73 q 294 -12 342 -30 q 169 40 210 19 q 101 88 128 60 q 57 155 73 115 q 40 253 40 195 q 121 452 40 372 q 347 559 202 533 l 347 562 q 226 623 267 577 q 184 742 184 669 q 253 903 184 833 q 446 1004 321 972 q 309 999 368 999 l 235 999 l 248 1055 l 656 1055 l 642 999 l 619 999 q 439 963 530 999 q 299 870 347 926 q 250 746 250 814 q 314 627 250 667 q 500 587 378 587 l 553 587 l 539 530 z "},"ο":{"ha":762,"x_min":66,"x_max":696,"o":"m 440 751 q 629 678 562 751 q 696 475 696 604 q 647 225 696 341 q 515 47 599 109 q 321 -14 431 -14 q 131 61 196 -14 q 66 273 66 135 q 116 516 66 403 q 250 690 165 629 q 440 751 334 751 m 435 693 q 283 640 351 693 q 176 487 216 587 q 136 277 136 388 q 328 45 136 45 q 480 97 414 45 q 587 252 547 150 q 627 476 627 354 q 577 637 627 581 q 435 693 528 693 z "},"π":{"ha":750,"x_min":61,"x_max":798,"o":"m 587 41 q 648 50 616 41 l 648 -5 q 578 -14 619 -14 q 500 16 529 -14 q 471 87 471 45 q 485 192 471 130 l 589 682 l 272 682 l 127 0 l 61 0 l 205 682 l 61 682 l 71 725 l 197 737 l 798 737 l 785 682 l 654 682 l 549 179 q 538 97 538 128 q 551 57 538 73 q 587 41 564 41 z "},"ρ":{"ha":771,"x_min":-22,"x_max":704,"o":"m 453 751 q 637 679 570 751 q 704 475 704 606 q 655 222 704 338 q 524 46 606 106 q 338 -14 442 -14 q 229 5 277 -14 q 129 72 181 24 q 45 -334 110 -31 l -22 -334 l 147 463 q 453 751 212 751 m 443 693 q 294 632 351 693 q 204 425 236 571 l 142 131 q 336 45 228 45 q 488 97 422 45 q 594 253 553 150 q 635 476 635 356 q 585 637 635 581 q 443 693 536 693 z "},"ς":{"ha":623,"x_min":69,"x_max":614,"o":"m 595 659 q 447 690 520 690 q 289 637 359 690 q 179 489 218 584 q 139 281 139 393 q 155 175 139 217 q 206 102 172 132 q 321 41 241 73 q 445 -29 413 6 q 476 -121 476 -64 q 378 -297 476 -208 l 296 -297 q 377 -212 347 -253 q 407 -132 407 -172 q 381 -66 407 -91 q 283 -14 356 -41 q 117 97 165 30 q 69 279 69 164 q 120 523 69 412 q 256 691 171 634 q 450 749 342 749 q 614 720 539 749 l 595 659 z "},"σ":{"ha":771,"x_min":71,"x_max":808,"o":"m 688 429 q 598 104 688 221 q 346 -14 509 -14 q 143 70 216 -14 q 71 301 71 153 q 123 535 71 435 q 270 686 175 635 q 496 737 364 737 l 808 737 l 796 682 l 633 682 q 672 565 657 635 q 688 429 688 494 m 498 682 q 234 584 328 682 q 140 309 140 486 q 196 113 140 181 q 355 45 252 45 q 495 90 436 45 q 586 220 554 134 q 618 433 618 307 q 605 559 618 490 q 572 682 593 629 l 498 682 z "},"τ":{"ha":522,"x_min":49,"x_max":576,"o":"m 321 46 q 424 64 362 46 l 424 5 q 375 -6 412 1 q 309 -14 337 -14 q 205 24 241 -14 q 168 131 168 61 q 187 271 168 186 l 275 682 l 49 682 l 58 725 l 183 737 l 576 737 l 566 682 l 342 682 l 250 252 q 235 140 235 179 q 256 71 235 96 q 321 46 278 46 z "},"υ":{"ha":772,"x_min":96,"x_max":720,"o":"m 328 -14 q 157 48 218 -14 q 96 221 96 111 q 121 404 96 292 l 192 737 l 261 737 l 192 412 q 169 287 172 317 q 165 227 165 258 q 209 91 165 137 q 336 45 252 45 q 571 220 492 45 q 650 737 650 395 l 720 737 q 328 -14 720 -14 z "},"φ":{"ha":864,"x_min":40,"x_max":825,"o":"m 311 -16 q 111 79 182 -2 q 40 296 40 161 q 92 533 40 422 q 260 750 144 643 l 302 707 q 155 518 201 614 q 109 300 109 422 q 164 119 109 184 q 323 43 219 53 l 432 546 q 506 699 453 647 q 637 751 559 751 q 776 687 726 751 q 825 510 825 623 q 771 238 825 357 q 615 54 717 119 q 375 -17 514 -12 l 309 -334 l 243 -334 l 311 -16 m 760 503 q 727 642 760 593 q 635 690 694 690 q 545 652 579 690 q 493 533 510 614 l 387 43 q 587 108 503 50 q 715 268 671 166 q 760 503 760 370 z "},"χ":{"ha":673,"x_min":-146,"x_max":718,"o":"m 151 745 q 219 730 194 745 q 258 689 244 715 q 282 590 273 662 l 319 283 l 646 737 l 718 737 l 334 203 l 380 -153 q 410 -247 389 -220 q 472 -273 432 -273 q 530 -264 504 -273 l 530 -319 q 454 -334 494 -334 q 317 -178 334 -334 l 278 142 l -65 -334 l -146 -334 l 265 224 l 221 571 q 205 647 214 629 q 182 675 197 666 q 143 685 167 685 q 90 673 117 685 l 78 730 q 114 740 92 736 q 151 745 137 745 z "},"ψ":{"ha":925,"x_min":104,"x_max":872,"o":"m 644 1055 q 429 53 484 313 q 713 228 623 64 q 803 737 803 391 l 872 737 q 822 314 872 472 q 670 78 771 156 q 416 -5 568 1 l 347 -334 l 283 -334 l 353 -5 q 168 76 231 6 q 104 265 104 146 q 125 427 104 330 l 192 737 l 261 737 l 195 429 q 174 272 174 335 q 366 53 174 73 q 491 630 446 424 q 581 1055 536 837 l 644 1055 z "},"ω":{"ha":925,"x_min":46,"x_max":878,"o":"m 229 -14 q 94 51 141 -14 q 46 233 46 115 q 92 492 46 363 q 231 737 138 621 l 300 737 q 158 482 204 604 q 113 236 113 360 q 144 94 113 142 q 239 46 176 46 q 339 92 297 46 q 406 244 382 138 l 454 469 l 519 469 l 475 260 q 463 164 463 199 q 491 77 463 107 q 572 46 519 46 q 745 173 679 46 q 811 500 811 299 q 790 737 811 635 l 852 737 q 870 631 862 699 q 878 497 878 564 q 837 230 878 351 q 727 47 796 108 q 567 -14 658 -14 q 466 18 507 -14 q 412 107 424 50 q 229 -14 349 -14 z "},"ϊ":{"ha":379,"x_min":82,"x_max":447,"o":"m 235 46 q 323 60 272 46 l 323 3 q 222 -14 267 -14 q 118 25 155 -14 q 82 131 82 64 q 102 271 82 187 l 201 737 l 268 737 l 164 252 q 149 140 149 182 q 235 46 149 46 m 358 926 q 372 979 358 960 q 410 999 386 999 q 447 956 447 999 q 433 903 447 923 q 395 884 418 884 q 358 926 358 884 m 125 926 q 139 979 125 960 q 177 999 153 999 q 214 956 214 999 q 199 903 214 923 q 162 884 185 884 q 125 926 125 884 z "},"ϋ":{"ha":772,"x_min":96,"x_max":720,"o":"m 328 -14 q 157 48 218 -14 q 96 221 96 111 q 121 404 96 292 l 192 737 l 261 737 l 192 412 q 169 287 172 317 q 165 227 165 258 q 209 91 165 137 q 336 45 252 45 q 571 220 492 45 q 650 737 650 395 l 720 737 q 328 -14 720 -14 m 562 926 q 576 979 562 960 q 614 999 590 999 q 651 956 651 999 q 637 903 651 923 q 600 884 623 884 q 562 926 562 884 m 329 926 q 343 979 329 960 q 381 999 357 999 q 418 956 418 999 q 404 903 418 923 q 366 884 389 884 q 329 926 329 884 z "},"ό":{"ha":762,"x_min":66,"x_max":696,"o":"m 440 751 q 629 678 562 751 q 696 475 696 604 q 647 225 696 341 q 515 47 599 109 q 321 -14 431 -14 q 131 61 196 -14 q 66 273 66 135 q 116 516 66 403 q 250 690 165 629 q 440 751 334 751 m 435 693 q 283 640 351 693 q 176 487 216 587 q 136 277 136 388 q 328 45 136 45 q 480 97 414 45 q 587 252 547 150 q 627 476 627 354 q 577 637 627 581 q 435 693 528 693 m 435 859 q 514 988 474 913 q 578 1128 555 1063 l 654 1128 l 654 1107 q 580 977 634 1059 q 480 842 526 895 l 435 842 l 435 859 z "},"ύ":{"ha":772,"x_min":96,"x_max":720,"o":"m 328 -14 q 157 48 218 -14 q 96 221 96 111 q 121 404 96 292 l 192 737 l 261 737 l 192 412 q 169 287 172 317 q 165 227 165 258 q 209 91 165 137 q 336 45 252 45 q 571 220 492 45 q 650 737 650 395 l 720 737 q 328 -14 720 -14 m 425 859 q 504 988 464 913 q 568 1128 545 1063 l 644 1128 l 644 1107 q 570 977 624 1059 q 470 842 516 895 l 425 842 l 425 859 z "},"ώ":{"ha":925,"x_min":46,"x_max":878,"o":"m 229 -14 q 94 51 141 -14 q 46 233 46 115 q 92 492 46 363 q 231 737 138 621 l 300 737 q 158 482 204 604 q 113 236 113 360 q 144 94 113 142 q 239 46 176 46 q 339 92 297 46 q 406 244 382 138 l 454 469 l 519 469 l 475 260 q 463 164 463 199 q 491 77 463 107 q 572 46 519 46 q 745 173 679 46 q 811 500 811 299 q 790 737 811 635 l 852 737 q 870 631 862 699 q 878 497 878 564 q 837 230 878 351 q 727 47 796 108 q 567 -14 658 -14 q 466 18 507 -14 q 412 107 424 50 q 229 -14 349 -14 m 537 859 q 616 988 576 913 q 680 1128 656 1063 l 755 1128 l 755 1107 q 682 977 736 1059 q 582 842 628 895 l 537 842 l 537 859 z "},"Ё":{"ha":724,"x_min":69,"x_max":772,"o":"m 562 0 l 69 0 l 279 991 l 772 991 l 758 928 l 335 928 l 256 553 l 656 553 l 642 489 l 243 489 l 151 64 l 576 64 l 562 0 m 612 1156 q 626 1208 612 1189 q 664 1228 640 1228 q 701 1185 701 1228 q 686 1133 701 1152 q 649 1113 672 1113 q 612 1156 612 1113 m 378 1156 q 392 1208 378 1189 q 431 1228 406 1228 q 467 1185 467 1228 q 453 1133 467 1152 q 416 1113 439 1113 q 378 1156 378 1113 z "},"Ђ":{"ha":876,"x_min":134,"x_max":770,"o":"m 496 -9 q 408 0 456 -9 l 408 66 q 441 59 418 64 q 496 54 465 54 q 620 95 578 54 q 681 237 663 136 l 692 298 q 700 389 700 342 q 660 496 700 463 q 530 530 619 530 l 326 530 l 215 0 l 146 0 l 342 928 l 134 928 l 147 991 l 724 991 l 711 928 l 411 928 l 339 591 l 546 591 q 714 539 659 591 q 770 396 770 488 q 760 296 770 345 l 743 208 q 662 44 722 97 q 496 -9 602 -9 z "},"Ѓ":{"ha":665,"x_min":69,"x_max":760,"o":"m 139 0 l 69 0 l 279 991 l 760 991 l 746 928 l 336 928 l 139 0 m 450 1085 q 552 1181 495 1120 q 640 1293 610 1243 l 733 1293 l 733 1278 q 626 1170 699 1233 q 496 1071 554 1107 l 450 1071 l 450 1085 z "},"Є":{"ha":793,"x_min":115,"x_max":860,"o":"m 652 942 q 373 840 488 942 q 211 558 258 737 l 669 558 l 657 494 l 197 494 q 186 366 186 437 q 261 131 186 212 q 476 49 337 49 q 682 83 571 49 l 682 20 q 468 -14 576 -14 q 206 83 297 -14 q 115 363 115 180 q 184 688 115 538 q 374 922 252 838 q 652 1006 496 1006 q 860 960 772 1006 l 829 899 q 652 942 753 942 z "},"Ѕ":{"ha":692,"x_min":25,"x_max":703,"o":"m 607 273 q 563 121 607 188 q 441 20 518 54 q 258 -14 363 -14 q 141 -2 199 -14 q 25 37 84 9 l 25 111 q 261 49 136 49 q 461 107 389 49 q 534 265 534 166 q 523 336 534 307 q 487 389 511 366 q 426 435 463 413 q 336 486 388 458 q 194 597 235 538 q 154 737 154 657 q 194 878 154 817 q 306 972 234 939 q 467 1006 378 1006 q 589 994 534 1006 q 703 953 644 982 l 681 889 q 578 932 636 916 q 467 947 520 947 q 291 891 356 947 q 225 743 225 836 q 258 628 225 673 q 382 538 292 583 q 527 450 486 484 q 587 373 567 415 q 607 273 607 331 z "},"Ј":{"ha":323,"x_min":-220,"x_max":339,"o":"m -122 -244 q -182 -239 -155 -244 q -220 -228 -209 -233 l -212 -165 q -119 -179 -174 -179 q 58 -16 25 -179 l 268 991 l 339 991 l 126 -20 q 41 -190 102 -135 q -122 -244 -20 -244 z "},"Љ":{"ha":1232,"x_min":-57,"x_max":1149,"o":"m 1149 315 q 1054 82 1149 164 q 789 0 959 0 l 543 0 l 739 928 l 488 928 l 460 835 q 313 356 371 528 q 217 116 256 184 q 130 16 178 47 q 12 -16 81 -16 q -57 -4 -24 -16 l -57 61 q 12 50 -26 50 q 102 80 65 50 q 173 177 139 110 q 268 437 206 245 q 435 991 330 629 l 823 991 l 729 550 l 886 550 q 1081 489 1013 550 q 1149 315 1149 429 m 717 489 l 625 61 l 787 61 q 1001 123 926 61 q 1076 311 1076 186 q 1026 446 1076 402 q 873 489 975 489 l 717 489 z "},"Њ":{"ha":1284,"x_min":69,"x_max":1202,"o":"m 1202 315 q 1107 82 1202 164 q 842 0 1012 0 l 596 0 l 699 488 l 240 488 l 139 0 l 69 0 l 279 991 l 349 991 l 254 551 l 713 551 l 806 991 l 876 991 l 782 551 l 939 551 q 1133 490 1065 551 q 1202 315 1202 429 m 770 488 l 677 61 l 840 61 q 1054 123 979 61 q 1129 311 1129 186 q 1079 444 1129 401 q 926 488 1029 488 l 770 488 z "},"Ћ":{"ha":890,"x_min":134,"x_max":771,"o":"m 627 0 l 684 257 q 703 382 703 336 q 662 495 703 460 q 530 530 622 530 l 326 530 l 215 0 l 146 0 l 342 928 l 134 928 l 147 991 l 724 991 l 711 928 l 411 928 l 339 591 l 546 591 q 771 392 771 591 q 767 336 771 364 q 693 0 762 308 l 627 0 z "},"Ќ":{"ha":750,"x_min":69,"x_max":872,"o":"m 705 0 l 618 0 l 241 494 l 139 0 l 69 0 l 279 991 l 349 991 l 241 498 l 775 991 l 872 991 l 323 494 l 705 0 m 489 1085 q 591 1181 534 1120 q 679 1293 648 1243 l 772 1293 l 772 1278 q 665 1170 737 1233 q 534 1071 593 1107 l 489 1071 l 489 1085 z "},"Ў":{"ha":777,"x_min":-16,"x_max":904,"o":"m 90 -14 q -16 7 27 -14 l -16 82 q 94 57 30 57 q 232 105 170 57 q 374 285 294 154 l 158 991 l 229 991 l 361 550 q 421 334 370 522 q 481 439 444 375 q 825 991 519 504 l 904 991 l 414 218 q 262 41 338 96 q 90 -14 186 -14 m 765 1265 q 690 1122 753 1173 q 525 1071 627 1071 q 386 1110 430 1071 q 341 1215 341 1149 q 350 1265 341 1241 l 406 1265 q 400 1223 400 1235 q 429 1153 400 1177 q 526 1129 458 1129 q 701 1265 683 1129 l 765 1265 z "},"Џ":{"ha":932,"x_min":69,"x_max":930,"o":"m 279 991 l 347 991 l 151 65 l 665 65 l 861 991 l 930 991 l 721 0 l 433 0 l 382 -241 l 314 -241 l 367 0 l 69 0 l 279 991 z "},"А":{"ha":718,"x_min":-75,"x_max":664,"o":"m 546 353 l 199 353 l 4 0 l -75 0 l 482 996 l 528 996 l 664 0 l 593 0 l 546 353 m 538 415 l 511 612 q 485 885 490 777 q 441 797 465 842 q 233 415 418 751 l 538 415 z "},"Б":{"ha":754,"x_min":69,"x_max":741,"o":"m 675 315 q 581 82 675 165 q 315 0 486 0 l 69 0 l 279 991 l 741 991 l 726 928 l 336 928 l 256 550 l 412 550 q 607 489 539 550 q 675 315 675 429 m 243 489 l 151 61 l 314 61 q 528 123 452 61 q 603 311 603 186 q 552 446 603 402 q 400 489 502 489 l 243 489 z "},"В":{"ha":815,"x_min":69,"x_max":802,"o":"m 279 991 l 536 991 q 733 935 665 991 q 802 771 802 878 q 741 602 802 667 q 568 518 680 537 l 568 515 q 696 438 653 494 q 739 300 739 382 q 644 80 739 161 q 379 0 549 0 l 69 0 l 279 991 m 256 550 l 444 550 q 656 605 584 550 q 729 766 729 660 q 676 889 729 847 q 521 930 623 930 l 336 930 l 256 550 m 243 489 l 151 61 l 383 61 q 593 120 519 61 q 667 294 667 180 q 606 441 667 393 q 419 489 545 489 l 243 489 z "},"Г":{"ha":665,"x_min":69,"x_max":760,"o":"m 139 0 l 69 0 l 279 991 l 760 991 l 746 928 l 336 928 l 139 0 z "},"Д":{"ha":790,"x_min":-111,"x_max":833,"o":"m 751 64 l 685 -241 l 614 -241 l 668 0 l 12 0 l -43 -241 l -111 -241 l -40 64 l 14 64 q 249 440 134 204 q 468 991 363 677 l 833 991 l 636 64 l 751 64 m 517 928 q 308 409 418 633 q 94 64 197 184 l 567 64 l 750 928 l 517 928 z "},"Е":{"ha":724,"x_min":69,"x_max":772,"o":"m 562 0 l 69 0 l 279 991 l 772 991 l 758 928 l 335 928 l 256 553 l 656 553 l 642 489 l 243 489 l 151 64 l 576 64 l 562 0 z "},"Ж":{"ha":1011,"x_min":-60,"x_max":1143,"o":"m 435 515 l 147 991 l 232 991 l 513 514 l 612 991 l 682 991 l 579 513 l 1048 991 l 1143 991 l 657 500 l 951 0 l 868 0 l 576 500 l 472 0 l 403 0 l 510 501 l 36 0 l -60 0 l 435 515 z "},"З":{"ha":692,"x_min":-21,"x_max":669,"o":"m 669 793 q 608 614 669 684 q 427 515 546 544 l 427 513 q 562 438 515 497 q 608 283 608 378 q 563 126 608 195 q 436 21 517 56 q 243 -14 355 -14 q -21 40 100 -14 l -21 119 q 252 47 103 47 q 465 111 390 47 q 539 288 539 174 q 286 482 539 482 l 163 482 l 175 547 l 296 547 q 456 578 385 547 q 564 662 528 608 q 599 786 599 715 q 553 905 599 863 q 424 947 508 947 q 193 867 310 947 l 157 918 q 432 1006 286 1006 q 607 950 544 1006 q 669 793 669 895 z "},"И":{"ha":928,"x_min":69,"x_max":935,"o":"m 279 991 l 349 991 l 222 396 q 158 121 169 161 l 860 991 l 935 991 l 725 0 l 657 0 q 782 594 739 386 q 850 886 826 802 l 138 0 l 69 0 l 279 991 z "},"Й":{"ha":928,"x_min":69,"x_max":935,"o":"m 279 991 l 349 991 l 222 396 q 158 121 169 161 l 860 991 l 935 991 l 725 0 l 657 0 q 782 594 739 386 q 850 886 826 802 l 138 0 l 69 0 l 279 991 m 850 1265 q 775 1122 838 1173 q 610 1071 711 1071 q 470 1110 515 1071 q 426 1215 426 1149 q 435 1265 426 1241 l 490 1265 q 485 1223 485 1235 q 514 1153 485 1177 q 611 1129 543 1129 q 786 1265 768 1129 l 850 1265 z "},"К":{"ha":750,"x_min":69,"x_max":872,"o":"m 705 0 l 618 0 l 241 494 l 139 0 l 69 0 l 279 991 l 349 991 l 241 498 l 775 991 l 872 991 l 323 494 l 705 0 z "},"Л":{"ha":859,"x_min":-57,"x_max":864,"o":"m 488 928 l 460 835 q 313 356 371 528 q 217 116 256 184 q 130 16 178 47 q 12 -16 81 -16 q -57 -4 -24 -16 l -57 61 q 12 50 -26 50 q 102 80 65 50 q 173 177 139 110 q 268 437 206 245 q 435 991 330 629 l 864 991 l 654 0 l 586 0 l 782 928 l 488 928 z "},"М":{"ha":1132,"x_min":74,"x_max":1122,"o":"m 524 139 l 1021 991 l 1122 991 l 918 0 l 850 0 l 979 611 q 1047 914 1033 861 l 1043 914 l 514 0 l 479 0 l 329 914 l 325 914 q 272 625 311 810 l 139 0 l 74 0 l 283 991 l 380 991 l 519 139 l 524 139 z "},"Н":{"ha":926,"x_min":69,"x_max":930,"o":"m 721 0 l 653 0 l 755 488 l 240 488 l 139 0 l 69 0 l 279 991 l 349 991 l 254 551 l 770 551 l 863 991 l 930 991 l 721 0 z "},"О":{"ha":993,"x_min":117,"x_max":951,"o":"m 951 618 q 888 291 951 445 q 717 62 824 138 q 469 -14 610 -14 q 208 87 300 -14 q 117 379 117 189 q 180 703 117 557 q 353 927 243 849 q 606 1006 463 1006 q 862 905 773 1006 q 951 618 951 804 m 596 942 q 387 873 478 942 q 241 671 296 805 q 187 389 187 538 q 261 136 187 222 q 478 49 336 49 q 682 116 593 49 q 824 319 770 182 q 878 611 878 456 q 807 858 878 774 q 596 942 736 942 z "},"П":{"ha":932,"x_min":69,"x_max":930,"o":"m 721 0 l 653 0 l 848 926 l 335 926 l 139 0 l 69 0 l 279 991 l 930 991 l 721 0 z "},"Р":{"ha":777,"x_min":69,"x_max":777,"o":"m 777 747 q 363 408 777 408 l 227 408 l 139 0 l 69 0 l 279 991 l 493 991 q 703 929 630 991 q 777 747 777 866 m 237 471 l 367 471 q 620 536 538 471 q 703 743 703 602 q 479 929 703 929 l 336 929 l 237 471 z "},"С":{"ha":793,"x_min":115,"x_max":860,"o":"m 652 942 q 413 871 518 942 q 247 665 309 800 q 186 366 186 529 q 261 131 186 213 q 476 49 336 49 q 682 83 571 49 l 682 20 q 468 -14 576 -14 q 206 85 297 -14 q 115 363 115 183 q 186 694 115 543 q 379 925 257 844 q 652 1006 501 1006 q 860 960 772 1006 l 829 899 q 745 930 792 919 q 652 942 698 942 z "},"Т":{"ha":668,"x_min":131,"x_max":804,"o":"m 297 0 l 228 0 l 424 928 l 131 928 l 144 991 l 804 991 l 791 928 l 493 928 l 297 0 z "},"У":{"ha":777,"x_min":-16,"x_max":904,"o":"m 90 -14 q -16 7 27 -14 l -16 82 q 94 57 30 57 q 232 105 170 57 q 374 285 294 154 l 158 991 l 229 991 l 361 550 q 421 334 370 522 q 481 439 444 375 q 825 991 519 504 l 904 991 l 414 218 q 262 41 338 96 q 90 -14 186 -14 z "},"Ф":{"ha":981,"x_min":106,"x_max":945,"o":"m 380 -14 l 414 144 q 247 192 316 150 q 142 301 178 233 q 106 457 106 369 q 162 673 106 577 q 322 821 218 769 q 570 876 426 872 l 597 1006 l 665 1006 l 639 876 q 866 788 787 867 q 945 574 945 710 q 888 350 945 447 q 727 201 831 252 q 485 144 623 149 l 450 -14 l 380 -14 m 497 207 q 775 307 676 212 q 873 570 873 401 q 811 744 873 680 q 625 812 749 808 l 497 207 m 555 812 q 354 768 439 810 q 222 646 269 726 q 175 463 175 566 q 243 277 175 345 q 428 207 311 210 l 555 812 z "},"Х":{"ha":659,"x_min":-92,"x_max":779,"o":"m 596 0 l 524 0 l 351 460 l -5 0 l -92 0 l 321 519 l 136 991 l 208 991 l 371 567 l 699 991 l 779 991 l 403 504 l 596 0 z "},"Ц":{"ha":965,"x_min":69,"x_max":930,"o":"m 863 991 l 930 991 l 734 64 l 848 64 l 782 -241 l 711 -241 l 765 0 l 69 0 l 279 991 l 347 991 l 151 64 l 665 64 l 863 991 z "},"Ч":{"ha":808,"x_min":139,"x_max":812,"o":"m 534 0 l 624 421 q 347 359 475 359 q 194 407 248 359 q 139 543 139 454 q 154 654 139 587 l 225 991 l 294 991 l 225 664 q 208 547 208 585 q 247 453 208 485 q 357 421 286 421 q 636 482 489 421 l 745 991 l 812 991 l 603 0 l 534 0 z "},"Ш":{"ha":1292,"x_min":69,"x_max":1301,"o":"m 69 0 l 279 991 l 347 991 l 151 64 l 558 64 l 755 991 l 823 991 l 628 64 l 1036 64 l 1234 991 l 1301 991 l 1092 0 l 69 0 z "},"Щ":{"ha":1336,"x_min":69,"x_max":1301,"o":"m 1219 64 l 1153 -241 l 1082 -241 l 1136 0 l 69 0 l 279 991 l 347 991 l 151 64 l 558 64 l 755 991 l 823 991 l 628 64 l 1036 64 l 1234 991 l 1301 991 l 1105 64 l 1219 64 z "},"Ъ":{"ha":856,"x_min":131,"x_max":772,"o":"m 772 315 q 677 82 772 164 q 412 0 583 0 l 167 0 l 363 928 l 131 928 l 144 991 l 447 991 l 353 550 l 510 550 q 705 489 637 550 q 772 315 772 429 m 340 489 l 249 61 l 411 61 q 625 123 550 61 q 700 311 700 186 q 649 446 700 402 q 497 489 599 489 l 340 489 z "},"Ы":{"ha":1042,"x_min":69,"x_max":1053,"o":"m 675 315 q 581 82 675 165 q 315 0 486 0 l 69 0 l 279 991 l 350 991 l 256 550 l 412 550 q 607 489 539 550 q 675 315 675 429 m 243 489 l 151 61 l 314 61 q 528 123 452 61 q 603 311 603 186 q 552 446 603 402 q 400 489 502 489 l 243 489 m 843 0 l 774 0 l 983 991 l 1053 991 l 843 0 z "},"Ь":{"ha":758,"x_min":69,"x_max":675,"o":"m 675 315 q 581 82 675 165 q 315 0 486 0 l 69 0 l 279 991 l 350 991 l 256 550 l 412 550 q 607 489 539 550 q 675 315 675 429 m 243 489 l 151 61 l 314 61 q 528 123 452 61 q 603 311 603 186 q 552 446 603 402 q 400 489 502 489 l 243 489 z "},"Э":{"ha":793,"x_min":9,"x_max":747,"o":"m 248 49 q 526 163 420 49 q 665 497 632 277 l 214 497 l 225 562 l 672 562 l 673 611 q 602 858 673 773 q 392 942 530 942 q 184 899 305 942 l 167 962 q 299 997 244 988 q 401 1006 355 1006 q 659 905 571 1006 q 747 618 747 804 q 683 284 747 433 q 507 61 618 135 q 248 -14 395 -14 q 9 37 108 -14 l 9 111 q 248 49 134 49 z "},"Ю":{"ha":1373,"x_min":69,"x_max":1332,"o":"m 1332 618 q 1272 299 1332 452 q 1104 67 1213 147 q 850 -14 996 -14 q 589 87 680 -14 q 497 379 497 189 q 503 488 497 444 l 240 488 l 139 0 l 69 0 l 279 991 l 349 991 l 254 551 l 514 551 q 607 792 541 689 q 770 950 672 895 q 986 1006 867 1006 q 1243 905 1154 1006 q 1332 618 1332 804 m 977 942 q 768 874 859 942 q 623 671 677 806 q 568 389 568 536 q 643 136 568 222 q 859 49 717 49 q 1062 116 973 49 q 1204 319 1151 182 q 1258 611 1258 456 q 1187 858 1258 774 q 977 942 1116 942 z "},"Я":{"ha":758,"x_min":-35,"x_max":768,"o":"m 399 431 l 50 0 l -35 0 l 326 449 q 214 539 255 476 q 174 682 174 602 q 271 911 174 831 q 543 991 368 991 l 768 991 l 558 0 l 489 0 l 579 431 l 399 431 m 686 929 l 553 929 q 320 867 397 929 q 243 686 243 805 q 298 544 243 596 q 454 492 354 492 l 593 492 l 686 929 z "},"а":{"ha":768,"x_min":69,"x_max":732,"o":"m 444 749 q 633 600 602 749 l 637 600 l 677 737 l 732 737 l 576 0 l 521 0 l 551 186 l 547 186 q 420 38 490 90 q 260 -14 351 -14 q 69 240 69 -14 q 120 495 69 374 q 256 683 171 616 q 444 749 341 749 m 275 47 q 396 90 336 47 q 504 202 456 132 q 576 358 551 273 q 602 503 602 444 q 584 598 602 556 q 532 666 566 641 q 446 690 497 690 q 294 635 361 690 q 182 468 226 579 q 139 248 139 357 q 173 96 139 144 q 275 47 207 47 z "},"б":{"ha":720,"x_min":66,"x_max":751,"o":"m 66 294 q 112 610 66 457 q 233 856 158 763 q 404 981 309 949 q 580 1024 467 1001 q 743 1054 692 1046 l 751 996 l 709 987 q 418 921 501 949 q 261 791 328 889 q 157 534 194 693 l 160 534 q 429 682 281 682 q 588 615 531 682 q 644 421 644 548 q 601 191 644 294 q 484 37 558 87 q 309 -14 409 -14 q 129 66 192 -14 q 66 294 66 145 m 318 45 q 455 92 397 45 q 544 222 513 138 q 575 412 575 305 q 533 571 575 519 q 416 623 490 623 q 283 583 348 623 q 147 453 218 544 q 139 380 143 429 q 135 300 135 332 q 179 107 135 170 q 318 45 224 45 z "},"в":{"ha":722,"x_min":71,"x_max":668,"o":"m 457 749 q 613 701 557 749 q 668 568 668 653 q 618 437 668 488 q 478 367 569 387 l 478 364 q 588 312 549 353 q 628 210 628 272 q 594 95 628 146 q 495 15 559 44 q 340 -14 430 -14 q 140 64 209 -14 q 71 286 71 142 q 120 519 71 412 q 258 688 170 627 q 457 749 347 749 m 139 330 l 138 281 q 192 107 138 166 q 351 47 247 47 q 504 90 449 47 q 558 204 558 132 q 375 330 558 330 l 139 330 m 452 690 q 255 608 339 690 q 144 390 171 526 l 307 390 q 525 434 452 390 q 599 561 599 478 q 561 655 599 621 q 452 690 523 690 z "},"г":{"ha":619,"x_min":53,"x_max":583,"o":"m 157 699 q 273 734 239 727 q 337 745 307 742 q 395 749 367 749 q 535 709 487 749 q 583 596 583 669 q 531 468 583 521 q 350 368 479 415 q 204 304 247 330 q 142 245 162 277 q 122 167 122 212 q 159 76 122 108 q 269 45 197 45 q 492 94 380 45 l 492 33 q 391 1 447 16 q 261 -14 334 -14 q 107 33 162 -14 q 53 164 53 79 q 77 262 53 220 q 151 339 101 304 q 304 414 200 373 q 442 477 405 454 q 497 526 479 500 q 514 587 514 553 q 481 664 514 638 q 386 689 448 689 q 290 676 347 689 q 176 640 234 663 l 157 699 z "},"д":{"ha":754,"x_min":69,"x_max":700,"o":"m 700 661 q 665 406 700 538 q 572 178 631 274 q 439 34 513 81 q 278 -14 364 -14 q 124 54 178 -14 q 69 240 69 122 q 119 481 69 365 q 252 661 170 597 q 435 725 335 725 q 627 583 582 725 l 631 583 q 633 653 633 602 q 584 921 633 833 q 436 1008 535 1008 q 358 995 400 1008 q 290 966 315 982 l 264 1022 q 348 1056 299 1042 q 443 1069 397 1069 q 637 969 574 1069 q 700 661 700 869 m 289 47 q 486 165 398 47 q 614 486 574 283 q 432 667 566 667 q 285 607 353 667 q 178 451 217 548 q 139 248 139 353 q 289 47 139 47 z "},"е":{"ha":629,"x_min":69,"x_max":606,"o":"m 318 -14 q 135 61 201 -14 q 69 268 69 135 q 117 503 69 391 q 250 682 165 616 q 436 749 334 749 q 559 707 513 749 q 606 595 606 666 q 495 408 606 472 q 165 343 384 343 l 143 343 q 139 277 139 313 q 189 106 139 165 q 334 47 239 47 q 521 97 423 47 l 521 33 q 318 -14 426 -14 m 428 690 q 263 612 339 690 q 153 403 186 534 l 186 403 q 536 586 536 403 q 507 661 536 631 q 428 690 477 690 z "},"ж":{"ha":1072,"x_min":-35,"x_max":1125,"o":"m 585 408 l 694 408 q 760 586 713 509 q 876 706 806 663 q 1034 749 945 749 q 1125 737 1086 749 l 1112 675 q 1026 688 1074 688 q 886 636 949 688 q 784 488 823 585 q 746 283 746 391 q 786 105 746 163 q 911 47 826 47 q 987 54 947 47 l 987 -5 q 905 -14 939 -14 q 679 271 679 -14 q 685 349 679 302 l 572 349 l 498 0 l 433 0 l 507 349 l 400 349 q 332 158 380 240 q 215 32 285 77 q 57 -14 145 -14 q -35 -3 6 -14 l -22 60 q 64 47 16 47 q 206 101 142 47 q 307 250 270 155 q 345 452 345 345 q 304 630 345 572 q 179 688 264 688 q 103 681 144 688 l 103 741 q 184 749 152 749 q 411 464 411 749 q 408 408 411 430 l 519 408 l 590 737 l 654 737 l 585 408 z "},"з":{"ha":542,"x_min":-12,"x_max":505,"o":"m 228 418 q 381 458 327 418 q 436 574 436 498 q 401 659 436 627 q 306 690 366 690 q 226 679 264 690 q 138 636 188 667 l 110 690 q 214 736 166 724 q 319 749 261 749 q 456 705 408 749 q 505 582 505 661 q 460 455 505 505 q 334 389 416 405 l 334 386 q 430 330 397 372 q 463 222 463 288 q 428 99 463 153 q 330 16 393 45 q 179 -14 266 -14 q 71 -1 121 -14 q -12 31 20 12 l -12 104 q 184 46 82 46 q 337 93 281 46 q 393 218 393 139 q 350 323 393 291 q 210 355 306 355 l 153 355 l 167 418 l 228 418 z "},"и":{"ha":775,"x_min":74,"x_max":724,"o":"m 258 737 l 155 264 q 140 157 140 192 q 173 77 140 106 q 267 47 205 47 q 407 92 341 47 q 518 219 473 136 q 586 408 564 301 l 657 737 l 724 737 l 567 0 l 513 0 l 532 139 l 528 139 q 254 -11 414 -11 q 120 31 165 -11 q 74 154 74 73 q 89 269 74 195 l 191 737 l 258 737 z "},"й":{"ha":775,"x_min":74,"x_max":724,"o":"m 258 737 l 155 264 q 140 157 140 192 q 173 77 140 106 q 267 47 205 47 q 407 92 341 47 q 518 219 473 136 q 586 408 564 301 l 657 737 l 724 737 l 567 0 l 513 0 l 532 139 l 528 139 q 254 -11 414 -11 q 120 31 165 -11 q 74 154 74 73 q 89 269 74 195 l 191 737 l 258 737 m 718 1036 q 643 892 707 943 q 478 842 580 842 q 339 881 383 842 q 294 986 294 920 q 303 1036 294 1012 l 359 1036 q 353 994 353 1006 q 382 924 353 948 q 479 900 411 900 q 654 1036 636 900 l 718 1036 z "},"к":{"ha":632,"x_min":49,"x_max":681,"o":"m 582 737 l 681 737 l 269 375 l 543 0 l 457 0 l 192 372 l 115 0 l 49 0 l 201 737 l 268 737 l 193 382 l 582 737 z "},"л":{"ha":697,"x_min":-69,"x_max":648,"o":"m 492 0 l 427 0 l 572 682 q 522 686 547 686 q 419 660 460 686 q 343 569 378 633 q 260 361 308 505 q 164 121 201 188 q 82 23 127 54 q -28 -7 37 -7 q -69 -1 -53 -7 l -69 60 q -29 54 -50 54 q 54 80 21 54 q 118 169 86 106 q 200 380 149 232 q 299 617 257 549 q 396 714 341 684 q 532 743 451 743 q 648 732 587 743 l 492 0 z "},"м":{"ha":885,"x_min":31,"x_max":859,"o":"m 640 0 l 774 631 q 747 583 762 609 q 387 0 732 557 l 342 0 l 243 490 q 231 557 239 510 q 222 627 223 605 l 92 0 l 31 0 l 187 737 l 256 737 l 359 196 q 378 81 378 89 q 420 160 395 118 q 779 737 445 202 l 859 737 l 700 0 l 640 0 z "},"н":{"ha":819,"x_min":50,"x_max":768,"o":"m 273 737 l 205 412 l 629 412 l 700 737 l 768 737 l 611 0 l 542 0 l 616 350 l 193 350 l 118 0 l 50 0 l 208 737 l 273 737 z "},"о":{"ha":762,"x_min":66,"x_max":696,"o":"m 440 751 q 629 678 562 751 q 696 475 696 604 q 647 225 696 341 q 515 47 599 109 q 321 -14 431 -14 q 131 61 196 -14 q 66 273 66 135 q 116 516 66 403 q 250 690 165 629 q 440 751 334 751 m 435 693 q 283 640 351 693 q 176 487 216 587 q 136 277 136 388 q 328 45 136 45 q 480 97 414 45 q 587 252 547 150 q 627 476 627 354 q 577 637 627 581 q 435 693 528 693 z "},"п":{"ha":775,"x_min":52,"x_max":701,"o":"m 518 0 l 619 469 q 633 575 633 532 q 604 660 633 629 q 513 690 574 690 q 370 645 437 690 q 257 518 303 600 q 187 323 212 436 l 118 0 l 52 0 l 208 737 l 264 737 l 239 587 l 243 587 q 525 749 354 749 q 657 705 613 749 q 701 581 701 662 q 685 457 701 533 l 585 0 l 518 0 z "},"р":{"ha":789,"x_min":-22,"x_max":713,"o":"m 338 -11 q 149 138 182 -11 l 146 138 q 45 -334 137 89 l -22 -334 l 205 737 l 261 737 l 231 551 l 235 551 q 367 703 296 655 q 522 751 438 751 q 663 689 614 751 q 713 497 713 626 q 664 245 713 365 q 530 58 615 126 q 338 -11 445 -11 m 507 690 q 389 651 448 690 q 280 537 330 611 q 205 376 229 463 q 180 235 180 289 q 222 99 180 150 q 336 47 264 47 q 489 104 420 47 q 600 270 557 161 q 643 490 643 378 q 507 690 643 690 z "},"с":{"ha":602,"x_min":69,"x_max":614,"o":"m 323 -14 q 137 61 205 -14 q 69 269 69 136 q 119 514 69 400 q 254 689 169 629 q 450 749 338 749 q 614 720 541 749 l 595 659 q 447 690 522 690 q 289 638 359 690 q 179 488 219 586 q 139 271 139 389 q 189 105 139 163 q 330 47 239 47 q 419 56 378 47 q 509 87 460 65 l 509 25 q 323 -14 430 -14 z "},"т":{"ha":1187,"x_min":49,"x_max":1105,"o":"m 482 0 l 582 457 q 599 567 599 542 q 494 690 599 690 q 359 645 422 690 q 251 517 295 599 q 183 322 207 435 l 115 0 l 49 0 l 205 737 l 260 737 l 237 595 l 241 595 q 365 710 296 671 q 509 749 433 749 q 619 703 581 749 q 660 571 658 658 l 664 571 q 787 704 716 659 q 937 749 857 749 q 1061 707 1017 749 q 1105 587 1105 665 q 1104 549 1105 568 q 1090 468 1102 530 l 987 0 l 920 0 l 1021 461 q 1038 581 1038 543 q 1008 662 1038 633 q 928 690 979 690 q 740 597 821 690 q 625 351 658 504 l 551 0 l 482 0 z "},"у":{"ha":624,"x_min":-147,"x_max":684,"o":"m 83 737 l 151 737 l 207 366 q 244 61 241 127 l 252 61 q 378 310 281 132 l 614 737 l 684 737 l 200 -138 q 117 -258 151 -224 q 40 -313 83 -293 q -60 -334 -3 -334 q -147 -319 -106 -334 l -147 -257 q -54 -275 -99 -275 q 45 -242 0 -275 q 134 -130 91 -208 q 201 -5 176 -52 l 83 737 z "},"ф":{"ha":847,"x_min":66,"x_max":785,"o":"m 533 739 q 785 443 785 713 q 732 213 785 317 q 589 54 680 109 q 375 0 497 0 l 302 -334 l 241 -334 l 313 0 q 132 87 198 9 q 66 297 66 165 q 116 523 66 422 q 257 680 165 623 q 471 737 349 736 l 538 1055 l 602 1055 l 533 739 m 136 304 q 184 130 136 193 q 325 58 232 66 l 458 677 q 290 631 361 675 q 178 498 219 587 q 136 304 136 409 m 387 58 q 556 103 484 58 q 672 240 629 148 q 715 437 715 332 q 666 611 715 549 q 521 677 616 673 l 387 58 z "},"х":{"ha":625,"x_min":-49,"x_max":647,"o":"m 300 328 l 33 0 l -49 0 l 271 379 l 104 737 l 172 737 l 313 424 l 566 737 l 647 737 l 343 375 l 518 0 l 452 0 l 300 328 z "},"ц":{"ha":793,"x_min":74,"x_max":724,"o":"m 258 737 l 155 264 q 140 157 140 194 q 173 77 140 106 q 267 47 205 47 q 407 92 341 47 q 518 219 473 136 q 586 408 564 301 l 657 737 l 724 737 l 612 218 q 597 103 597 148 q 654 43 597 43 q 697 47 670 43 l 629 -248 l 561 -248 l 615 -9 q 551 27 570 -1 q 533 109 533 56 l 534 143 l 530 143 q 403 28 473 66 q 256 -11 333 -11 q 120 31 165 -11 q 74 154 74 73 q 89 269 74 195 l 191 737 l 258 737 z "},"ч":{"ha":743,"x_min":106,"x_max":693,"o":"m 228 737 q 177 492 181 522 q 172 443 172 462 q 202 363 172 393 q 298 334 233 334 q 495 426 409 334 q 614 676 581 517 l 627 737 l 693 737 l 534 0 l 465 0 q 516 234 499 155 q 564 425 533 313 l 558 425 q 286 275 449 275 q 153 316 199 275 q 106 436 106 357 q 121 555 106 486 l 160 737 l 228 737 z "},"ш":{"ha":1187,"x_min":79,"x_max":1136,"o":"m 703 737 l 603 281 q 586 171 586 196 q 612 78 586 109 q 690 47 637 47 q 825 93 762 47 q 933 221 889 139 q 1002 415 977 302 l 1071 737 l 1136 737 l 979 0 l 925 0 l 947 143 l 943 143 q 681 -11 834 -11 q 567 35 606 -11 q 526 167 528 80 l 522 167 q 401 35 472 81 q 248 -11 330 -11 q 124 31 168 -11 q 79 150 79 73 q 81 189 79 170 q 94 269 83 208 l 197 737 l 265 737 l 164 277 q 147 157 147 195 q 176 77 147 106 q 257 47 205 47 q 446 142 363 47 q 559 389 528 236 l 633 737 l 703 737 z "},"щ":{"ha":1206,"x_min":79,"x_max":1136,"o":"m 1010 103 q 1067 43 1010 43 q 1109 47 1082 43 l 1042 -248 l 974 -248 l 1028 -9 q 964 27 982 -1 q 945 105 945 54 l 947 143 l 943 143 q 681 -11 834 -11 q 567 35 606 -11 q 526 167 528 80 l 522 167 q 401 35 472 81 q 248 -11 330 -11 q 124 31 168 -11 q 79 150 79 73 q 81 189 79 170 q 94 269 83 208 l 197 737 l 265 737 l 164 277 q 147 157 147 195 q 176 77 147 106 q 257 47 205 47 q 446 142 363 47 q 559 389 528 236 l 633 737 l 703 737 l 603 281 q 586 171 586 196 q 612 78 586 109 q 690 47 637 47 q 825 93 762 47 q 933 221 889 139 q 1002 415 977 302 l 1071 737 l 1136 737 l 1025 218 q 1010 103 1010 148 z "},"ъ":{"ha":772,"x_min":56,"x_max":703,"o":"m 289 399 l 327 406 q 472 419 406 419 q 703 229 703 419 q 627 53 703 119 q 421 -14 551 -14 q 252 40 311 -14 q 193 197 193 94 q 214 366 193 264 l 282 682 l 56 682 l 69 737 l 363 737 l 289 399 m 460 361 q 360 354 407 361 q 277 340 313 347 q 260 208 260 260 q 298 86 260 125 q 427 47 337 47 q 578 94 523 47 q 633 224 633 141 q 590 327 633 294 q 460 361 547 361 z "},"ы":{"ha":942,"x_min":96,"x_max":890,"o":"m 733 0 l 667 0 l 825 737 l 890 737 l 733 0 m 192 399 l 230 406 q 375 419 309 419 q 606 229 606 419 q 530 53 606 119 q 323 -14 454 -14 q 154 40 213 -14 q 96 197 96 94 q 117 366 96 260 l 197 737 l 265 737 l 192 399 m 363 361 q 263 354 310 361 q 179 340 216 347 q 163 208 163 259 q 201 86 163 125 q 329 47 239 47 q 481 94 426 47 q 536 224 536 141 q 493 328 536 294 q 363 361 449 361 z "},"ь":{"ha":675,"x_min":96,"x_max":606,"o":"m 192 399 l 230 406 q 375 419 309 419 q 606 229 606 419 q 530 53 606 119 q 323 -14 454 -14 q 154 40 213 -14 q 96 197 96 94 q 117 366 96 260 l 197 737 l 265 737 l 192 399 m 363 361 q 263 354 310 361 q 179 340 216 347 q 163 208 163 259 q 201 86 163 125 q 329 47 239 47 q 481 94 426 47 q 536 224 536 141 q 493 328 536 294 q 363 361 449 361 z "},"э":{"ha":614,"x_min":7,"x_max":547,"o":"m 298 751 q 483 680 419 751 q 547 475 547 608 q 499 219 547 334 q 365 45 450 104 q 164 -14 279 -14 q 83 -5 126 -14 q 7 17 39 3 l 7 86 q 87 58 43 68 q 170 47 131 47 q 365 125 289 47 q 468 357 440 203 l 113 357 l 125 416 l 475 416 q 478 464 478 439 q 432 637 478 581 q 292 693 386 693 q 225 686 259 693 q 118 650 191 678 l 100 707 q 185 738 159 730 q 239 748 210 745 q 298 751 268 751 z "},"ю":{"ha":1046,"x_min":50,"x_max":991,"o":"m 743 751 q 926 680 861 751 q 991 475 991 608 q 944 221 991 337 q 814 46 896 105 q 624 -14 733 -14 q 438 60 500 -14 q 376 273 376 133 q 380 350 376 310 l 193 350 l 118 0 l 50 0 l 208 737 l 273 737 l 205 412 l 392 412 q 519 660 427 569 q 743 751 612 751 m 737 693 q 589 641 654 693 q 485 489 524 589 q 446 277 446 389 q 492 100 446 155 q 631 45 538 45 q 781 97 715 45 q 884 252 846 149 q 922 476 922 356 q 875 638 922 583 q 737 693 828 693 z "},"я":{"ha":704,"x_min":-25,"x_max":653,"o":"m 403 326 q 311 313 347 326 q 250 270 275 300 q 186 155 224 240 q 129 51 151 78 q 79 9 107 23 q 9 -5 52 -5 q -25 -1 -13 -5 l -25 56 q 1 53 -17 53 q 67 76 42 53 q 126 179 92 100 q 190 291 158 254 q 265 343 221 327 q 156 399 195 357 q 118 509 118 441 q 151 631 118 580 q 240 709 183 682 q 368 737 297 737 l 653 737 l 496 0 l 429 0 l 500 326 l 403 326 m 376 682 q 238 636 288 682 q 187 511 187 591 q 375 379 187 379 l 511 379 l 575 682 l 376 682 z "},"ё":{"ha":629,"x_min":69,"x_max":626,"o":"m 318 -14 q 135 61 201 -14 q 69 268 69 135 q 117 503 69 391 q 250 682 165 616 q 436 749 334 749 q 559 707 513 749 q 606 595 606 666 q 495 408 606 472 q 165 343 384 343 l 143 343 q 139 277 139 313 q 189 106 139 165 q 334 47 239 47 q 521 97 423 47 l 521 33 q 318 -14 426 -14 m 428 690 q 263 612 339 690 q 153 403 186 534 l 186 403 q 536 586 536 403 q 507 661 536 631 q 428 690 477 690 m 537 926 q 551 979 537 960 q 589 999 565 999 q 626 956 626 999 q 612 903 626 923 q 574 884 597 884 q 537 926 537 884 m 304 926 q 318 979 304 960 q 356 999 332 999 q 393 956 393 999 q 378 903 393 923 q 341 884 364 884 q 304 926 304 884 z "},"ђ":{"ha":782,"x_min":52,"x_max":701,"o":"m 236 867 l 138 867 l 150 922 l 249 922 l 275 1055 l 342 1055 l 314 922 l 567 922 l 554 867 l 302 867 q 257 657 268 701 q 239 587 246 614 l 243 587 q 525 749 359 749 q 655 706 609 749 q 701 581 701 663 q 685 457 701 533 l 558 -125 q 487 -284 534 -235 q 358 -334 439 -334 q 282 -321 314 -334 l 282 -258 q 358 -273 321 -273 q 447 -237 417 -273 q 494 -118 477 -200 l 619 469 q 633 575 633 532 q 513 690 633 690 q 371 645 438 690 q 258 519 304 600 q 187 323 212 439 l 118 0 l 52 0 l 236 867 z "},"ѓ":{"ha":619,"x_min":53,"x_max":617,"o":"m 157 699 q 273 734 239 727 q 337 745 307 742 q 395 749 367 749 q 535 709 487 749 q 583 596 583 669 q 531 468 583 521 q 350 368 479 415 q 204 304 247 330 q 142 245 162 277 q 122 167 122 212 q 159 76 122 108 q 269 45 197 45 q 492 94 380 45 l 492 33 q 391 1 447 16 q 261 -14 334 -14 q 107 33 162 -14 q 53 164 53 79 q 77 262 53 220 q 151 339 101 304 q 304 414 200 373 q 442 477 405 454 q 497 526 479 500 q 514 587 514 553 q 481 664 514 638 q 386 689 448 689 q 290 676 347 689 q 176 640 234 663 l 157 699 m 334 856 q 436 952 379 890 q 524 1064 494 1014 l 617 1064 l 617 1048 q 510 941 583 1004 q 380 842 438 878 l 334 842 l 334 856 z "},"є":{"ha":607,"x_min":66,"x_max":611,"o":"m 322 -14 q 133 62 200 -14 q 66 269 66 137 q 117 517 66 402 q 253 690 168 632 q 447 749 338 749 q 611 720 538 749 l 591 659 q 444 690 519 690 q 262 618 340 690 q 151 411 184 546 l 514 411 l 500 354 l 142 354 q 136 271 136 317 q 185 105 136 162 q 328 47 235 47 q 415 56 374 47 q 505 87 456 65 l 505 25 q 322 -14 422 -14 z "},"ѕ":{"ha":561,"x_min":17,"x_max":554,"o":"m 484 200 q 414 44 484 102 q 224 -14 344 -14 q 17 37 106 -14 l 17 110 q 121 62 67 79 q 221 45 174 45 q 364 84 315 45 q 414 195 414 123 q 403 245 414 223 q 369 287 393 267 q 279 345 346 307 q 144 443 179 399 q 109 551 109 488 q 175 693 109 638 q 351 749 242 749 q 459 737 402 749 q 554 705 515 725 l 530 646 q 351 689 438 689 q 225 653 273 689 q 178 559 178 617 q 189 500 178 522 q 230 453 201 477 q 311 401 260 429 q 421 331 389 359 q 468 273 453 304 q 484 200 484 241 z "},"і":{"ha":322,"x_min":52,"x_max":332,"o":"m 118 0 l 52 0 l 208 737 l 273 737 l 118 0 m 237 926 q 252 986 237 964 q 293 1008 267 1008 q 332 960 332 1008 q 317 899 332 921 q 278 876 302 876 q 248 889 258 876 q 237 926 237 903 z "},"ї":{"ha":322,"x_min":52,"x_max":455,"o":"m 118 0 l 52 0 l 208 737 l 273 737 l 118 0 m 366 926 q 380 979 366 960 q 418 999 394 999 q 455 956 455 999 q 441 903 455 923 q 404 884 427 884 q 366 926 366 884 m 133 926 q 147 979 133 960 q 185 999 161 999 q 222 956 222 999 q 208 903 222 923 q 170 884 193 884 q 133 926 133 884 z "},"ј":{"ha":322,"x_min":-189,"x_max":332,"o":"m -113 -334 q -189 -321 -155 -334 l -189 -258 q -113 -273 -157 -273 q -25 -238 -57 -273 q 24 -118 6 -203 l 204 737 l 269 737 l 87 -125 q 15 -285 64 -237 q -113 -334 -33 -334 m 237 926 q 252 986 237 964 q 293 1008 267 1008 q 332 960 332 1008 q 317 899 332 921 q 278 876 302 876 q 248 889 258 876 q 237 926 237 903 z "},"љ":{"ha":1013,"x_min":-69,"x_max":943,"o":"m 557 404 q 718 419 658 419 q 887 373 831 419 q 943 229 943 326 q 870 54 943 121 q 675 -14 796 -14 q 514 41 569 -14 q 458 196 458 96 q 461 239 458 214 q 467 292 463 265 q 543 684 471 319 q 509 686 529 686 q 374 616 428 686 q 260 361 321 545 q 165 121 203 189 q 83 23 128 53 q -28 -7 37 -7 q -69 -1 -50 -7 l -69 60 q -29 54 -47 54 q 55 80 22 54 q 119 171 87 106 q 200 380 151 235 q 256 530 229 463 q 318 645 283 597 q 403 718 354 692 q 525 743 452 743 q 623 732 569 743 l 557 404 m 705 361 q 546 346 627 361 q 526 205 526 256 q 677 47 526 47 q 821 95 768 47 q 873 224 873 143 q 833 327 873 292 q 705 361 793 361 z "},"њ":{"ha":1082,"x_min":50,"x_max":1013,"o":"m 599 399 l 637 406 q 782 419 716 419 q 1013 229 1013 419 q 937 53 1013 119 q 730 -14 861 -14 q 561 40 620 -14 q 503 197 503 94 q 519 350 503 264 l 193 350 l 118 0 l 50 0 l 208 737 l 273 737 l 205 412 l 533 412 l 604 737 l 672 737 l 599 399 m 770 361 q 670 354 717 361 q 586 340 623 347 q 570 208 570 259 q 608 86 570 125 q 736 47 646 47 q 888 94 833 47 q 943 224 943 141 q 900 328 943 294 q 770 361 856 361 z "},"ћ":{"ha":782,"x_min":52,"x_max":701,"o":"m 515 0 l 619 473 q 633 579 633 542 q 601 662 633 634 q 510 690 568 690 q 308 594 394 690 q 186 326 221 498 l 118 0 l 52 0 l 236 869 l 139 869 l 150 922 l 248 922 l 275 1055 l 342 1055 l 314 922 l 567 922 l 555 869 l 302 869 q 239 593 256 656 l 245 593 q 375 713 309 677 q 521 749 441 749 q 655 707 608 749 q 701 583 701 665 q 686 468 701 541 l 585 0 l 515 0 z "},"ќ":{"ha":632,"x_min":49,"x_max":684,"o":"m 582 737 l 681 737 l 269 375 l 543 0 l 457 0 l 192 372 l 115 0 l 49 0 l 201 737 l 268 737 l 193 382 l 582 737 m 401 856 q 504 952 446 890 q 591 1064 561 1014 l 684 1064 l 684 1048 q 577 941 650 1004 q 447 842 505 878 l 401 842 l 401 856 z "},"ў":{"ha":624,"x_min":-147,"x_max":684,"o":"m 83 737 l 151 737 l 207 366 q 244 61 241 127 l 252 61 q 378 310 281 132 l 614 737 l 684 737 l 200 -138 q 117 -258 151 -224 q 40 -313 83 -293 q -60 -334 -3 -334 q -147 -319 -106 -334 l -147 -257 q -54 -275 -99 -275 q 45 -242 0 -275 q 134 -130 91 -208 q 201 -5 176 -52 l 83 737 m 633 1036 q 558 892 621 943 q 393 842 494 842 q 253 881 298 842 q 209 986 209 920 q 218 1036 209 1012 l 273 1036 q 268 994 268 1006 q 297 924 268 948 q 394 900 326 900 q 569 1036 551 900 l 633 1036 z "},"џ":{"ha":775,"x_min":74,"x_max":724,"o":"m 339 -58 l 361 -58 l 300 -334 l 239 -334 l 298 -69 l 339 -58 m 258 737 l 155 264 q 140 157 140 192 q 173 77 140 106 q 267 47 205 47 q 407 92 341 47 q 518 219 473 136 q 586 408 564 301 l 657 737 l 724 737 l 567 0 l 513 0 l 532 139 l 528 139 q 254 -11 414 -11 q 120 31 165 -11 q 74 154 74 73 q 89 269 74 195 l 191 737 l 258 737 z "},"Ґ":{"ha":642,"x_min":69,"x_max":803,"o":"m 688 991 l 732 1190 l 803 1190 l 745 928 l 336 928 l 139 0 l 69 0 l 279 991 l 688 991 z "},"ґ":{"ha":473,"x_min":49,"x_max":591,"o":"m 532 682 l 258 682 l 115 0 l 49 0 l 203 737 l 479 737 l 526 958 l 591 958 l 532 682 z "},"Ẁ":{"ha":1154,"x_min":161,"x_max":1255,"o":"m 690 909 q 648 805 672 858 q 267 0 625 753 l 211 0 l 161 991 l 229 991 l 261 292 l 264 180 l 262 122 l 267 122 q 382 392 324 275 l 676 991 l 747 991 l 789 396 q 802 118 802 216 l 806 118 q 847 229 826 176 q 1182 991 869 281 l 1255 991 q 1031 496 1141 744 q 808 0 922 248 l 755 0 l 703 729 q 695 878 695 825 l 696 909 l 690 909 m 758 1071 l 713 1071 q 636 1169 680 1106 q 569 1279 593 1232 l 569 1293 l 647 1293 q 758 1088 678 1206 l 758 1071 z "},"ẁ":{"ha":945,"x_min":82,"x_max":986,"o":"m 568 0 l 528 465 q 518 646 518 617 l 514 646 q 416 449 491 583 l 175 0 l 96 0 l 82 737 l 144 737 l 153 180 l 151 74 l 155 74 q 257 275 197 165 l 510 737 l 562 737 l 606 275 q 615 74 615 176 l 619 74 l 635 115 l 704 275 l 921 737 l 986 737 l 642 0 l 568 0 m 593 842 l 549 842 q 471 940 515 877 q 404 1050 428 1002 l 404 1064 l 482 1064 q 593 859 513 977 l 593 842 z "},"Ẃ":{"ha":1154,"x_min":161,"x_max":1255,"o":"m 690 909 q 648 805 672 858 q 267 0 625 753 l 211 0 l 161 991 l 229 991 l 261 292 l 264 180 l 262 122 l 267 122 q 382 392 324 275 l 676 991 l 747 991 l 789 396 q 802 118 802 216 l 806 118 q 847 229 826 176 q 1182 991 869 281 l 1255 991 q 1031 496 1141 744 q 808 0 922 248 l 755 0 l 703 729 q 695 878 695 825 l 696 909 l 690 909 m 674 1085 q 776 1181 719 1120 q 864 1293 833 1243 l 957 1293 l 957 1278 q 850 1170 922 1233 q 720 1071 778 1107 l 674 1071 l 674 1085 z "},"ẃ":{"ha":945,"x_min":82,"x_max":986,"o":"m 568 0 l 528 465 q 518 646 518 617 l 514 646 q 416 449 491 583 l 175 0 l 96 0 l 82 737 l 144 737 l 153 180 l 151 74 l 155 74 q 257 275 197 165 l 510 737 l 562 737 l 606 275 q 615 74 615 176 l 619 74 l 635 115 l 704 275 l 921 737 l 986 737 l 642 0 l 568 0 m 500 856 q 603 952 545 890 q 690 1064 660 1014 l 783 1064 l 783 1048 q 676 941 749 1004 q 546 842 604 878 l 500 842 l 500 856 z "},"Ẅ":{"ha":1154,"x_min":161,"x_max":1255,"o":"m 690 909 q 648 805 672 858 q 267 0 625 753 l 211 0 l 161 991 l 229 991 l 261 292 l 264 180 l 262 122 l 267 122 q 382 392 324 275 l 676 991 l 747 991 l 789 396 q 802 118 802 216 l 806 118 q 847 229 826 176 q 1182 991 869 281 l 1255 991 q 1031 496 1141 744 q 808 0 922 248 l 755 0 l 703 729 q 695 878 695 825 l 696 909 l 690 909 m 808 1156 q 822 1208 808 1189 q 861 1228 836 1228 q 897 1185 897 1228 q 883 1133 897 1152 q 846 1113 869 1113 q 808 1156 808 1113 m 575 1156 q 589 1208 575 1189 q 627 1228 603 1228 q 664 1185 664 1228 q 650 1133 664 1152 q 612 1113 635 1113 q 575 1156 575 1113 z "},"ẅ":{"ha":945,"x_min":82,"x_max":986,"o":"m 568 0 l 528 465 q 518 646 518 617 l 514 646 q 416 449 491 583 l 175 0 l 96 0 l 82 737 l 144 737 l 153 180 l 151 74 l 155 74 q 257 275 197 165 l 510 737 l 562 737 l 606 275 q 615 74 615 176 l 619 74 l 635 115 l 704 275 l 921 737 l 986 737 l 642 0 l 568 0 m 642 926 q 656 979 642 960 q 694 999 670 999 q 731 956 731 999 q 717 903 731 923 q 680 884 703 884 q 642 926 642 884 m 409 926 q 423 979 409 960 q 461 999 437 999 q 498 956 498 999 q 484 903 498 923 q 446 884 469 884 q 409 926 409 884 z "},"Ỳ":{"ha":654,"x_min":131,"x_max":783,"o":"m 335 437 l 704 991 l 783 991 l 355 359 l 282 0 l 211 0 l 292 370 l 131 991 l 199 991 l 335 437 m 494 1071 l 449 1071 q 372 1169 415 1106 q 304 1279 328 1232 l 304 1293 l 382 1293 q 494 1088 414 1206 l 494 1071 z "},"ỳ":{"ha":624,"x_min":-147,"x_max":684,"o":"m 83 737 l 151 737 l 207 366 q 244 61 241 127 l 252 61 q 378 310 281 132 l 614 737 l 684 737 l 200 -138 q 117 -258 151 -224 q 40 -313 83 -293 q -60 -334 -3 -334 q -147 -319 -106 -334 l -147 -257 q -54 -275 -99 -275 q 45 -242 0 -275 q 134 -130 91 -208 q 201 -5 176 -52 l 83 737 m 429 842 l 384 842 q 307 940 350 877 q 239 1050 263 1002 l 239 1064 l 317 1064 q 429 859 349 977 l 429 842 z "},"–":{"ha":667,"x_min":45,"x_max":604,"o":"m 45 340 l 57 401 l 604 401 l 593 340 l 45 340 z "},"—":{"ha":1333,"x_min":46,"x_max":1271,"o":"m 46 340 l 58 401 l 1271 401 l 1260 340 l 46 340 z "},"―":{"ha":1333,"x_min":46,"x_max":1271,"o":"m 46 340 l 58 401 l 1271 401 l 1260 340 l 46 340 z "},"‗":{"ha":543,"x_min":-138,"x_max":464,"o":"m 452 -100 l -96 -100 l -83 -42 l 464 -42 l 452 -100 m 409 -294 l -138 -294 l -126 -235 l 421 -235 l 409 -294 z "},"‘":{"ha":203,"x_min":87,"x_max":325,"o":"m 90 652 l 87 667 q 166 823 115 734 q 275 991 217 912 l 325 991 q 237 827 280 920 q 167 652 194 734 l 90 652 z "},"’":{"ha":203,"x_min":87,"x_max":325,"o":"m 322 991 l 325 977 q 245 817 296 905 q 138 652 195 728 l 87 652 q 175 816 132 724 q 245 991 218 909 l 322 991 z "},"‚":{"ha":306,"x_min":-68,"x_max":170,"o":"m 167 161 l 170 146 q 91 -10 142 80 q -18 -179 40 -100 l -68 -179 q 21 -11 -22 -104 q 90 161 64 83 l 167 161 z "},"‛":{"ha":203,"x_min":139,"x_max":278,"o":"m 220 991 q 278 652 233 803 l 228 652 q 139 977 159 831 l 153 991 l 220 991 z "},"“":{"ha":428,"x_min":87,"x_max":551,"o":"m 90 652 l 87 667 q 166 823 115 734 q 275 991 217 912 l 325 991 q 237 827 280 920 q 167 652 194 734 l 90 652 m 317 652 l 314 667 q 395 828 343 737 q 501 991 448 920 l 551 991 q 464 827 507 920 q 393 652 420 734 l 317 652 z "},"”":{"ha":428,"x_min":87,"x_max":551,"o":"m 549 991 l 551 977 q 472 817 522 905 q 364 652 421 728 l 314 652 q 402 816 359 724 q 472 991 445 909 l 549 991 m 322 991 l 325 977 q 245 817 296 905 q 138 652 195 728 l 87 652 q 175 816 132 724 q 245 991 218 909 l 322 991 z "}}}
